<svg xmlns="http://www.w3.org/2000/svg" width="283.178" height="157.1" viewBox="0 0 283.178 157.1">
  <g id="Group_25" data-name="Group 25" transform="translate(-283.732 -142.209)">
    <path id="Path_1" data-name="Path 1" d="M301.1,299s-34.792-37.355-5.884-77.8c25.649-35.883,55.553-33.43,77.493-18.869,9.345,6.2,36.286.764,59.217-35.748,31.271-49.793,139.669-19.593,119.9,57.015-9.565,37.073,29.109,38.42,9.4,75.478Z" fill="#ebf3fa"/>
    <g id="Group_2" data-name="Group 2" transform="translate(458.198 259.139)">
      <path id="Path_2" data-name="Path 2" d="M1802.033,1154.821l2.669.439a1.136,1.136,0,0,1,.549.249.951.951,0,0,1,.315.486.779.779,0,0,1,.026.173.8.8,0,0,1-.01.162l-6.14,37.212a.98.98,0,0,1-1.124.739l-.053-.008-2.669-.439-.053-.01a.979.979,0,0,1-.827-1.06l6.14-37.212a.786.786,0,0,1,.043-.156.774.774,0,0,1,.08-.156.955.955,0,0,1,.455-.359A1.139,1.139,0,0,1,1802.033,1154.821Z" transform="translate(-1794.692 -1154.805)" fill="#ffb93e"/>
      <path id="Path_3" data-name="Path 3" d="M1802.61,1318.449l-3.289,19.936a.94.94,0,0,1-1.108.642l-.053-.008-2.669-.439-.053-.01a.939.939,0,0,1-.843-.963l2.885-17.488A8.925,8.925,0,0,0,1802.61,1318.449Z" transform="translate(-1794.586 -1299.552)" fill="#ffa412"/>
      <g id="Group_1" data-name="Group 1" transform="translate(2.132 0.076)">
        <rect id="Rectangle_1" data-name="Rectangle 1" width="0.429" height="4.789" transform="translate(3.364 4.72) rotate(-80.616)" fill="#ffa412"/>
        <rect id="Rectangle_2" data-name="Rectangle 2" width="0.429" height="4.789" transform="translate(3.128 6.153) rotate(-80.643)" fill="#ffa412"/>
        <rect id="Rectangle_3" data-name="Rectangle 3" width="0.429" height="4.789" transform="translate(2.845 7.869) rotate(-80.627)" fill="#ffa412"/>
        <rect id="Rectangle_4" data-name="Rectangle 4" width="0.429" height="4.789" transform="translate(2.411 10.501) rotate(-80.631)" fill="#ffa412"/>
        <rect id="Rectangle_5" data-name="Rectangle 5" width="0.429" height="4.789" transform="translate(1.951 13.283) rotate(-80.629)" fill="#ffa412"/>
        <rect id="Rectangle_6" data-name="Rectangle 6" width="0.429" height="4.789" transform="translate(1.248 17.55) rotate(-80.642)" fill="#ffa412"/>
        <rect id="Rectangle_7" data-name="Rectangle 7" width="0.429" height="4.789" transform="translate(0.589 21.543) rotate(-80.615)" fill="#ffa412"/>
        <rect id="Rectangle_8" data-name="Rectangle 8" width="0.429" height="4.789" transform="translate(0 25.11) rotate(-80.631)" fill="#ffa412"/>
        <rect id="Rectangle_9" data-name="Rectangle 9" width="0.429" height="4.789" transform="translate(3.589 3.358) rotate(-80.642)" fill="#ffa412"/>
        <rect id="Rectangle_10" data-name="Rectangle 10" width="0.429" height="4.789" transform="translate(3.738 2.458) rotate(-80.629)" fill="#ffa412"/>
        <rect id="Rectangle_11" data-name="Rectangle 11" width="0.429" height="4.789" transform="translate(3.881 1.589) rotate(-80.642)" fill="#ffa412"/>
        <path id="Path_4" data-name="Path 4" d="M1847.592,1160.344l4.726.777.043-.264a.786.786,0,0,0,.01-.162l-4.693-.772a.794.794,0,0,0-.042.156Z" transform="translate(-1843.603 -1159.408)" fill="#ffa412"/>
        <path id="Path_5" data-name="Path 5" d="M1849.031,1155.819l4.587.754a.951.951,0,0,0-.315-.486l-3.817-.628A.955.955,0,0,0,1849.031,1155.819Z" transform="translate(-1844.876 -1155.46)" fill="#ffa412"/>
      </g>
    </g>
    <g id="Group_4" data-name="Group 4" transform="translate(463.039 259.139)">
      <path id="Path_6" data-name="Path 6" d="M1843.959,1154.821l2.669.439a1.137,1.137,0,0,1,.549.249.95.95,0,0,1,.315.486.771.771,0,0,1,.026.173.786.786,0,0,1-.01.162l-6.14,37.212a.98.98,0,0,1-1.124.739l-.053-.008-2.669-.439-.053-.01a.979.979,0,0,1-.827-1.06l6.14-37.212a.8.8,0,0,1,.043-.156.767.767,0,0,1,.08-.156.956.956,0,0,1,.455-.359A1.139,1.139,0,0,1,1843.959,1154.821Z" transform="translate(-1836.618 -1154.805)" fill="#ffb93e"/>
      <path id="Path_7" data-name="Path 7" d="M1844.536,1318.449l-3.289,19.936a.94.94,0,0,1-1.108.642l-.053-.008-2.669-.439-.053-.01a.939.939,0,0,1-.843-.963l2.885-17.488A8.924,8.924,0,0,0,1844.536,1318.449Z" transform="translate(-1836.512 -1299.552)" fill="#ffa412"/>
      <g id="Group_3" data-name="Group 3" transform="translate(2.132 0.076)">
        <rect id="Rectangle_12" data-name="Rectangle 12" width="0.429" height="4.789" transform="translate(3.364 4.72) rotate(-80.616)" fill="#ffa412"/>
        <rect id="Rectangle_13" data-name="Rectangle 13" width="0.429" height="4.789" transform="matrix(0.163, -0.987, 0.987, 0.163, 3.128, 6.153)" fill="#ffa412"/>
        <rect id="Rectangle_14" data-name="Rectangle 14" width="0.429" height="4.789" transform="translate(2.845 7.869) rotate(-80.627)" fill="#ffa412"/>
        <rect id="Rectangle_15" data-name="Rectangle 15" width="0.429" height="4.789" transform="translate(2.411 10.501) rotate(-80.629)" fill="#ffa412"/>
        <rect id="Rectangle_16" data-name="Rectangle 16" width="0.429" height="4.789" transform="translate(1.951 13.283) rotate(-80.629)" fill="#ffa412"/>
        <rect id="Rectangle_17" data-name="Rectangle 17" width="0.429" height="4.789" transform="translate(1.247 17.549) rotate(-80.627)" fill="#ffa412"/>
        <rect id="Rectangle_18" data-name="Rectangle 18" width="0.429" height="4.789" transform="translate(0.588 21.543) rotate(-80.629)" fill="#ffa412"/>
        <rect id="Rectangle_19" data-name="Rectangle 19" width="0.429" height="4.789" transform="translate(0 25.11) rotate(-80.629)" fill="#ffa412"/>
        <rect id="Rectangle_20" data-name="Rectangle 20" width="0.429" height="4.789" transform="translate(3.589 3.358) rotate(-80.627)" fill="#ffa412"/>
        <rect id="Rectangle_21" data-name="Rectangle 21" width="0.429" height="4.789" transform="matrix(0.163, -0.987, 0.987, 0.163, 3.738, 2.458)" fill="#ffa412"/>
        <rect id="Rectangle_22" data-name="Rectangle 22" width="0.429" height="4.789" transform="translate(3.881 1.589) rotate(-80.642)" fill="#ffa412"/>
        <path id="Path_8" data-name="Path 8" d="M1889.518,1160.344l4.726.777.043-.264a.786.786,0,0,0,.01-.162l-4.693-.772a.811.811,0,0,0-.042.156Z" transform="translate(-1885.529 -1159.408)" fill="#ffa412"/>
        <path id="Path_9" data-name="Path 9" d="M1890.957,1155.819l4.587.754a.951.951,0,0,0-.315-.486l-3.817-.628A.955.955,0,0,0,1890.957,1155.819Z" transform="translate(-1886.802 -1155.46)" fill="#ffa412"/>
      </g>
    </g>
    <g id="Group_10" data-name="Group 10" transform="translate(409.107 246.247)">
      <g id="Group_6" data-name="Group 6" transform="translate(4.024 47.498)">
        <path id="Path_10" data-name="Path 10" d="M1443.853,1455.624l0,2.7a1.139,1.139,0,0,1-.158.582.953.953,0,0,1-.429.389.787.787,0,0,1-.167.053.8.8,0,0,1-.161.016l-37.715-.089a.98.98,0,0,1-.91-.991c0-.018,0-.036,0-.054l.005-2.7c0-.018,0-.036,0-.054a.979.979,0,0,1,.913-.987l37.715.09a.782.782,0,0,1,.161.017.79.79,0,0,1,.167.054.952.952,0,0,1,.427.391A1.138,1.138,0,0,1,1443.853,1455.624Z" transform="translate(-1404.308 -1454.49)" fill="#ffb93e"/>
        <path id="Path_11" data-name="Path 11" d="M1425.326,1459.325l-20.205-.048a.94.94,0,0,1-.812-.991c0-.018,0-.036,0-.054l.005-2.7c0-.018,0-.036,0-.053a.939.939,0,0,1,.816-.987l17.724.042A8.927,8.927,0,0,0,1425.326,1459.325Z" transform="translate(-1404.308 -1454.488)" fill="#ffa412"/>
        <g id="Group_5" data-name="Group 5" transform="translate(13.853 0.031)">
          <rect id="Rectangle_23" data-name="Rectangle 23" width="4.789" height="0.429" transform="translate(20.666 4.838) rotate(-89.864)" fill="#ffa412"/>
          <rect id="Rectangle_24" data-name="Rectangle 24" width="4.789" height="0.429" transform="translate(19.215 4.835) rotate(-89.864)" fill="#ffa412"/>
          <rect id="Rectangle_25" data-name="Rectangle 25" width="4.789" height="0.429" transform="translate(17.474 4.831) rotate(-89.849)" fill="#ffa412"/>
          <rect id="Rectangle_26" data-name="Rectangle 26" width="4.789" height="0.429" transform="matrix(0.002, -1, 1, 0.002, 14.808, 4.824)" fill="#ffa412"/>
          <rect id="Rectangle_27" data-name="Rectangle 27" width="4.789" height="0.429" transform="translate(11.987 4.818) rotate(-89.864)" fill="#ffa412"/>
          <rect id="Rectangle_28" data-name="Rectangle 28" width="4.789" height="0.429" transform="translate(7.664 4.807) rotate(-89.864)" fill="#ffa412"/>
          <rect id="Rectangle_29" data-name="Rectangle 29" width="4.789" height="0.429" transform="translate(3.615 4.798) rotate(-89.864)" fill="#ffa412"/>
          <rect id="Rectangle_30" data-name="Rectangle 30" width="4.789" height="0.429" transform="matrix(0.003, -1, 1, 0.003, 0, 4.789)" fill="#ffa412"/>
          <rect id="Rectangle_31" data-name="Rectangle 31" width="4.789" height="0.429" transform="translate(22.047 4.842) rotate(-89.864)" fill="#ffa412"/>
          <rect id="Rectangle_32" data-name="Rectangle 32" width="4.789" height="0.429" transform="translate(22.96 4.844) rotate(-89.88)" fill="#ffa412"/>
          <rect id="Rectangle_33" data-name="Rectangle 33" width="4.789" height="0.429" transform="translate(23.84 4.846) rotate(-89.864)" fill="#ffa412"/>
          <path id="Path_12" data-name="Path 12" d="M1736.49,1455.26l-.009,4.789h.268a.8.8,0,0,0,.161-.016l.009-4.756a.775.775,0,0,0-.161-.017Z" transform="translate(-1711.977 -1455.202)" fill="#ffa412"/>
          <path id="Path_13" data-name="Path 13" d="M1741.651,1455.881l-.009,4.648a.951.951,0,0,0,.429-.389l.007-3.868A.952.952,0,0,0,1741.651,1455.881Z" transform="translate(-1716.542 -1455.751)" fill="#ffa412"/>
        </g>
      </g>
      <g id="Group_8" data-name="Group 8" transform="translate(0 42.699)">
        <path id="Path_14" data-name="Path 14" d="M1409.008,1414.068l0,2.7a1.139,1.139,0,0,1-.157.582.951.951,0,0,1-.429.389.782.782,0,0,1-.167.053.8.8,0,0,1-.161.016l-37.715-.09a.98.98,0,0,1-.91-.991c0-.018,0-.036,0-.054l.005-2.7c0-.018,0-.036,0-.053a.979.979,0,0,1,.913-.987l37.715.089c.024,0,.048,0,.072,0l.031,0,.034.005.024,0a.788.788,0,0,1,.167.054l.024.011.023.012.046.025.026.017.023.016.043.031c.016.013.032.026.047.04l.035.033,0,0,.023.024a.947.947,0,0,1,.066.078l.018.024.017.026c.012.017.023.035.034.053A1.136,1.136,0,0,1,1409.008,1414.068Z" transform="translate(-1369.463 -1412.934)" fill="#ffb93e"/>
        <path id="Path_15" data-name="Path 15" d="M1390.481,1417.769l-20.205-.048a.94.94,0,0,1-.812-.991c0-.018,0-.036,0-.054l.005-2.7c0-.018,0-.036,0-.053a.939.939,0,0,1,.815-.987l17.724.042c.008.039.016.078.025.118A8.859,8.859,0,0,0,1390.481,1417.769Z" transform="translate(-1369.463 -1412.932)" fill="#ffa412"/>
        <g id="Group_7" data-name="Group 7" transform="translate(13.854 0.031)">
          <rect id="Rectangle_34" data-name="Rectangle 34" width="4.789" height="0.429" transform="translate(20.664 4.838) rotate(-89.866)" fill="#ffa412"/>
          <rect id="Rectangle_35" data-name="Rectangle 35" width="4.789" height="0.429" transform="matrix(0.002, -1, 1, 0.002, 19.214, 4.835)" fill="#ffa412"/>
          <rect id="Rectangle_36" data-name="Rectangle 36" width="4.789" height="0.429" transform="translate(17.473 4.83) rotate(-89.864)" fill="#ffa412"/>
          <rect id="Rectangle_37" data-name="Rectangle 37" width="4.789" height="0.429" transform="translate(14.806 4.824) rotate(-89.864)" fill="#ffa412"/>
          <rect id="Rectangle_38" data-name="Rectangle 38" width="4.789" height="0.429" transform="matrix(0.002, -1, 1, 0.002, 11.987, 4.818)" fill="#ffa412"/>
          <rect id="Rectangle_39" data-name="Rectangle 39" width="4.789" height="0.429" transform="translate(7.662 4.807) rotate(-89.85)" fill="#ffa412"/>
          <rect id="Rectangle_40" data-name="Rectangle 40" width="4.789" height="0.429" transform="translate(3.614 4.798) rotate(-89.864)" fill="#ffa412"/>
          <rect id="Rectangle_41" data-name="Rectangle 41" width="4.789" height="0.429" transform="matrix(0.002, -1, 1, 0.002, 0, 4.789)" fill="#ffa412"/>
          <rect id="Rectangle_42" data-name="Rectangle 42" width="4.789" height="0.429" transform="matrix(0.002, -1, 1, 0.002, 22.046, 4.841)" fill="#ffa412"/>
          <rect id="Rectangle_43" data-name="Rectangle 43" width="4.789" height="0.429" transform="translate(22.958 4.844) rotate(-89.864)" fill="#ffa412"/>
          <rect id="Rectangle_44" data-name="Rectangle 44" width="4.789" height="0.429" transform="translate(23.839 4.846) rotate(-89.864)" fill="#ffa412"/>
          <path id="Path_16" data-name="Path 16" d="M1701.645,1413.7l-.009,4.789h.268a.784.784,0,0,0,.161-.016l.009-4.756a.782.782,0,0,0-.161-.017Z" transform="translate(-1677.133 -1413.644)" fill="#ffa412"/>
          <path id="Path_17" data-name="Path 17" d="M1706.806,1414.324l-.009,4.648a.95.95,0,0,0,.429-.389l.007-3.869A.953.953,0,0,0,1706.806,1414.324Z" transform="translate(-1681.698 -1414.194)" fill="#ffa412"/>
        </g>
      </g>
      <path id="Path_18" data-name="Path 18" d="M1425.957,1373.657l0,2.7a1.139,1.139,0,0,1-.157.582.952.952,0,0,1-.429.389.814.814,0,0,1-.328.069l-37.715-.09a.814.814,0,0,1-.421-.119,1.06,1.06,0,0,1-.486-.825c0-.016,0-.031,0-.047s0-.036,0-.054l0-2.7c0-.018,0-.036,0-.053a.979.979,0,0,1,.913-.987l37.715.09a.8.8,0,0,1,.161.017.766.766,0,0,1,.167.054.954.954,0,0,1,.428.391A1.139,1.139,0,0,1,1425.957,1373.657Z" transform="translate(-1384.455 -1334.49)" fill="#ffb93e"/>
      <path id="Path_19" data-name="Path 19" d="M1407.43,1377.359l-20.205-.048a.671.671,0,0,1-.375-.119,1.085,1.085,0,0,1-.434-.825c0-.015,0-.031,0-.047s0-.036,0-.054l0-2.7c0-.018,0-.036,0-.054a.939.939,0,0,1,.815-.987l17.724.042a9.015,9.015,0,0,0,2.349,4.677Z" transform="translate(-1384.455 -1334.489)" fill="#ffa412"/>
      <path id="Path_20" data-name="Path 20" d="M1433.855,1332.2l0,2.7a1.136,1.136,0,0,1-.158.582.951.951,0,0,1-.429.389.765.765,0,0,1-.167.053.792.792,0,0,1-.161.016l-37.715-.09a.98.98,0,0,1-.91-.991c0-.018,0-.036,0-.054l.005-2.7c0-.018,0-.036,0-.053a1,1,0,0,1,.805-.979.731.731,0,0,1,.108-.007l37.715.09a.788.788,0,0,1,.161.017.778.778,0,0,1,.167.054.952.952,0,0,1,.427.391A1.138,1.138,0,0,1,1433.855,1332.2Z" transform="translate(-1391.441 -1297.822)" fill="#ffb93e"/>
      <path id="Path_21" data-name="Path 21" d="M1415.328,1335.9l-20.205-.048a.94.94,0,0,1-.812-.991c0-.018,0-.036,0-.054l.005-2.7c0-.018,0-.035,0-.053a.975.975,0,0,1,.719-.979.594.594,0,0,1,.1-.007l17.724.042a.062.062,0,0,1,0,.008A8.926,8.926,0,0,0,1415.328,1335.9Z" transform="translate(-1391.441 -1297.82)" fill="#ffa412"/>
      <path id="Path_22" data-name="Path 22" d="M1409.919,1290.737l-.005,2.7a1.139,1.139,0,0,1-.157.581.95.95,0,0,1-.429.389.776.776,0,0,1-.167.053l-.053.009-.03,0-.03,0-.048,0-37.715-.09a.98.98,0,0,1-.91-.991c0-.018,0-.036,0-.054l0-2.7c0-.018,0-.036,0-.054s0-.029,0-.044a1.017,1.017,0,0,1,.686-.911l.028-.008a.808.808,0,0,1,.2-.024l37.715.09c.028,0,.055,0,.082,0l.037,0h0l.042.008a.764.764,0,0,1,.167.054.951.951,0,0,1,.427.391A1.139,1.139,0,0,1,1409.919,1290.737Z" transform="translate(-1370.269 -1261.145)" fill="#ffb93e"/>
      <path id="Path_23" data-name="Path 23" d="M1391.392,1294.438l-20.205-.048a.94.94,0,0,1-.812-.991c0-.018,0-.036,0-.054l0-2.7c0-.018,0-.036,0-.054s0-.029,0-.044a1,1,0,0,1,.634-.917.275.275,0,0,1,.035-.009.637.637,0,0,1,.144-.016l17.724.042c0,.011,0,.022.007.034a8.913,8.913,0,0,0,2.457,4.754Z" transform="translate(-1370.269 -1261.144)" fill="#ffa412"/>
      <path id="Path_24" data-name="Path 24" d="M1409.308,1249.556l-.005,2.7a1.136,1.136,0,0,1-.157.582.953.953,0,0,1-.429.389.759.759,0,0,1-.13.045h0l-.036.009a.782.782,0,0,1-.161.016l-37.715-.089a.712.712,0,0,1-.118-.01.393.393,0,0,1-.045-.008,1.01,1.01,0,0,1-.747-.973c0-.018,0-.036,0-.054l0-2.7c0-.018,0-.036,0-.054a.979.979,0,0,1,.913-.987l37.715.089c.024,0,.048,0,.072,0l.031,0,.034.005.024,0a.774.774,0,0,1,.167.054l.024.011.023.011.046.026c.017.01.033.021.049.032l.043.031c.016.013.032.026.047.04s.024.021.035.033l0,0,.023.024a.97.97,0,0,1,.066.078l.018.024.017.025c.012.017.023.035.034.053A1.137,1.137,0,0,1,1409.308,1249.556Z" transform="translate(-1369.728 -1224.72)" fill="#ffb93e"/>
      <path id="Path_25" data-name="Path 25" d="M1390.781,1253.257l-20.205-.048-.048,0-.052-.007a.977.977,0,0,1-.712-.982c0-.018,0-.036,0-.054l0-2.7c0-.018,0-.036,0-.054a.939.939,0,0,1,.815-.987l17.724.042.025.118a8.889,8.889,0,0,0,2.412,4.643Z" transform="translate(-1369.728 -1224.718)" fill="#ffa412"/>
      <path id="Path_26" data-name="Path 26" d="M1426.256,1209.146l0,2.7a1.14,1.14,0,0,1-.157.582.952.952,0,0,1-.429.389.816.816,0,0,1-.328.07l-37.715-.09a.816.816,0,0,1-.421-.119,1.06,1.06,0,0,1-.486-.825c0-.016,0-.031,0-.047s0-.036,0-.053l0-2.7c0-.018,0-.036,0-.053a.979.979,0,0,1,.913-.987l37.715.089a.825.825,0,0,1,.328.071.952.952,0,0,1,.427.391A1.14,1.14,0,0,1,1426.256,1209.146Z" transform="translate(-1384.719 -1188.976)" fill="#ffb93e"/>
      <path id="Path_27" data-name="Path 27" d="M1407.729,1212.846l-20.205-.048a.67.67,0,0,1-.375-.119,1.084,1.084,0,0,1-.434-.825c0-.016,0-.031,0-.047s0-.036,0-.053l0-2.7c0-.018,0-.036,0-.053a.939.939,0,0,1,.815-.987l17.724.042a9.019,9.019,0,0,0,2.349,4.677Z" transform="translate(-1384.719 -1188.974)" fill="#ffa412"/>
      <path id="Path_28" data-name="Path 28" d="M1453.022,1167.735l0,2.7a1.139,1.139,0,0,1-.157.582.952.952,0,0,1-.429.389.817.817,0,0,1-.328.07l-37.715-.09a.98.98,0,0,1-.91-.991c0-.018,0-.036,0-.054l0-2.7c0-.018,0-.036,0-.053a1,1,0,0,1,.805-.979.773.773,0,0,1,.108-.007l37.715.09a.809.809,0,0,1,.328.071.953.953,0,0,1,.428.391A1.139,1.139,0,0,1,1453.022,1167.735Z" transform="translate(-1408.395 -1152.347)" fill="#ffb93e"/>
      <path id="Path_29" data-name="Path 29" d="M1434.5,1171.436l-20.205-.048a.941.941,0,0,1-.812-.991c0-.018,0-.036,0-.054l0-2.7c0-.018,0-.036,0-.053a.976.976,0,0,1,.719-.98.583.583,0,0,1,.1-.007l17.724.042,0,.007A8.922,8.922,0,0,0,1434.5,1171.436Z" transform="translate(-1408.395 -1152.345)" fill="#ffa412"/>
      <path id="Path_30" data-name="Path 30" d="M1410.218,1126.225l0,2.7a1.138,1.138,0,0,1-.158.582.952.952,0,0,1-.429.389.771.771,0,0,1-.167.053l-.053.009-.043,0-.021,0h-.044l-37.715-.09a.98.98,0,0,1-.91-.991c0-.018,0-.036,0-.054l0-2.7c0-.018,0-.036,0-.054a.979.979,0,0,1,.913-.987l37.715.089.048,0a.807.807,0,0,1,.279.069.765.765,0,0,1,.079.041c.016.009.032.018.047.029l.005,0,.046.033.008.006a.464.464,0,0,1,.041.034.827.827,0,0,1,.091.091c.009.01.018.02.026.031l0,.006.016.02,0,0c.009.012.018.025.027.038s.025.037.036.057A1.139,1.139,0,0,1,1410.218,1126.225Z" transform="translate(-1370.533 -1115.63)" fill="#ffb93e"/>
      <path id="Path_31" data-name="Path 31" d="M1391.691,1129.925l-20.205-.048a.94.94,0,0,1-.812-.991c0-.018,0-.036,0-.054l0-2.7c0-.018,0-.036,0-.053a.939.939,0,0,1,.815-.987l17.724.042c.007.036.015.073.023.111a8.866,8.866,0,0,0,2.441,4.677Z" transform="translate(-1370.533 -1115.628)" fill="#ffa412"/>
      <path id="Path_32" data-name="Path 32" d="M1434.3,1085.766l0,2.7a1.138,1.138,0,0,1-.157.582.952.952,0,0,1-.429.389.764.764,0,0,1-.167.053.793.793,0,0,1-.161.016l-37.715-.09a.811.811,0,0,1-.407-.111,1.056,1.056,0,0,1-.5-.837c0-.014,0-.028,0-.043s0-.036,0-.054l.005-2.7c0-.018,0-.036,0-.054a1,1,0,0,1,.805-.979.751.751,0,0,1,.108-.007l37.715.09a.819.819,0,0,1,.328.071.955.955,0,0,1,.428.391A1.138,1.138,0,0,1,1434.3,1085.766Z" transform="translate(-1391.838 -1079.844)" fill="#ffb93e"/>
      <path id="Path_33" data-name="Path 33" d="M1415.777,1089.467l-20.205-.048a.664.664,0,0,1-.364-.112,1.079,1.079,0,0,1-.446-.836c0-.014,0-.028,0-.043s0-.036,0-.054l.005-2.7c0-.018,0-.036,0-.053a.975.975,0,0,1,.719-.98.583.583,0,0,1,.1-.007l17.724.042,0,.008a9,9,0,0,0,2.355,4.677C1415.7,1089.394,1415.738,1089.431,1415.777,1089.467Z" transform="translate(-1391.838 -1079.842)" fill="#ffa412"/>
      <path id="Path_34" data-name="Path 34" d="M1410.367,1044.3l0,2.7a1.137,1.137,0,0,1-.158.581.95.95,0,0,1-.429.389.773.773,0,0,1-.167.053l-.053.009-.03,0-.03,0-.048,0-37.715-.09a.98.98,0,0,1-.91-.991c0-.018,0-.036,0-.054l0-2.7c0-.018,0-.036,0-.054a.979.979,0,0,1,.913-.987l37.715.089a.789.789,0,0,1,.161.017.766.766,0,0,1,.167.054.951.951,0,0,1,.427.391A1.139,1.139,0,0,1,1410.367,1044.3Z" transform="translate(-1370.665 -1043.166)" fill="#ffb93e"/>
      <path id="Path_35" data-name="Path 35" d="M1391.84,1048l-20.205-.048a.94.94,0,0,1-.812-.991c0-.018,0-.036,0-.054l0-2.7c0-.018,0-.036,0-.054a.939.939,0,0,1,.815-.987l17.724.042a8.931,8.931,0,0,0,2.464,4.788Z" transform="translate(-1370.665 -1043.164)" fill="#ffa412"/>
      <g id="Group_9" data-name="Group 9" transform="translate(13.89 0.031)">
        <rect id="Rectangle_45" data-name="Rectangle 45" width="4.789" height="0.429" transform="translate(22.586 42.871) rotate(-89.864)" fill="#ffa412"/>
        <rect id="Rectangle_46" data-name="Rectangle 46" width="4.789" height="0.429" transform="translate(21.136 42.867) rotate(-89.88)" fill="#ffa412"/>
        <rect id="Rectangle_47" data-name="Rectangle 47" width="4.789" height="0.429" transform="matrix(0.002, -1, 1, 0.002, 19.396, 42.863)" fill="#ffa412"/>
        <rect id="Rectangle_48" data-name="Rectangle 48" width="4.789" height="0.429" transform="translate(16.728 42.857) rotate(-89.864)" fill="#ffa412"/>
        <rect id="Rectangle_49" data-name="Rectangle 49" width="4.789" height="0.429" transform="translate(13.908 42.85) rotate(-89.864)" fill="#ffa412"/>
        <rect id="Rectangle_50" data-name="Rectangle 50" width="4.789" height="0.429" transform="translate(9.584 42.84) rotate(-89.864)" fill="#ffa412"/>
        <rect id="Rectangle_51" data-name="Rectangle 51" width="4.789" height="0.429" transform="translate(5.537 42.83) rotate(-89.88)" fill="#ffa412"/>
        <rect id="Rectangle_52" data-name="Rectangle 52" width="4.789" height="0.429" transform="translate(1.921 42.822) rotate(-89.864)" fill="#ffa412"/>
        <rect id="Rectangle_53" data-name="Rectangle 53" width="4.789" height="0.429" transform="translate(23.968 42.874) rotate(-89.864)" fill="#ffa412"/>
        <rect id="Rectangle_54" data-name="Rectangle 54" width="4.789" height="0.429" transform="translate(24.881 42.876) rotate(-89.88)" fill="#ffa412"/>
        <rect id="Rectangle_55" data-name="Rectangle 55" width="4.789" height="0.429" transform="translate(25.761 42.878) rotate(-89.864)" fill="#ffa412"/>
        <path id="Path_36" data-name="Path 36" d="M1718.595,1373.292l-.009,4.789h.268a.791.791,0,0,0,.161-.016l.009-4.756a.809.809,0,0,0-.161-.017Z" transform="translate(-1692.161 -1335.202)" fill="#ffa412"/>
        <path id="Path_37" data-name="Path 37" d="M1723.754,1373.913l-.008,4.649a.951.951,0,0,0,.429-.389l.007-3.868A.953.953,0,0,0,1723.754,1373.913Z" transform="translate(-1696.725 -1335.751)" fill="#ffa412"/>
        <rect id="Rectangle_56" data-name="Rectangle 56" width="4.789" height="0.429" transform="translate(10.497 38.053) rotate(-89.864)" fill="#ffa412"/>
        <rect id="Rectangle_57" data-name="Rectangle 57" width="4.789" height="0.429" transform="matrix(0.002, -1, 1, 0.002, 6.448, 38.043)" fill="#ffa412"/>
        <rect id="Rectangle_58" data-name="Rectangle 58" width="4.789" height="0.429" transform="translate(2.833 38.035) rotate(-89.864)" fill="#ffa412"/>
        <path id="Path_38" data-name="Path 38" d="M1702.742,1227.749l.009-4.789h-.376l.06-.009.009-4.756c-.026-.005-.053-.01-.08-.013l.009-4.641h.167l-.009,4.6a.952.952,0,0,0,.429-.389l.007-3.869a.971.971,0,0,0-.34-.343h.15l.009-4.789h-.429l-.009,4.684a.77.77,0,0,0-.137-.013h-.268l-.009,4.789h.08l-.009,4.755h.268l.049,0-.009,4.784Z" transform="translate(-1677.432 -1189.661)" fill="#ffa412"/>
        <rect id="Rectangle_59" data-name="Rectangle 59" width="4.789" height="0.429" transform="translate(25.792 38.089) rotate(-89.864)" fill="#ffa412"/>
        <rect id="Rectangle_60" data-name="Rectangle 60" width="4.789" height="0.429" transform="translate(26.673 38.091) rotate(-89.85)" fill="#ffa412"/>
        <path id="Path_39" data-name="Path 39" d="M1726.493,1331.836l-.009,4.789h.268a.784.784,0,0,0,.161-.016l.009-4.756a.78.78,0,0,0-.161-.017Z" transform="translate(-1699.147 -1298.533)" fill="#ffa412"/>
        <path id="Path_40" data-name="Path 40" d="M1731.653,1332.457l-.009,4.649a.951.951,0,0,0,.429-.389l.007-3.868A.953.953,0,0,0,1731.653,1332.457Z" transform="translate(-1703.711 -1299.082)" fill="#ffa412"/>
        <path id="Path_41" data-name="Path 41" d="M1666.474,1258.66l.009-4.789h-.079l.009-4.755h-.429l-.009,4.789h.079l-.009,4.747h-.418l-.009,4.789h.429l.009-4.782Z" transform="translate(-1645.309 -1225.363)" fill="#ffa412"/>
        <path id="Path_42" data-name="Path 42" d="M1641.578,1253.8h-.079l.009-4.755h-.429l-.009,4.789h.079l-.009,4.755h.106l-.009,4.782h.429l.009-4.789h-.106Z" transform="translate(-1623.596 -1225.305)" fill="#ffa412"/>
        <path id="Path_43" data-name="Path 43" d="M1707.716,1290.991l-.009,4.649a.951.951,0,0,0,.429-.389l.007-3.868A.954.954,0,0,0,1707.716,1290.991Z" transform="translate(-1682.538 -1262.404)" fill="#ffa412"/>
        <path id="Path_44" data-name="Path 44" d="M1618.411,1249h-.428l-.009,4.789h.079l-.009,4.748H1618l-.009,4.789h.429l.009-4.782h.047l.009-4.789h-.079Z" transform="translate(-1603.167 -1225.257)" fill="#ffa412"/>
        <path id="Path_45" data-name="Path 45" d="M1593.987,1248.937h-.429l-.009,4.789h.079l-.009,4.755h.429l.009-4.789h-.079Z" transform="translate(-1581.563 -1225.205)" fill="#ffa412"/>
        <path id="Path_46" data-name="Path 46" d="M1556.545,1248.849h-.429l-.009,4.789h.079l-.009,4.755h.429l.009-4.789h-.079Z" transform="translate(-1548.444 -1225.127)" fill="#ffa412"/>
        <path id="Path_47" data-name="Path 47" d="M1521.488,1248.765h-.428l-.009,4.789h.079l-.009,4.755h.429l.009-4.789h-.079Z" transform="translate(-1517.436 -1225.053)" fill="#ffa412"/>
        <path id="Path_48" data-name="Path 48" d="M1490.184,1248.69h-.429l-.009,4.789h.079l-.009,4.755h.429l.009-4.789h-.079Z" transform="translate(-1489.746 -1224.987)" fill="#ffa412"/>
        <path id="Path_49" data-name="Path 49" d="M1681.1,1249.145h-.429l-.009,4.789h.079l-.009,4.747h-.059l-.009,4.789h.429l.009-4.782h.059l.009-4.789h-.079Z" transform="translate(-1658.618 -1225.389)" fill="#ffa412"/>
        <path id="Path_50" data-name="Path 50" d="M1686.426,1213.377h-.345l.008-4.671h-.429l-.009,4.789H1686l-.009,4.671h.079l-.009,4.755h.428l.009-4.789h-.079Z" transform="translate(-1663.03 -1189.619)" fill="#ffa412"/>
        <rect id="Rectangle_61" data-name="Rectangle 61" width="4.789" height="0.429" transform="translate(21.17 23.87) rotate(-89.864)" fill="#ffa412"/>
        <path id="Path_51" data-name="Path 51" d="M1656.356,1213.31h-.209l-.009,4.789h.079l-.009,4.755h.429l.009-4.789h-.079l.008-4.637h.209l.009-4.789h-.429Z" transform="translate(-1636.925 -1189.562)" fill="#ffa412"/>
        <rect id="Rectangle_62" data-name="Rectangle 62" width="4.789" height="0.429" transform="translate(16.762 23.86) rotate(-89.849)" fill="#ffa412"/>
        <rect id="Rectangle_63" data-name="Rectangle 63" width="4.789" height="0.429" transform="translate(13.943 23.853) rotate(-89.864)" fill="#ffa412"/>
        <rect id="Rectangle_64" data-name="Rectangle 64" width="4.789" height="0.429" transform="translate(9.619 23.843) rotate(-89.866)" fill="#ffa412"/>
        <rect id="Rectangle_65" data-name="Rectangle 65" width="4.789" height="0.429" transform="matrix(0.002, -1, 1, 0.002, 5.571, 23.833)" fill="#ffa412"/>
        <rect id="Rectangle_66" data-name="Rectangle 66" width="4.789" height="0.429" transform="translate(1.956 23.825) rotate(-89.864)" fill="#ffa412"/>
        <path id="Path_52" data-name="Path 52" d="M1693.756,1213.4h-.155l-.009,4.789h.079l-.009,4.748h-.4l-.009,4.789h.429l.009-4.782h.4l.009-4.789h-.079l.008-4.637h.155l.009-4.789h-.429Z" transform="translate(-1669.752 -1189.645)" fill="#ffa412"/>
        <rect id="Rectangle_67" data-name="Rectangle 67" width="4.789" height="0.429" transform="translate(25.796 23.881) rotate(-89.864)" fill="#ffa412"/>
        <path id="Path_53" data-name="Path 53" d="M1719.314,1213.554l.009-4.756a.782.782,0,0,0-.161-.017h-.268l-.009,4.789h.268A.77.77,0,0,0,1719.314,1213.554Z" transform="translate(-1692.425 -1189.687)" fill="#ffa412"/>
        <path id="Path_54" data-name="Path 54" d="M1724.474,1213.662l.007-3.869a.954.954,0,0,0-.427-.391l-.008,4.649A.951.951,0,0,0,1724.474,1213.662Z" transform="translate(-1696.99 -1190.237)" fill="#ffa412"/>
        <rect id="Rectangle_68" data-name="Rectangle 68" width="4.789" height="0.429" transform="translate(25.712 19.092) rotate(-89.864)" fill="#ffa412"/>
        <rect id="Rectangle_69" data-name="Rectangle 69" width="4.789" height="0.429" transform="translate(19.854 19.078) rotate(-89.864)" fill="#ffa412"/>
        <rect id="Rectangle_70" data-name="Rectangle 70" width="4.789" height="0.429" transform="translate(17.034 19.071) rotate(-89.864)" fill="#ffa412"/>
        <rect id="Rectangle_71" data-name="Rectangle 71" width="4.789" height="0.429" transform="translate(12.71 19.061) rotate(-89.864)" fill="#ffa412"/>
        <rect id="Rectangle_72" data-name="Rectangle 72" width="4.789" height="0.429" transform="translate(8.662 19.051) rotate(-89.864)" fill="#ffa412"/>
        <rect id="Rectangle_73" data-name="Rectangle 73" width="4.789" height="0.429" transform="translate(5.048 19.043) rotate(-89.88)" fill="#ffa412"/>
        <rect id="Rectangle_74" data-name="Rectangle 74" width="4.789" height="0.429" transform="translate(27.093 19.095) rotate(-89.864)" fill="#ffa412"/>
        <rect id="Rectangle_75" data-name="Rectangle 75" width="4.789" height="0.429" transform="translate(28.006 19.097) rotate(-89.864)" fill="#ffa412"/>
        <rect id="Rectangle_76" data-name="Rectangle 76" width="4.789" height="0.429" transform="matrix(0.002, -1, 1, 0.002, 28.887, 19.099)" fill="#ffa412"/>
        <path id="Path_55" data-name="Path 55" d="M1745.661,1167.371l-.009,4.789h.268a.783.783,0,0,0,.161-.016l.009-4.756a.792.792,0,0,0-.161-.017Z" transform="translate(-1716.101 -1153.059)" fill="#ffa412"/>
        <path id="Path_56" data-name="Path 56" d="M1750.821,1167.991l-.008,4.649a.953.953,0,0,0,.429-.389l.007-3.869A.955.955,0,0,0,1750.821,1167.991Z" transform="translate(-1720.666 -1153.608)" fill="#ffa412"/>
        <path id="Path_57" data-name="Path 57" d="M1666.477,1058.108h.429l.009-4.789h-.418l.008-4.671h.418l.009-4.789h-.429l-.009,4.781h-.418l-.009,4.789h.418Z" transform="translate(-1645.707 -1043.809)" fill="#ffa412"/>
        <rect id="Rectangle_77" data-name="Rectangle 77" width="4.789" height="0.429" transform="translate(19.317 14.295) rotate(-89.849)" fill="#ffa412"/>
        <rect id="Rectangle_78" data-name="Rectangle 78" width="4.789" height="0.429" transform="translate(12.091 14.278) rotate(-89.864)" fill="#ffa412"/>
        <rect id="Rectangle_79" data-name="Rectangle 79" width="4.789" height="0.429" transform="matrix(0.002, -1, 1, 0.002, 7.767, 14.268)" fill="#ffa412"/>
        <rect id="Rectangle_80" data-name="Rectangle 80" width="4.789" height="0.429" transform="translate(3.719 14.258) rotate(-89.864)" fill="#ffa412"/>
        <rect id="Rectangle_81" data-name="Rectangle 81" width="4.789" height="0.429" transform="translate(0.104 14.249) rotate(-89.866)" fill="#ffa412"/>
        <path id="Path_58" data-name="Path 58" d="M1681.186,1058.136h.38l-.009,4.782h.429l.009-4.789h-.38l.009-4.782h-.059l.009-4.671h.059l.009-4.789h-.429l-.009,4.782h-.059l-.009,4.789h.059Z" transform="translate(-1659.034 -1043.834)" fill="#ffa412"/>
        <rect id="Rectangle_82" data-name="Rectangle 82" width="4.789" height="0.429" transform="translate(23.064 14.304) rotate(-89.895)" fill="#ffa412"/>
        <path id="Path_59" data-name="Path 59" d="M1695.434,1053.5h.076l.009-4.789h-.376c.02,0,.04-.005.06-.009l.009-4.756a.774.774,0,0,0-.161-.017h-.268l-.009,4.789h.268l.049,0-.008,4.676-.049,0h-.268l-.009,4.782h-.234l.009-4.782h-.4l.008-4.671h.4l.009-4.789h-.429l-.009,4.782h-.4l-.009,4.789h.4l-.009,4.679h.326l-.009,4.781h.429l.009-4.782h.176a.783.783,0,0,0,.161-.016l.009-4.662h.167l-.008,4.608a.952.952,0,0,0,.429-.389l.007-3.868A.967.967,0,0,0,1695.434,1053.5Z" transform="translate(-1670.148 -1043.866)" fill="#ffa412"/>
        <rect id="Rectangle_83" data-name="Rectangle 83" width="4.789" height="0.429" transform="translate(10.549 9.596) rotate(-89.88)" fill="#ffa412"/>
        <rect id="Rectangle_84" data-name="Rectangle 84" width="4.789" height="0.429" transform="translate(6.5 9.586) rotate(-89.864)" fill="#ffa412"/>
        <rect id="Rectangle_85" data-name="Rectangle 85" width="4.789" height="0.429" transform="translate(2.885 9.577) rotate(-89.864)" fill="#ffa412"/>
        <rect id="Rectangle_86" data-name="Rectangle 86" width="4.789" height="0.429" transform="matrix(0.002, -1, 1, 0.002, 25.844, 9.632)" fill="#ffa412"/>
        <rect id="Rectangle_87" data-name="Rectangle 87" width="4.789" height="0.429" transform="translate(26.725 9.634) rotate(-89.864)" fill="#ffa412"/>
        <path id="Path_60" data-name="Path 60" d="M1726.942,1085.4l-.009,4.789h.268a.8.8,0,0,0,.161-.016l.009-4.756a.782.782,0,0,0-.161-.017Z" transform="translate(-1699.544 -1080.554)" fill="#ffa412"/>
        <path id="Path_61" data-name="Path 61" d="M1732.522,1090.281l.007-3.869a.954.954,0,0,0-.427-.391l-.009,4.649A.952.952,0,0,0,1732.522,1090.281Z" transform="translate(-1704.108 -1081.104)" fill="#ffa412"/>
        <rect id="Rectangle_88" data-name="Rectangle 88" width="4.789" height="0.429" transform="translate(19.335 4.835) rotate(-89.864)" fill="#ffa412"/>
        <path id="Path_62" data-name="Path 62" d="M1642.436,1043.794h-.429l-.009,4.789h.106l-.008,4.671h-.106l-.009,4.789h.429l.009-4.679h.106l.009-4.789h-.106Z" transform="translate(-1624.402 -1043.751)" fill="#ffa412"/>
        <path id="Path_63" data-name="Path 63" d="M1618.6,1048.519h-.048l-.009,4.789h.047l-.009,4.679h.429l.009-4.789h-.047l.009-4.671h.047l.009-4.789h-.428Z" transform="translate(-1603.674 -1043.702)" fill="#ffa412"/>
        <rect id="Rectangle_89" data-name="Rectangle 89" width="4.789" height="0.429" transform="translate(12.108 4.818) rotate(-89.864)" fill="#ffa412"/>
        <rect id="Rectangle_90" data-name="Rectangle 90" width="4.789" height="0.429" transform="translate(7.784 4.807) rotate(-89.864)" fill="#ffa412"/>
        <rect id="Rectangle_91" data-name="Rectangle 91" width="4.789" height="0.429" transform="translate(3.735 4.798) rotate(-89.85)" fill="#ffa412"/>
        <rect id="Rectangle_92" data-name="Rectangle 92" width="4.789" height="0.429" transform="matrix(0.002, -1, 1, 0.002, 0.122, 4.789)" fill="#ffa412"/>
        <rect id="Rectangle_93" data-name="Rectangle 93" width="4.789" height="0.429" transform="translate(23.079 4.844) rotate(-89.849)" fill="#ffa412"/>
        <path id="Path_64" data-name="Path 64" d="M1708.164,1044.557l-.008,4.649a.951.951,0,0,0,.429-.389l.007-3.868A.951.951,0,0,0,1708.164,1044.557Z" transform="translate(-1682.935 -1044.427)" fill="#ffa412"/>
      </g>
    </g>
    <g id="Group_12" data-name="Group 12" transform="translate(452.963 259.157)">
      <path id="Path_65" data-name="Path 65" d="M1757.194,1154.987l2.663.473a1.14,1.14,0,0,1,.546.256.954.954,0,0,1,.309.49.774.774,0,0,1,.023.174.784.784,0,0,1-.012.161l-6.615,37.13a.98.98,0,0,1-1.133.724l-.053-.008-2.663-.473-.052-.01a.979.979,0,0,1-.814-1.07l6.616-37.13a.719.719,0,0,1,.016-.07.3.3,0,0,1,.009-.03c0-.011.007-.022.011-.032s.006-.015.009-.023a.778.778,0,0,1,.082-.155l.015-.021.015-.021.033-.041.021-.023.02-.02.038-.037c.015-.014.031-.027.047-.039l.039-.029,0,0,.027-.019a.9.9,0,0,1,.088-.052l.027-.014.028-.013.058-.024A1.137,1.137,0,0,1,1757.194,1154.987Z" transform="translate(-1749.365 -1154.968)" fill="#ffb93e"/>
      <path id="Path_66" data-name="Path 66" d="M1757.523,1318.7l-3.544,19.892a.94.94,0,0,1-1.116.628l-.053-.008-2.663-.473-.052-.01a.939.939,0,0,1-.831-.974l3.109-17.449.121,0A8.857,8.857,0,0,0,1757.523,1318.7Z" transform="translate(-1749.253 -1299.79)" fill="#ffa412"/>
      <g id="Group_11" data-name="Group 11" transform="translate(2.298 0.071)">
        <rect id="Rectangle_94" data-name="Rectangle 94" width="0.429" height="4.789" transform="translate(3.625 4.704) rotate(-79.879)" fill="#ffa412"/>
        <rect id="Rectangle_95" data-name="Rectangle 95" width="0.429" height="4.789" transform="matrix(0.175, -0.985, 0.985, 0.175, 3.37, 6.133)" fill="#ffa412"/>
        <rect id="Rectangle_96" data-name="Rectangle 96" width="0.429" height="4.789" transform="translate(3.065 7.846) rotate(-79.896)" fill="#ffa412"/>
        <rect id="Rectangle_97" data-name="Rectangle 97" width="0.429" height="4.789" transform="translate(2.597 10.471) rotate(-79.896)" fill="#ffa412"/>
        <rect id="Rectangle_98" data-name="Rectangle 98" width="0.429" height="4.789" transform="matrix(0.175, -0.985, 0.985, 0.175, 2.103, 13.249)" fill="#ffa412"/>
        <rect id="Rectangle_99" data-name="Rectangle 99" width="0.429" height="4.789" transform="translate(1.344 17.505) rotate(-79.894)" fill="#ffa412"/>
        <rect id="Rectangle_100" data-name="Rectangle 100" width="0.429" height="4.789" transform="matrix(0.175, -0.985, 0.985, 0.175, 0.634, 21.491)" fill="#ffa412"/>
        <rect id="Rectangle_101" data-name="Rectangle 101" width="0.429" height="4.789" transform="translate(0 25.048) rotate(-79.882)" fill="#ffa412"/>
        <rect id="Rectangle_102" data-name="Rectangle 102" width="0.429" height="4.789" transform="translate(3.867 3.345) rotate(-79.896)" fill="#ffa412"/>
        <rect id="Rectangle_103" data-name="Rectangle 103" width="0.429" height="4.789" transform="translate(4.027 2.446) rotate(-79.894)" fill="#ffa412"/>
        <rect id="Rectangle_104" data-name="Rectangle 104" width="0.429" height="4.789" transform="translate(4.182 1.579) rotate(-79.896)" fill="#ffa412"/>
        <path id="Path_67" data-name="Path 67" d="M1806.369,1160.4l4.715.837.047-.264a.776.776,0,0,0,.012-.161l-4.683-.832a.779.779,0,0,0-.045.156Z" transform="translate(-1802.072 -1159.474)" fill="#ffa412"/>
        <path id="Path_68" data-name="Path 68" d="M1807.873,1155.933l4.577.813a.952.952,0,0,0-.309-.49l-3.809-.676A.954.954,0,0,0,1807.873,1155.933Z" transform="translate(-1803.402 -1155.58)" fill="#ffa412"/>
      </g>
    </g>
    <path id="Path_69" data-name="Path 69" d="M2469.336,1358.562h-16.207c-.868-.737.6-2.41,2.136-2.522a9.457,9.457,0,0,1,2.474.293c.223-2.962,1.5-16.279,6.3-15.744,5.4.6,0,5.864-1.526,8.982a74.256,74.256,0,0,0-2.867,7.183c.438.1.892.188,1.355.273.716-2.2,3.377-9.585,6.762-9.154,3.974.5,2.377,3.466-.44,5.225-2.067,1.293-4.6,3.131-5.81,4.019a17.232,17.232,0,0,0,3.169.254C2467.456,1357.3,2468.811,1358.122,2469.336,1358.562Z" transform="translate(-1918.656 -1059.983)" fill="#82b378"/>
    <path id="Path_70" data-name="Path 70" d="M716.564,1400.577c-.644-1.011-2.581-3.635-5.161-3.288-2.811.378,3.1,2.232,4.916,3.3a3.006,3.006,0,0,1-1-.117c-1.211-.432-3.285.4-3.948.687H722.9a1.826,1.826,0,0,0-.824-1.054,2.058,2.058,0,0,0-1.061-.095c.685-.808,1.161-3.389-.747-2.725-1.394.485-1.39,2.063-1.253,3-.3.047-.6.093-.894.136-.574-2.925-2.6-11.5-6.719-11.726-4.171-.232,3.537,8.891,6.1,11.808C717.174,1400.533,716.857,1400.563,716.564,1400.577Z" transform="translate(-377.208 -1102.536)" fill="#82b378"/>
    <g id="Group_15" data-name="Group 15" transform="translate(418.448 190.015)">
      <circle id="Ellipse_1" data-name="Ellipse 1" cx="16.601" cy="16.601" r="16.601" transform="translate(0 23.477) rotate(-45)" fill="#e2810e"/>
      <circle id="Ellipse_2" data-name="Ellipse 2" cx="16.601" cy="16.601" r="16.601" transform="translate(1.936 36.015) rotate(-75.284)" fill="#ffb93e"/>
      <g id="Group_13" data-name="Group 13" transform="translate(7.171 9.216)">
        <path id="Path_71" data-name="Path 71" d="M1527.616,666.265a15.121,15.121,0,1,1,7.276-1.877A15.137,15.137,0,0,1,1527.616,666.265Zm-.046-29.352a14.265,14.265,0,1,0,3.973.567A14.289,14.289,0,0,0,1527.57,636.913Z" transform="translate(-1512.459 -636.01)" fill="#ffa412"/>
      </g>
      <g id="Group_14" data-name="Group 14" transform="translate(15.333 13.432)">
        <path id="Path_72" data-name="Path 72" d="M1594.05,686.273a2.5,2.5,0,0,0-.455-.752,1.826,1.826,0,0,0-.677-.459,3.447,3.447,0,0,0-.967-.215,9.088,9.088,0,0,0-1.319-.009,23.865,23.865,0,0,1-2.425,0,7.526,7.526,0,0,1-2.016-.365,4.43,4.43,0,0,1-1.583-.927,5,5,0,0,1-1.471-3.505,4.2,4.2,0,0,1,.4-1.706,5.242,5.242,0,0,1,1.084-1.51,7,7,0,0,1,1.718-1.223l-.944-2.326,1.872-.76.958,2.358a6.282,6.282,0,0,1,2.042-.208,4.743,4.743,0,0,1,3.315,1.636,6.314,6.314,0,0,1,1.107,1.836l-3.382,1.373a3.073,3.073,0,0,0-1.371-1.716,2.136,2.136,0,0,0-1.813-.017,2.716,2.716,0,0,0-.847.515,1.841,1.841,0,0,0-.463.656,1.716,1.716,0,0,0-.118.751,2.522,2.522,0,0,0,.188.8,2.318,2.318,0,0,0,.413.68,1.709,1.709,0,0,0,.649.439,3.447,3.447,0,0,0,.972.213,11.632,11.632,0,0,0,1.381.028q1.307-.037,2.418.031a7.618,7.618,0,0,1,2.014.379,4.277,4.277,0,0,1,2.7,2.609,4.566,4.566,0,0,1,.364,1.853,4.15,4.15,0,0,1-.408,1.7,5.067,5.067,0,0,1-1.107,1.488,7.557,7.557,0,0,1-1.737,1.212l.878,2.163-1.86.755-.874-2.152a8.469,8.469,0,0,1-2.05.339,5.376,5.376,0,0,1-1.991-.287,4.807,4.807,0,0,1-1.752-1.093,5.851,5.851,0,0,1-1.33-2.068l3.382-1.373a3.606,3.606,0,0,0,.739,1.2,2.332,2.332,0,0,0,.915.591,2.262,2.262,0,0,0,1,.1,3.873,3.873,0,0,0,.993-.257,3.239,3.239,0,0,0,.908-.533,2.158,2.158,0,0,0,.537-.674,1.718,1.718,0,0,0,.181-.763A2.09,2.09,0,0,0,1594.05,686.273Z" transform="translate(-1583.137 -672.517)" fill="#ffa412"/>
      </g>
    </g>
    <g id="Group_18" data-name="Group 18" transform="translate(449.528 159.716)">
      <path id="Path_73" data-name="Path 73" d="M1727.155,671.7c-.694-.49-2.269-1.569-2.351-1.329a1.057,1.057,0,0,0,.214.772,6.811,6.811,0,0,0-4.207-.15,1.714,1.714,0,0,0-1.125.741.756.756,0,0,0,.263,1.18c1.167.726.829.291,2.451,1.348s3.608,1.327,4.795.585l1.592-.265.2-2.619S1728.077,671.852,1727.155,671.7Z" transform="translate(-1719.507 -626.857)" fill="#ffb27d"/>
      <path id="Path_74" data-name="Path 74" d="M2072.954,427.685s-3.754,4.454-8.535,2.591a14.481,14.481,0,0,1-1.043-4.321c0-.226,0-.444-.008-.652-.026-2.065-.1-3.223-.1-3.223h0c.218-.091,7.308-3,7.3-2.76C2070.459,424.9,2072.954,427.685,2072.954,427.685Z" transform="translate(-2023.577 -404.813)" fill="#ffb27d"/>
      <path id="Path_75" data-name="Path 75" d="M2069.868,430.558a11.09,11.09,0,0,1-6.5,4.653c-.026-2.065-.1-3.224-.1-3.224h0C2063.474,431.934,2070.072,430.184,2069.868,430.558Z" transform="translate(-2023.577 -414.722)" fill="#ed975d"/>
      <path id="Path_76" data-name="Path 76" d="M2040.911,340.805s7.975,1.875,9.066-3.109,2.855-8.1-2.191-9.506-6.454.277-7.223,1.852S2038.864,340.189,2040.911,340.805Z" transform="translate(-2002.699 -323.754)" fill="#ffb27d"/>
      <path id="Path_77" data-name="Path 77" d="M2029.266,309.121c.109.07,1.825.6,5.074-5.877a5.637,5.637,0,0,0-.331-5.157c-1.189-1.942-5.405-3.47-8.908-4.134s-4.344,1.306-5.169,3.288a10.7,10.7,0,0,1-3.367,3.792c3.021,1.687,6.659-.726,7.919-.329s1.706,2.383,1.8,3.02.24,1.166,1.825.6.717,2.246.463,2.784C2028.573,307.1,2028.357,308.538,2029.266,309.121Z" transform="translate(-1982.262 -293.821)" fill="#a9453d"/>
      <g id="Group_16" data-name="Group 16" transform="translate(33.932 61.224)">
        <path id="Path_78" data-name="Path 78" d="M2303.286,1411.317h4.829c1.012,0,2.137-1.014,2.418-2.869s2.362-2.869,2.813-4.388-1.857-3.657-1.857-3.657l-.386-.5-.4-.517-3.825.9s-.094.911-.154,2.071a26.517,26.517,0,0,0-.015,2.655c.112,2.026-.568,4.207-2.367,4.6S2303.286,1411.317,2303.286,1411.317Z" transform="translate(-2269.67 -1332.949)" fill="#2c3a64"/>
        <path id="Path_79" data-name="Path 79" d="M2013.35,1449.295h12.8a1.159,1.159,0,0,0,.272-.079c.854-.428.587-3.7.484-4.71-.02-.187-.034-.3-.034-.3s-4.5-3.6-5.12-.844c-.02.086-.042.171-.066.254h0c-.781,2.579-4.274,3.75-6.292,4.077A2.2,2.2,0,0,0,2013.35,1449.295Z" transform="translate(-2013.35 -1370.927)" fill="#2c3a64"/>
        <path id="Path_80" data-name="Path 80" d="M2035.691,854.428s.683,8.528,1.487,18.779c1.092,13.926,2.405,31.031,2.535,34.272.225,5.627,1.126,14.628,1.126,14.628s2.137,2.138,6.413,1.237a147.266,147.266,0,0,0,4.9-26.444c.017-.223.034-.447.05-.672,1.013-13.84,2.587-42.982,2.587-42.982Z" transform="translate(-2033.111 -849.872)" fill="#2b478b"/>
        <path id="Path_81" data-name="Path 81" d="M2035.691,854.428s.683,8.528,1.487,18.779l14.974,23.693c.017-.223.034-.447.05-.672,1.013-13.84,2.587-42.982,2.587-42.982Z" transform="translate(-2033.111 -849.872)" fill="#233862"/>
        <path id="Path_82" data-name="Path 82" d="M2062.723,829.586s12.321,30.886,20.422,45.4,10.633,18.565,10.633,18.565,4.642-1.857,5.063-3.122c0,0-3.1-28.021-8.523-34.852-3.065-3.86-6.667-15.443-6.835-19.493s-1.1-12.067-1.1-12.067Z" transform="translate(-2057.021 -824.016)" fill="#2b478b"/>
      </g>
      <g id="Group_17" data-name="Group 17" transform="translate(46.179 23.365)">
        <path id="Path_83" data-name="Path 83" d="M2305.3,818.084l.13,1.986a4.28,4.28,0,0,0,2.361,5.339s1.571.634,1.635-.589-.137-.763-.009-2.485-.55-3.35-1.689-3.9l-.935-1.079Z" transform="translate(-2283.748 -780.267)" fill="#ffb27d"/>
        <path id="Path_84" data-name="Path 84" d="M2142.4,535.423c-1.364.438-1.582.339-1.582.339s-6.638-12.084-7.31-13.19-14.093-13.551-14.093-13.551l3.449-12.861s15.264,19.766,16.913,22.6c2.724,4.687,4.32,15.572,4.32,15.572A3.992,3.992,0,0,1,2142.4,535.423Z" transform="translate(-2119.415 -496.16)" fill="#1e3d70"/>
      </g>
      <path id="Path_85" data-name="Path 85" d="M2013.046,492.042c.048,2.641.2,5.61.408,8.626l.038.536c.132,1.868.276,3.74.441,5.566.066.732.136,1.456.21,2.167l.011.1c.006.266.038.555.068.818.673,6.839,1.378,12.242,1.509,12.325a.768.768,0,0,0,.525.134c1.794-.225,7.145.182,11.526-.771a33.221,33.221,0,0,0,10.253-4.252c.448-.265,1.468-.966,1.385-1.489-.082-.576-.232-1.408-.424-2.454a132.783,132.783,0,0,1-2.2-17.219q-.114-2.046-.331-4.036a61.263,61.263,0,0,0-1.786-9.639c-1.5-5.409-3.709-9.55-6.479-11.171-.362-.2-2.309,1.036-4.1,2.183a7.894,7.894,0,0,1-5.081,1.2l-1.488,1.646a16.619,16.619,0,0,0-4.244,8.848q-.059.439-.1.935A58.168,58.168,0,0,0,2013.046,492.042Z" transform="translate(-1979.135 -450.767)" fill="#2a4e96"/>
      <path id="Path_86" data-name="Path 86" d="M2013.046,582.437c.048,2.641.2,5.61.408,8.626l.038.536c10.245-6.413,11.823-18.147,11.823-18.147a28.025,28.025,0,0,0-12.13,3.037A58.167,58.167,0,0,0,2013.046,582.437Z" transform="translate(-1979.135 -541.162)" fill="#1e3d70"/>
      <path id="Path_87" data-name="Path 87" d="M1788.936,534.035c-.105-1.52.681-1.772.681-1.772s15.446-2.8,16.759-3.212,12.541-12.093,12.541-12.093,4.3-4.854,7.828-3.782a6.623,6.623,0,0,1,4.667,5.6,6.7,6.7,0,0,1-3.113,6.881c-5.271,3.233-15.824,9.6-18.309,10.332-5.531,1.622-20.394.13-20.394.13A4.794,4.794,0,0,1,1788.936,534.035Z" transform="translate(-1780.91 -487.709)" fill="#2a4e96"/>
    </g>
    <path id="Path_88" data-name="Path 88" d="M1400.023,822.556v57.414a6.107,6.107,0,0,1-6.089,6.09h-59.017a6.2,6.2,0,0,1-4.191-1.632,6.271,6.271,0,0,1-1.334-1.732c-.018-.035-.036-.07-.053-.106a6.139,6.139,0,0,1-.631-2.326c-.011-.141-.016-.284-.016-.429V822.925a9.423,9.423,0,0,1,4.379-7.932l.007,0a8.159,8.159,0,0,0,3.384-9.32h55.791a8.158,8.158,0,0,0,3.107,9.135h0c.141.1.284.192.431.28h0A8.756,8.756,0,0,1,1400.023,822.556Z" transform="translate(-924.294 -586.846)" fill="#ed9f4a" opacity="0.2"/>
    <path id="Path_89" data-name="Path 89" d="M1653.032,822.556v57.414a6.109,6.109,0,0,1-5.659,6.074c-.142.011-.285.016-.43.016h-25.986a6.243,6.243,0,0,1-6.224-6.224V822.925a9.423,9.423,0,0,1,4.379-7.932,8.157,8.157,0,0,0,3.392-9.324h22.76a8.16,8.16,0,0,0,3.541,9.417A8.756,8.756,0,0,1,1653.032,822.556Z" transform="translate(-1177.303 -586.846)" fill="#ed9f4a" opacity="0.2"/>
    <path id="Path_90" data-name="Path 90" d="M1428.955,814.8c-1.823-1.091-9.717-4.959-29.793-4.8-23,.188-32.207,4.836-32.489,4.98a8.159,8.159,0,0,0,3.384-9.32h55.791a8.157,8.157,0,0,0,3.107,9.135Z" transform="translate(-957.888 -586.846)" fill="#ed9f4a" opacity="0.6"/>
    <path id="Path_91" data-name="Path 91" d="M1443.35,798.618v2.6a.467.467,0,0,1-.466.467H1385.5a.467.467,0,0,1-.467-.467v-2.6a.468.468,0,0,1,.467-.467h57.386A.468.468,0,0,1,1443.35,798.618Z" transform="translate(-974.127 -580.197)" fill="#2b478b"/>
    <path id="Path_92" data-name="Path 92" d="M1716.536,798.618v2.6a.467.467,0,0,1-.465.467h-21.722a.468.468,0,0,1-.466-.467v-2.6a.469.469,0,0,1,.466-.467h21.722A.468.468,0,0,1,1716.536,798.618Z" transform="translate(-1247.313 -580.197)" fill="#233862"/>
    <g id="Group_19" data-name="Group 19" transform="translate(411.653 228.495)">
      <path id="Path_93" data-name="Path 93" d="M1505.275,892.255s-1.479,2.082-2.835,2.111a9.908,9.908,0,0,1-3.419-.965s-1.245-2.775-.4-3.86a1.813,1.813,0,0,1,1.732.285,2.649,2.649,0,0,1,.458.439,1.455,1.455,0,0,0,.712.483c.968.294,2.116-.4,2.546.27a4.548,4.548,0,0,0,.748.885A3.407,3.407,0,0,0,1505.275,892.255Z" transform="translate(-1485.992 -889.436)" fill="#f9ddbf"/>
      <path id="Path_94" data-name="Path 94" d="M1391.512,945.044s5.228-12.667,14.638-12.909c0,0,8.686.965,9.169,12.909Z" transform="translate(-1391.512 -927.204)" fill="#f9ddbf"/>
      <path id="Path_95" data-name="Path 95" d="M1495.81,922.926s3.772.839,4.936.346a1.165,1.165,0,0,0-1.413-1.356,3.333,3.333,0,0,1-2.212-.583C1496.532,921.032,1495.654,922.266,1495.81,922.926Z" transform="translate(-1483.75 -917.608)" fill="#f1a34f"/>
      <path id="Path_96" data-name="Path 96" d="M1516.855,895.36c-.241.181-.982-2.55-.982-2.55a2.658,2.658,0,0,1,.458.439,1.455,1.455,0,0,0,.712.483C1517.046,893.811,1517.089,895.184,1516.855,895.36Z" transform="translate(-1501.512 -892.42)" fill="#e5c1a1"/>
      <path id="Path_97" data-name="Path 97" d="M1538.751,904.017a15.57,15.57,0,0,1-2.034,1.076c-.241,0,1.286-1.962,1.286-1.962A4.542,4.542,0,0,0,1538.751,904.017Z" transform="translate(-1519.927 -901.55)" fill="#e5c1a1"/>
      <path id="Path_98" data-name="Path 98" d="M1435.726,970.145c-.1-.083,3.7-5.59,4.745-5.63s3.395,1.206,5.1,1.367,3.35-.322,3.671.684,1.207,4.57.664,5.14S1437.814,971.928,1435.726,970.145Z" transform="translate(-1430.619 -955.844)" fill="#e5c1a1"/>
    </g>
    <g id="Group_24" data-name="Group 24" transform="translate(314.93 187.775)">
      <path id="Path_99" data-name="Path 99" d="M1336.827,1142.688c-.3.159-.607.309-.914.455-.292.169-.589.334-.891.493a24.323,24.323,0,0,1-4.3,1.758,6.271,6.271,0,0,1-1.334-1.732c-.233.124-.465.243-.7.36V1100.7a24.664,24.664,0,0,1,3.182.64,23.38,23.38,0,0,1,14.234,10.782C1352.405,1123.006,1348.249,1136.689,1336.827,1142.688Z" transform="translate(-1239.225 -1035.587)" fill="#e2810e" opacity="0.5"/>
      <g id="Group_22" data-name="Group 22" transform="translate(55.452 62.612)">
        <path id="Path_100" data-name="Path 100" d="M1094.045,1091.235a23.617,23.617,0,1,0-9.281,32.083A23.616,23.616,0,0,0,1094.045,1091.235Z" transform="translate(-1047.937 -1079.015)" fill="#e2810e"/>
        <path id="Path_101" data-name="Path 101" d="M1070.024,1131.416q-.437.266-.888.515c-.1.056-.2.112-.305.165-.233.124-.465.244-.7.36a23.617,23.617,0,0,1-21.8-41.89q.454-.25.914-.478c.3-.149.6-.29.9-.424a23.6,23.6,0,0,1,7.089-1.906,23.621,23.621,0,0,1,14.786,43.658Z" transform="translate(-1034.114 -1086.633)" fill="#ffb93e"/>
        <g id="Group_20" data-name="Group 20" transform="translate(2.229 3.333)">
          <path id="Path_102" data-name="Path 102" d="M1074.973,1150.932a21.6,21.6,0,0,1-6.01-.857,21.388,21.388,0,1,1,6.01.857Zm-17.751-11.759a20.234,20.234,0,1,0-1.717-15.391A20.1,20.1,0,0,0,1057.222,1139.173Z" transform="translate(-1053.415 -1107.877)" fill="#ffa412"/>
        </g>
        <g id="Group_21" data-name="Group 21" transform="translate(13.839 9.33)">
          <path id="Path_103" data-name="Path 103" d="M1174.286,1177.4c-.047-.116-.1-.229-.146-.34a6.2,6.2,0,0,0-1.432-2.046,6.4,6.4,0,0,0-2.255-1.327,10.8,10.8,0,0,0-2.865-.538q-1.581-.1-3.441-.045a16.594,16.594,0,0,1-1.965-.04,4.926,4.926,0,0,1-1.383-.3,2.426,2.426,0,0,1-.923-.625,3.3,3.3,0,0,1-.587-.968,3.59,3.59,0,0,1-.267-1.135,2.436,2.436,0,0,1,.168-1.068,2.611,2.611,0,0,1,.658-.933,3.848,3.848,0,0,1,1.2-.733,3.04,3.04,0,0,1,2.58.024,4.377,4.377,0,0,1,1.95,2.441l4.812-1.953a8.992,8.992,0,0,0-1.575-2.612,6.749,6.749,0,0,0-4.717-2.327,8.915,8.915,0,0,0-2.9.3l-1.363-3.356-2.663,1.081,1.343,3.309a9.986,9.986,0,0,0-2.445,1.74,7.469,7.469,0,0,0-1.541,2.148,5.985,5.985,0,0,0-.566,2.427,7.109,7.109,0,0,0,2.093,4.986,6.3,6.3,0,0,0,2.252,1.319,10.661,10.661,0,0,0,2.867.52,33.918,33.918,0,0,0,3.45,0,12.757,12.757,0,0,1,1.876.013,4.9,4.9,0,0,1,1.375.306,2.6,2.6,0,0,1,.963.654,3.544,3.544,0,0,1,.648,1.07,2.969,2.969,0,0,1,.23,1.141,2.432,2.432,0,0,1-.257,1.086,3.07,3.07,0,0,1-.764.959,4.615,4.615,0,0,1-1.292.759,5.553,5.553,0,0,1-1.412.366,3.223,3.223,0,0,1-1.425-.142,3.314,3.314,0,0,1-1.3-.841,5.109,5.109,0,0,1-1.052-1.707l-4.811,1.953a8.306,8.306,0,0,0,1.892,2.942,6.829,6.829,0,0,0,2.493,1.555,7.626,7.626,0,0,0,2.832.408,12.015,12.015,0,0,0,2.917-.482l1.242,3.062,2.647-1.074-1.249-3.076a10.754,10.754,0,0,0,2.47-1.724,7.29,7.29,0,0,0,1.491-1.947c.029-.056.057-.113.084-.17a5.921,5.921,0,0,0,.58-2.415A6.5,6.5,0,0,0,1174.286,1177.4Z" transform="translate(-1153.962 -1159.814)" fill="#ffa412"/>
        </g>
      </g>
      <g id="Group_23" data-name="Group 23">
        <path id="Path_104" data-name="Path 104" d="M1020.923,571.581c.072-.289-6.291,2.876-6.613,3.233-2.984,3.31-2.133,7.629-.426,7.671,1.095.026.883,1.847.883,1.847l12.2-5.161S1025.5,570.607,1020.923,571.581Z" transform="translate(-959.397 -567.497)" fill="#2c3a64"/>
        <path id="Path_105" data-name="Path 105" d="M969.367,541.558s.436-4.752-4.874-4.752a6.235,6.235,0,0,1,2.441,1.309,6.279,6.279,0,0,0-7.072,1.067c-3.685,3.055-1.4,10.717-2.516,12.172s-5.485,1.746-4.952,6.45,13.851,10.6,13,14.487c0,0,5.219-7.672,1.487-11.173a6.916,6.916,0,0,1,2,3.75s.494-3.976-2.037-5.248c-2.239-1.125-4.073-5.242-3.879-5.977S969.367,541.558,969.367,541.558Z" transform="translate(-906.339 -536.806)" fill="#2c3a64"/>
        <path id="Path_106" data-name="Path 106" d="M987.335,742.558a4.715,4.715,0,0,0-8.35-1.946,4.271,4.271,0,0,0-.841,2.071c-.552,4.476,6.6,22.7,7.628,24.355,1.866,3.005,12.852,13.306,12.852,13.306l2.025-1.227s-7.792-13.192-9-14.426C990.255,763.264,988.89,750.044,987.335,742.558Z" transform="translate(-929.129 -715.449)" fill="#ed985f"/>
        <path id="Path_107" data-name="Path 107" d="M1149.061,1074.273s2.955-1.94,4.074-1.815,4.356,1.057,4.4,1.533-3.607.773-3.852,1.033-2.721,1.913-3.619,1.4S1149.061,1074.273,1149.061,1074.273Z" transform="translate(-1080.336 -1010.598)" fill="#ed985f"/>
        <path id="Path_108" data-name="Path 108" d="M740.252,957.5l-2.64-.388a31.209,31.209,0,0,1-10.2-20.216,23.527,23.527,0,0,1-.063-4.07.714.714,0,0,0-.092-.449l0,0c-.284-.436-.991-1.527-1.948-3.078-.944-1.528-2.558-4.419-4.335-7.662-3.2-5.84-6.927-12.825-8.2-15.05-4.072-7.091-2.109-11.858-2.109-11.858s11.361-1.123,14.474-3.846l1.121,1.728s2.461,10.9,2.345,10.948l.369,1.132a189.509,189.509,0,0,1,5.4,19.593,32.4,32.4,0,0,1,.852,8.465,14.848,14.848,0,0,0,.2,3.1C736.516,943.67,740.252,957.5,740.252,957.5Z" transform="translate(-692.138 -849.996)" fill="#2b478b"/>
        <path id="Path_109" data-name="Path 109" d="M933.689,1449.8H922.676a6.047,6.047,0,0,1,.311-2.952c.551-1.222,1.337-1.261.1-3.176.7.721,2.95,1.019,4.542.8a13.5,13.5,0,0,0,1.909,2.906C930.258,1447.9,933.468,1447.712,933.689,1449.8Z" transform="translate(-880.038 -1338.948)" fill="#233862"/>
        <path id="Path_110" data-name="Path 110" d="M728.967,904.691c-.962,5.306-3.235,14.137-8,16.947-3.2-5.84-6.927-12.825-8.2-15.05-4.072-7.091-2.109-11.858-2.109-11.858s11.361-1.123,14.474-3.846l1.121,1.728s2.461,10.9,2.345,10.948Z" transform="translate(-692.138 -849.996)" fill="#233862"/>
        <path id="Path_111" data-name="Path 111" d="M1001.641,750.391a11.79,11.79,0,0,1,2.268,3.559s-2.484,7.133-8.29,8.028C995.62,761.978,1000.213,750.388,1001.641,750.391Z" transform="translate(-944.613 -725.727)" fill="#ed7d2b"/>
        <path id="Path_112" data-name="Path 112" d="M594.195,877.943l.037-2.06c-4.1.518-14.151-4.9-14.151-4.9s-4.294,2.856-4.881,11.011c-.287,3.981-2.1,20.815-2.3,25.842-.073,1.822-.1,3.122-.106,3.642a.015.015,0,0,1,0,.005.717.717,0,0,1-.174.424,23.514,23.514,0,0,0-2.224,3.409c-6.262,11.652-2.988,27.484-2.988,27.484l1.454-.37s5.3-16.413,8.756-23.512a14.868,14.868,0,0,1,1.568-2.683,32.383,32.383,0,0,0,4.026-7.495,195.862,195.862,0,0,0,6.809-20.405C590.144,888.354,594.195,877.943,594.195,877.943Z" transform="translate(-565.09 -832.39)" fill="#2b478b"/>
        <path id="Path_113" data-name="Path 113" d="M985.288,691.12c-6.709-1.54-2.423-10.968-2.034-10.8.93-.189,2.971-1.822,4.8-5.009l.247.214,4.121,3.613s-.953,1.405-1.754,2.781a6.289,6.289,0,0,0-1.074,2.5C989.923,684.682,987.078,691.532,985.288,691.12Z" transform="translate(-932.166 -659.315)" fill="#ffb27d"/>
        <path id="Path_114" data-name="Path 114" d="M1043.536,680.783s-.953,1.4-1.754,2.781c-2.562-1.579-2.565-4.751-2.367-6.394Z" transform="translate(-983.283 -660.961)" fill="#ed985f"/>
        <path id="Path_115" data-name="Path 115" d="M1042.342,626.172s-6.221-3.462-4.006-7.3,2.9-6.874,6.97-4.827,3.985,3.954,3.557,5.416S1044.017,626.973,1042.342,626.172Z" transform="translate(-981.975 -604.541)" fill="#ffb27d"/>
        <path id="Path_116" data-name="Path 116" d="M1044.905,613.234c-.285-1.705-1.151-1.868-1.755-1.754a4.975,4.975,0,0,0-6.051-2.316,8.47,8.47,0,0,1-4.9,2.945s.722,1.343,3.7,2.175a5.082,5.082,0,0,0,2.934-.235,16.608,16.608,0,0,1-4.221,1.591c3.92.359,7.649-3.225,8.036-3.608a5.582,5.582,0,0,1,.308,2.568c-.258,1.155-1.283,3.247-.657,3.518C1042.291,618.117,1045.332,615.792,1044.905,613.234Z" transform="translate(-976.966 -600.556)" fill="#2c3a64"/>
        <path id="Path_117" data-name="Path 117" d="M564.981,1449.187H553.968a6.046,6.046,0,0,1,.311-2.952c.551-1.222,1.415-1.778,1.208-3.256a3.966,3.966,0,0,0,3.433,1.313,12.087,12.087,0,0,0,1.911,2.477C561.55,1447.287,564.76,1447.1,564.981,1449.187Z" transform="translate(-553.907 -1338.339)" fill="#233862"/>
        <path id="Path_118" data-name="Path 118" d="M722.646,723.027a26.8,26.8,0,0,1-5.441.986c-2.9.316-5.886.532-7.452,1.157a1.682,1.682,0,0,0-1.073.869c-.679,2.042-3.671,5.192-3.671,5.192-19.178-.873-21.283-8.894-21.283-8.894,12.9-15,34.75-19.347,34.75-19.347s1.561-.662,5.49,2.461c2.623,2.085,2.277,2.885,2.277,2.885S726.817,721.572,722.646,723.027Z" transform="translate(-668.735 -683.748)" fill="#f99746"/>
        <path id="Path_119" data-name="Path 119" d="M916.091,765.99c-2.9.316-5.886.532-7.452,1.157a30.54,30.54,0,0,1,3.874-16.759S915.457,762.37,916.091,765.99Z" transform="translate(-867.621 -725.725)" fill="#ed7d2b"/>
        <path id="Path_120" data-name="Path 120" d="M939.165,734.362s-7.258.717-7.84,5.433,6.959,23.926,8.039,25.665c1.966,3.167,13.543,14.021,13.543,14.021l2.134-1.293s-8.212-13.9-9.483-15.2C943.561,760.944,941.623,736,939.165,734.362Z" transform="translate(-887.715 -711.549)" fill="#ffb27d"/>
        <path id="Path_121" data-name="Path 121" d="M921.724,733.976c.019.107,6.7,2.182,11,0,0,0,.92-9.918-4.212-9.38s-8.171,2.155-8.3,4.612A8.681,8.681,0,0,0,921.724,733.976Z" transform="translate(-877.904 -702.892)" fill="#f99746"/>
        <path id="Path_122" data-name="Path 122" d="M1112.749,1094.359s2.6-2.391,3.728-2.448,4.47.341,4.585.8-3.436,1.344-3.635,1.641-2.377,2.327-3.347,1.96S1112.749,1094.359,1112.749,1094.359Z" transform="translate(-1048.217 -1027.806)" fill="#ffb27d"/>
      </g>
    </g>
  </g>
</svg>
