<svg width="254" height="141" viewBox="0 0 254 141" fill="none" xmlns="http://www.w3.org/2000/svg">
<g clip-path="url(#clip0)">
<path d="M7.29541 140.802H245.658C245.837 136.38 244.322 122.591 243.244 120.95C238.586 113.874 227.81 110.765 220.116 109.392C211.814 107.913 201.683 107.838 194.805 102.913C187.311 97.5455 184.005 86.933 175.103 84.6389C169.02 83.0685 162.743 85.5803 156.574 86.7471C147.631 88.4361 138.176 87.2178 129.938 83.3177C120.665 78.9272 112.682 70.7829 102.403 68.734C93.361 66.9303 83.1099 71.4395 77.5568 78.7017C72.2941 85.5882 71.4746 94.662 66.7887 101.766C62.1385 108.815 54.1231 113.822 45.5627 114.131C40.9841 114.297 35.9839 113.375 32.1373 115.851C26.7274 119.332 26.1824 127.868 25.0089 131.048C22.6938 137.318 12.6059 131.57 7.29541 140.802Z" fill="#CEE8F4"/>
<path d="M66.8844 75.9329C63.8095 70.2925 56.0646 66.9185 46.2909 69.8653C40.4434 71.6294 36.8474 76.0041 31.879 78.9193C28.0682 81.1541 23.4499 82.5227 19.6589 84.7773C15.868 87.0319 12.8727 90.7144 14.245 94.1992C15.6373 97.7314 20.7966 99.5549 25.5542 100.449C34.6834 102.165 44.6958 102.011 53.117 98.8548C59.9231 96.3035 65.5797 91.4699 67.5527 85.9046C68.8137 82.3447 68.4676 78.8362 66.8844 75.9329Z" fill="#CEE8F4"/>
<path d="M244.198 140.802H186.033C183.826 140.802 182.036 139.022 182.036 136.827V19.6548C182.036 17.4595 183.826 15.6796 186.033 15.6796H244.198C246.406 15.6796 248.196 17.4595 248.196 19.6548V136.827C248.2 139.022 246.406 140.802 244.198 140.802Z" fill="#CEE8F4" stroke="white" stroke-miterlimit="10" stroke-linejoin="round"/>
<path d="M217.626 134.181C217.626 135.557 216.5 136.677 215.116 136.677C213.732 136.677 212.606 135.557 212.606 134.181C212.606 132.804 213.732 131.685 215.116 131.685C216.504 131.685 217.626 132.804 217.626 134.181Z" stroke="white" stroke-miterlimit="10" stroke-linejoin="round"/>
<path d="M246.323 24.599V127.595H183.91V24.599H246.323ZM246.323 24.2035H183.91C183.691 24.2035 183.512 24.3815 183.512 24.599V127.595C183.512 127.813 183.691 127.991 183.91 127.991H246.323C246.541 127.991 246.72 127.813 246.72 127.595V24.599C246.72 24.3775 246.541 24.2035 246.323 24.2035Z" fill="white"/>
<path d="M211.322 19.8644H223.379" stroke="white" stroke-width="2" stroke-miterlimit="10" stroke-linecap="round" stroke-linejoin="round"/>
<path d="M206.858 19.8644H209.078" stroke="white" stroke-width="2" stroke-miterlimit="10" stroke-linecap="round" stroke-linejoin="round"/>
<path d="M183.91 90.7224C190.159 98.1389 192.419 105.164 204.01 105.033C207.415 104.994 210.979 103.973 214.13 105.524C216.107 106.497 217.726 108.482 218.494 110.875C219.42 113.763 219.329 117.477 221.449 119.241C223.207 120.705 225.574 120.02 227.702 119.779C231.135 119.392 232.619 121.674 235.089 124.846C236.923 127.2 245.257 127.591 242.198 127.591C236.844 127.591 183.902 127.591 183.902 127.591L183.91 90.7224Z" fill="#ABDAF7"/>
<path d="M226.966 95.6073C229.058 95.6073 231.175 96.5052 232.639 98.2733C233.721 99.5786 235.188 100.923 236.827 100.923C237.026 100.923 237.229 100.904 237.436 100.86C239.62 100.405 240.483 97.7393 242.384 96.5883C243.303 96.0345 244.377 95.8842 245.471 95.8842C245.754 95.8842 246.036 95.8961 246.319 95.9119V113.308C241.31 113.308 203.007 113.308 201.038 113.308C200.211 113.308 200.796 112.327 201.078 111.995C201.917 111.014 203.007 110.97 204.145 110.757C205.259 110.547 206.46 110.29 207.232 109.372C207.872 108.609 208.091 107.541 208.465 106.584C209.145 104.855 210.418 103.423 211.969 102.644C212.435 102.411 212.936 102.233 213.445 102.233C213.453 102.233 213.461 102.233 213.465 102.233C214.591 102.245 215.601 103.115 216.727 103.131C216.739 103.131 216.747 103.131 216.759 103.131C217.865 103.131 218.839 102.3 219.531 101.343C220.228 100.374 220.725 99.2464 221.449 98.301C222.829 96.4934 224.886 95.6073 226.966 95.6073ZM226.966 95.2118C224.643 95.2118 222.515 96.2481 221.131 98.0558C220.729 98.5779 220.395 99.1554 220.072 99.7131C219.802 100.184 219.52 100.67 219.205 101.105C218.772 101.711 217.873 102.727 216.759 102.727H216.735C216.25 102.719 215.768 102.521 215.255 102.308C214.694 102.074 214.114 101.833 213.473 101.829H213.449C212.944 101.829 212.403 101.98 211.79 102.284C210.156 103.107 208.811 104.618 208.095 106.433C207.988 106.702 207.896 106.979 207.805 107.248C207.566 107.952 207.343 108.617 206.926 109.111C206.265 109.894 205.243 110.14 204.069 110.361C203.91 110.393 203.747 110.417 203.588 110.444C202.602 110.61 201.583 110.78 200.772 111.73C200.74 111.769 199.988 112.659 200.278 113.284C200.35 113.439 200.545 113.696 201.034 113.696H246.315C246.533 113.696 246.712 113.518 246.712 113.3V95.904C246.712 95.6944 246.549 95.5203 246.338 95.5085C246.02 95.4926 245.734 95.4808 245.467 95.4808C244.083 95.4808 243.037 95.722 242.174 96.2442C241.314 96.7623 240.666 97.5534 240.045 98.3168C239.238 99.3017 238.478 100.235 237.352 100.469C237.181 100.504 237.002 100.524 236.827 100.524C235.63 100.524 234.321 99.6814 232.945 98.0202C231.465 96.2362 229.285 95.2118 226.966 95.2118Z" fill="white"/>
<path d="M246.322 32.1736C246.243 32.2052 246.163 32.2329 246.084 32.2685C244.262 33.0359 242.774 34.4163 241.414 35.8442C240.228 37.0902 239.059 38.4232 237.5 39.1629C235.343 40.1873 232.273 39.598 229.957 39.7918C227.746 39.9777 222.789 42.5962 227.774 42.4222C233.951 42.2086 240.137 42.1651 246.322 42.169V32.1736V32.1736Z" fill="white"/>
<path d="M165.536 25.2477C165.536 23.0683 161.367 23.8435 159.223 23.8831C158.395 23.8989 157.389 23.8673 156.979 22.9179C156.585 21.9963 157.047 20.8453 156.963 19.7931C156.796 17.677 154.652 16.9887 153.069 17.408C151.482 17.8273 149.815 18.7964 148.323 17.9618C146.33 16.8503 146.422 14.7855 144.986 12.6536C143.53 10.486 140.992 9.99549 138.9 10.8934C136.807 11.7913 135.117 13.8521 133.756 16.1225C132.412 18.3613 131.652 22.3167 128.092 23.4124C125.94 24.0769 123.879 21.6324 121.751 21.8539C119.877 22.0478 117.538 23.0683 118.099 25.2477H165.536Z" stroke="white" stroke-miterlimit="10" stroke-linejoin="round"/>
<path d="M103.834 13.8323C105.425 13.8323 102.494 11.0595 99.9837 11.72C99.2916 11.902 97.8237 11.8506 97.1555 11.5935C95.5842 10.9962 95.5842 8.98683 95.254 7.34532C94.9239 5.70381 94.7488 3.9199 93.6509 2.65811C92.4178 1.24601 90.2419 0.890023 88.4678 1.51498C86.6896 2.13995 85.3372 3.56391 83.8972 4.78219C82.4611 6.00047 80.687 7.10008 78.8134 6.85484C77.4371 6.67685 76.2517 5.79478 74.8992 5.47044C72.2061 4.82174 69.5091 6.48303 67.4645 8.33814C65.4159 10.1932 63.5065 11.1702 60.8652 12.0088C59.4411 12.4597 56.0042 13.1242 52.4201 12.3569C50.7096 11.989 49.6873 10.9606 47.8893 10.9606C45.2759 10.9606 43.7205 12.4993 42.376 13.8362C44.5877 13.8323 102.243 13.8323 103.834 13.8323Z" fill="white"/>
<path d="M235.976 90.4296C235.976 90.9121 235.583 91.3037 235.097 91.3037C234.612 91.3037 234.218 90.9121 234.218 90.4296C234.218 89.947 234.612 89.5554 235.097 89.5554C235.583 89.5554 235.976 89.947 235.976 90.4296Z" stroke="white" stroke-miterlimit="10" stroke-linejoin="round"/>
<path d="M135.153 42.8693C135.153 43.3518 134.759 43.7434 134.274 43.7434C133.788 43.7434 133.395 43.3518 133.395 42.8693C133.395 42.3867 133.788 41.9951 134.274 41.9951C134.759 41.9951 135.153 42.3867 135.153 42.8693Z" stroke="white" stroke-miterlimit="10" stroke-linejoin="round"/>
<path d="M173.822 13.8322C173.822 14.3147 173.428 14.7063 172.943 14.7063C172.457 14.7063 172.063 14.3147 172.063 13.8322C172.063 13.3496 172.457 12.958 172.943 12.958C173.428 12.958 173.822 13.3496 173.822 13.8322Z" stroke="white" stroke-miterlimit="10" stroke-linejoin="round"/>
<path d="M17.5068 68.3344C17.5068 68.8169 17.1129 69.2085 16.6276 69.2085C16.1423 69.2085 15.7485 68.8169 15.7485 68.3344C15.7485 67.8518 16.1423 67.4602 16.6276 67.4602C17.1129 67.4602 17.5068 67.8518 17.5068 68.3344Z" stroke="white" stroke-miterlimit="10" stroke-linejoin="round"/>
<path d="M78.7861 32.6049C78.7861 33.0874 78.3922 33.479 77.9069 33.479C77.4216 33.479 77.0278 33.0874 77.0278 32.6049C77.0278 32.1223 77.4216 31.7307 77.9069 31.7307C78.3962 31.7307 78.7861 32.1223 78.7861 32.6049Z" stroke="white" stroke-miterlimit="10" stroke-linejoin="round"/>
<path d="M87.0361 102.731C87.0361 103.214 86.6422 103.605 86.1569 103.605C85.6716 103.605 85.2778 103.214 85.2778 102.731C85.2778 102.248 85.6716 101.857 86.1569 101.857C86.6422 101.861 87.0361 102.248 87.0361 102.731Z" stroke="white" stroke-miterlimit="10" stroke-linejoin="round"/>
<path d="M18.3857 115.353C18.3857 115.835 17.9919 116.227 17.5066 116.227C17.0213 116.227 16.6274 115.835 16.6274 115.353C16.6274 114.87 17.0213 114.479 17.5066 114.479C17.9919 114.479 18.3857 114.87 18.3857 115.353Z" stroke="white" stroke-miterlimit="10" stroke-linejoin="round"/>
<path d="M62.5923 20.8334H79.5261" stroke="#CEE8F4" stroke-width="1.5" stroke-miterlimit="10" stroke-linejoin="round"/>
<path d="M83.5713 20.8334H90.2939" stroke="#CEE8F4" stroke-width="1.5" stroke-miterlimit="10" stroke-linejoin="round"/>
<path d="M114.516 35.0531H121.234" stroke="#CEE8F4" stroke-width="1.5" stroke-miterlimit="10" stroke-linejoin="round"/>
<path d="M120.124 120.036H126.843" stroke="#ABDAF7" stroke-width="1.5" stroke-miterlimit="10" stroke-linejoin="round"/>
<path d="M3.57617 81.2054H16.0866" stroke="#CEE8F4" stroke-width="1.5" stroke-miterlimit="10" stroke-linejoin="round"/>
<path d="M229.719 67.7056H242.229" stroke="#70B2DD" stroke-width="1.5" stroke-miterlimit="10" stroke-linejoin="round"/>
<path d="M239.146 72.6696H251.653" stroke="#70B2DD" stroke-width="1.5" stroke-miterlimit="10" stroke-linejoin="round"/>
<path d="M126.135 116.227H138.645" stroke="#ABDAF7" stroke-width="1.5" stroke-miterlimit="10" stroke-linejoin="round"/>
<path d="M74.0684 110.63H86.5788" stroke="#ABDAF7" stroke-width="1.5" stroke-miterlimit="10" stroke-linejoin="round"/>
<path d="M89.5547 110.63H93.4689" stroke="#ABDAF7" stroke-width="1.5" stroke-miterlimit="10" stroke-linejoin="round"/>
<path d="M128.549 52.1289V54.5655" stroke="white" stroke-miterlimit="10" stroke-linejoin="round"/>
<path d="M129.775 53.3472H127.324" stroke="white" stroke-miterlimit="10" stroke-linejoin="round"/>
<path d="M192.358 38.9414V41.378" stroke="white" stroke-miterlimit="10" stroke-linejoin="round"/>
<path d="M193.584 40.1597H191.133" stroke="white" stroke-miterlimit="10" stroke-linejoin="round"/>
<path d="M157.612 0V2.43656" stroke="white" stroke-miterlimit="10" stroke-linejoin="round"/>
<path d="M158.837 1.21826H156.387" stroke="white" stroke-miterlimit="10" stroke-linejoin="round"/>
<path d="M122.984 16.6405V19.0771" stroke="white" stroke-miterlimit="10" stroke-linejoin="round"/>
<path d="M124.21 17.8588H121.759" stroke="white" stroke-miterlimit="10" stroke-linejoin="round"/>
<path d="M242.229 79.6035V82.0401" stroke="white" stroke-miterlimit="10" stroke-linejoin="round"/>
<path d="M243.454 80.8218H241.004" stroke="white" stroke-miterlimit="10" stroke-linejoin="round"/>
<path d="M65.0459 26.0625V28.4991" stroke="white" stroke-miterlimit="10" stroke-linejoin="round"/>
<path d="M66.2712 27.2808H63.8208" stroke="white" stroke-miterlimit="10" stroke-linejoin="round"/>
<path d="M1.2251 95.1562V97.5928" stroke="white" stroke-miterlimit="10" stroke-linejoin="round"/>
<path d="M2.45038 96.3745H0" stroke="white" stroke-miterlimit="10" stroke-linejoin="round"/>
<path d="M150.396 102.462L149.875 102.343L148.046 110.187C147.974 110.495 147.735 110.741 147.413 110.836L147.389 110.887L148.229 111.081C148.26 111.089 148.292 111.085 148.32 111.069L148.344 111.053C148.519 110.958 148.642 110.8 148.686 110.614L150.536 102.675C150.564 102.58 150.5 102.486 150.396 102.462Z" fill="#010101"/>
<path d="M140.682 99.7563L146.836 102.268L149.593 102.739L147.822 110.341C147.775 110.543 147.56 110.669 147.341 110.618C147.178 110.582 147.055 110.452 147.027 110.298L145.965 106.425L139.377 104.72" fill="#FFA18D"/>
<path d="M144.764 101.422L146.832 102.268L149.589 102.739L147.819 110.341C147.771 110.543 147.556 110.669 147.338 110.618C147.174 110.582 147.051 110.452 147.023 110.298L145.961 106.425L143.181 105.705" fill="white"/>
<path d="M145.571 106.445L146.963 110.511C146.999 110.685 147.158 110.832 147.365 110.879C147.639 110.942 147.922 110.729 147.973 110.503L149.875 102.339L146.748 102.236C146.748 102.24 147.003 104.97 145.571 106.445Z" fill="#4376CF"/>
<path d="M145.619 107.05C145.965 106.904 146.331 106.797 146.705 106.73" stroke="#010101" stroke-miterlimit="10" stroke-linecap="round" stroke-linejoin="round"/>
<path d="M145.817 107.6C146.195 107.454 146.406 107.406 146.74 107.343" stroke="#010101" stroke-miterlimit="10" stroke-linecap="round" stroke-linejoin="round"/>
<path d="M145.949 108.055C146.2 107.952 146.53 107.885 146.793 107.822" stroke="#010101" stroke-miterlimit="10" stroke-linecap="round" stroke-linejoin="round"/>
<path d="M109.917 140.612V140.078L101.818 140.051C101.5 140.051 101.206 139.873 101.043 139.584L100.987 139.572L100.983 140.43C100.983 140.462 100.995 140.494 101.015 140.518L101.035 140.541C101.166 140.692 101.349 140.775 101.544 140.775L109.738 140.802C109.838 140.802 109.917 140.719 109.917 140.612Z" fill="#010101"/>
<path d="M108.227 130.289L109.313 137.116L109.464 139.892L101.616 139.869C101.405 139.869 101.238 139.687 101.238 139.465C101.238 139.299 101.337 139.149 101.484 139.09L105.045 137.199L103.068 130.126" fill="#FFA18D"/>
<path d="M108.919 134.624L109.316 137.116L109.467 139.892L101.619 139.869C101.408 139.869 101.241 139.687 101.241 139.465C101.241 139.299 101.341 139.149 101.488 139.089L105.048 137.199L104.404 134.893" fill="white"/>
<path d="M104.937 136.823L101.262 139.078C101.099 139.153 100.991 139.339 100.991 139.548C100.991 139.825 101.262 140.055 101.492 140.055L109.922 140.082L109.325 137.029C109.321 137.029 106.703 137.883 104.937 136.823Z" fill="#4376CF"/>
<path d="M104.356 137.005C104.579 137.31 104.766 137.638 104.913 137.99" stroke="#010101" stroke-miterlimit="10" stroke-linecap="round" stroke-linejoin="round"/>
<path d="M103.858 137.318C104.089 137.65 104.181 137.844 104.316 138.152" stroke="#010101" stroke-miterlimit="10" stroke-linecap="round" stroke-linejoin="round"/>
<path d="M103.441 137.547C103.597 137.768 103.736 138.073 103.855 138.314" stroke="#010101" stroke-miterlimit="10" stroke-linecap="round" stroke-linejoin="round"/>
<path d="M94.6621 60.554V64.4975C94.6621 64.4975 91.4122 88.5111 93.9222 101.635C96.5277 115.266 103.207 132.199 103.207 132.199H109.01C109.01 132.199 106.938 105.611 106.437 99.7802C106.703 94.1674 108.072 76.4153 108.072 76.4153C108.072 76.4153 113.68 67.8359 108.119 60.7873" fill="#4376CF"/>
<path d="M107.881 132.199C107.881 132.199 105.41 108.431 104.654 100.836C104.583 100.108 104.571 99.3806 104.623 98.6528C105.068 92.15 106.194 76.4113 106.194 76.4113" stroke="#1D334F" stroke-width="0.75" stroke-miterlimit="10" stroke-linejoin="round"/>
<path d="M98.9781 63.2041C98.9781 63.2041 98.9303 72.0208 99.7378 75.9248C100.911 81.5969 103.314 89.9192 109.599 96.5129C115.466 102.664 140.213 105.254 140.213 105.254L142.118 100.116C142.118 100.116 127.484 90.5521 117.877 89.9231C117.284 87.9375 114.587 74.2991 114.587 74.2991C114.587 74.2991 114.83 66.5069 110.621 62.7057C110.315 62.4288 110.013 62.148 109.814 61.788L106.926 56.3967" fill="#4376CF"/>
<path d="M94.6621 64.4974C94.6621 64.4974 102.435 66.0045 110.228 62.3575" stroke="#1D334F" stroke-width="0.75" stroke-miterlimit="10" stroke-linejoin="round"/>
<path d="M98.2142 64.806L97.4624 64.7823C97.2038 64.7744 97.001 64.5647 97.001 64.3076V62.7136C97.001 62.4604 97.2038 62.2508 97.4584 62.2389L98.4807 62.1954" stroke="#1D334F" stroke-width="0.75" stroke-miterlimit="10" stroke-linejoin="round"/>
<path d="M98.4809 63.5402C98.4809 63.7103 98.3417 63.8487 98.1706 63.8487C97.9996 63.8487 97.8604 63.7103 97.8604 63.5402C97.8604 63.3701 97.9996 63.2317 98.1706 63.2317C98.3417 63.2356 98.4809 63.3701 98.4809 63.5402Z" fill="white"/>
<path d="M98.9781 64.7981C98.9781 64.7981 98.9303 72.0208 99.7378 75.9248C100.629 80.2362 102.65 87.1504 106.842 93.1983" stroke="#1D334F" stroke-width="0.75" stroke-miterlimit="10" stroke-linejoin="round"/>
<path d="M97.4624 64.7823C97.5062 65.8978 97.5539 67.0093 97.5977 68.1247C97.6732 69.9956 97.2595 71.7875 99.3002 72.6695" stroke="#1D334F" stroke-width="0.75" stroke-miterlimit="10" stroke-linejoin="round"/>
<path d="M102.952 64.4065L102.339 62.0214" stroke="#1D334F" stroke-width="0.75" stroke-miterlimit="10" stroke-linejoin="round"/>
<path d="M108.521 63.0815L107.678 60.554" stroke="#1D334F" stroke-width="0.75" stroke-miterlimit="10" stroke-linejoin="round"/>
<path d="M141.768 101.05C141.768 101.05 127.054 92.5378 117.551 91.3314C116.93 91.2523 116.429 90.8053 116.294 90.2001C115.51 86.6481 113.708 78.1399 113.33 76.0159C113.287 75.7706 113.279 75.5254 113.306 75.2802C113.477 73.8008 112.817 65.6961 108.521 63.0815" stroke="#1D334F" stroke-width="0.75" stroke-miterlimit="10" stroke-linejoin="round"/>
<path d="M143.399 100.615L141.868 99.6813L139.692 105.516L141.474 105.781L143.399 100.615Z" fill="#89B5F4"/>
<path d="M109.313 133.073V131.321L102.586 131.325L102.984 133.077L109.313 133.073Z" fill="#89B5F4"/>
<path d="M106.182 63.8488C106.182 63.8488 108.724 65.6089 111.437 66.5029" stroke="#1D334F" stroke-width="0.75" stroke-miterlimit="10" stroke-linejoin="round"/>
<path d="M94.0293 68.7259C94.0293 68.7259 95.2266 66.5741 95.7756 64.806" stroke="#1D334F" stroke-width="0.75" stroke-miterlimit="10" stroke-linejoin="round"/>
<path d="M114.388 44.5265C114.388 44.5265 122.018 53.1652 122.782 55.5306C123.545 57.8959 125.252 71.6055 125.252 71.6055L121.282 72.092L116.787 57.5162L106.93 48.0706" fill="#FFA18D"/>
<path d="M121.027 70.7314C121.127 71.6728 121.21 73.4132 121.31 74.3545C121.369 74.9083 121.533 75.8774 121.779 75.913C122.42 76.0079 121.875 74.4337 122.197 74.4811C122.396 74.5088 122.483 75.7073 122.531 76.3244C122.575 76.8742 122.706 77.6099 123.052 77.6771C123.498 77.7642 123.231 74.6908 123.231 74.6908C123.231 74.6908 123.645 77.9184 124.019 77.9698C124.56 78.0489 124.154 74.8015 124.154 74.8015C124.154 74.8015 124.556 77.5466 124.958 77.6059C125.359 77.6653 125.013 75.6559 125.013 74.8173C125.156 75.4146 125.367 76.9928 125.658 77.0324C125.952 77.0759 125.956 75.8893 125.924 75.5966C125.729 73.8324 124.993 70.3754 124.993 70.3754" fill="#FFA18D"/>
<path d="M89.6058 43.7118L84.4107 49.111L71.582 43.1738L69.2788 46.0771C69.2788 46.0771 80.8027 56.6105 84.6374 56.6105C87.6328 56.6105 97.5377 49.1149 97.5377 49.1149" fill="#FFA18D"/>
<path d="M72.9903 43.8263C72.1351 43.0352 70.4524 41.3344 69.5972 40.5433C69.092 40.0765 68.1691 39.3052 67.9583 39.4555C67.4213 39.8353 69.1238 40.8795 68.8533 41.0733C68.7021 41.1801 67.5804 40.2348 67.4014 40.1201C66.8365 39.7601 66.2478 39.4437 65.6392 39.1668C65.5278 39.1154 65.4124 39.0679 65.2891 39.0758C65.1698 39.0837 65.0465 39.1787 65.0425 39.2973C65.0425 39.4081 65.134 39.4911 65.2215 39.5623C65.9534 40.1557 66.6814 40.749 67.4093 41.3423C67.1388 41.3027 66.928 41.37 66.7132 41.6034C66.5183 41.8169 66.6814 42.0938 66.6814 42.0938C66.6814 42.0938 66.3472 42.0701 66.2199 42.1888C66.0926 42.3074 66.0489 42.4973 66.0728 42.6674C66.0926 42.8414 66.1682 42.9996 66.2438 43.1578C66.0568 43.1143 65.8619 43.2567 65.7903 43.4308C65.7187 43.6088 65.7466 43.8105 65.7943 43.9964C65.9494 44.562 66.3393 45.0525 66.8445 45.3492C67.0712 45.4836 67.282 45.6735 67.5645 45.6458C67.835 45.6181 68.0895 45.4362 68.189 45.183C68.7896 45.9187 69.5534 46.516 70.4126 46.9274" fill="#FFA18D"/>
<path d="M70.5637 44.2852C70.5637 44.2852 69.4061 43.3675 69.1714 41.6707" stroke="#E07A6C" stroke-width="0.75" stroke-miterlimit="10" stroke-linejoin="round"/>
<path d="M67.8948 41.9239C68.1732 42.2364 68.4318 42.5647 68.7182 42.8692C68.8534 43.0156 68.9926 43.1619 69.1319 43.3083C69.1955 43.3755 69.2711 43.4388 69.1995 43.5298C69.1478 43.5931 69.0523 43.6326 68.9767 43.6524C68.6506 43.7513 68.2846 43.6564 68.0022 43.4863C67.6998 43.3083 67.4731 43.0314 67.1867 42.8336C67.127 42.7941 67.0713 42.8692 67.0992 42.9207C67.2384 43.2094 67.485 43.4467 67.7476 43.6326C68.0101 43.8185 68.3244 43.9412 68.6466 43.9412C68.9131 43.9412 69.2989 43.8581 69.3944 43.5693C69.4421 43.4349 69.3904 43.3202 69.2989 43.2213C69.1677 43.0828 69.0285 42.9483 68.8932 42.8099C68.7341 42.6517 68.5789 42.4935 68.4119 42.3471C68.2408 42.2008 68.0738 42.0544 67.9146 41.9001C67.8987 41.9001 67.8868 41.912 67.8948 41.9239Z" fill="#E07A6C"/>
<path d="M66.4905 43.589C66.7251 43.8738 66.9797 44.1309 67.2661 44.3642C67.5048 44.5581 67.7912 44.8033 68.1254 44.7756C68.3601 44.7558 68.5271 44.5897 68.6067 44.3761C68.6703 44.206 68.722 43.8896 68.547 43.767C68.5271 43.7512 68.4913 43.763 68.4794 43.7828C68.4356 43.8659 68.4436 43.9489 68.4436 44.0399C68.4436 44.1269 68.4317 44.2139 68.4038 44.297C68.3481 44.471 68.2089 44.5897 68.018 44.5699C67.8787 44.5541 67.7554 44.479 67.6401 44.4038C67.5088 44.3128 67.3815 44.2139 67.2542 44.1151C67.0155 43.9252 66.7769 43.7274 66.5541 43.5217C66.5103 43.4822 66.4547 43.5415 66.4905 43.589Z" fill="#E07A6C"/>
<path d="M102.952 39.8828C102.952 39.8828 107.455 38.0119 111.552 41.3859C114.722 43.9965 117.873 47.8016 117.873 47.8016L111.771 53.3472L105.044 47.236" fill="#F05448"/>
<path d="M101.261 40.1597C101.261 40.1597 97.156 39.0008 93.2935 41.0616C89.431 43.1224 86.1611 47.3468 86.1611 47.3468L91.7182 53.3472L98.3653 49.1149" fill="#F05448"/>
<path d="M95.0958 42.794C89.3636 48.4938 94.1649 52.9318 94.1649 52.9318L94.6582 61.9779C94.6582 61.9779 96.0942 62.4605 98.9742 62.3577C104.205 62.1718 109.042 60.3839 109.042 60.3839C109.042 60.3839 110.848 52.3266 110.956 48.0706C111.051 44.2773 108.171 42.082 108.171 42.082L102.172 39.8353L95.0958 42.794Z" fill="#F05448"/>
<path d="M99.7454 26.7705C99.3357 26.8378 98.922 26.9643 98.5919 27.2135C98.3094 27.4271 98.019 27.5181 97.6968 27.6565C96.9729 27.9651 96.3165 28.4358 95.8193 29.0489C95.1271 29.9032 94.7651 31.0345 94.9163 32.1222C94.96 32.4466 95.0515 32.7709 95.0396 33.0992C95.0038 33.9338 94.4628 34.0367 93.882 34.5548C93.2177 35.1442 92.5852 35.872 92.5733 36.8055C92.5654 37.83 93.2138 38.9098 94.2281 39.2579C94.9919 39.5189 95.9943 39.2618 96.7978 39.2025C98.7311 39.0601 100.664 38.9217 102.594 38.7793C104.189 38.6646 105.828 38.4272 107.427 38.4391C108.608 38.447 108.811 37.3593 108.827 36.3664C108.839 35.6386 108.533 34.6616 108.059 34.1118C107.88 33.9061 107.657 33.7361 107.534 33.4908C107.431 33.2851 107.411 33.0439 107.395 32.8144C107.335 32.0075 107.284 31.1927 107.077 30.4095C106.87 29.6263 106.492 28.8709 105.883 28.3408C105.497 28.0046 105.016 27.7752 104.511 27.7119C104.034 27.6526 103.413 27.6763 102.936 27.7396" fill="#010101"/>
<path d="M100.51 35.5557L99.7378 40.2864C99.7378 40.2864 99.7696 41.9279 102.176 41.9279C103.895 41.9279 104.205 40.3695 104.205 40.3695L103.517 35.5557" fill="#FFA18D"/>
<path d="M104.615 28.8353C106.807 31.0148 108.354 36.6948 104.893 37.3633C102.145 37.8933 99.8334 36.1608 99.1333 33.9616C98.103 30.7142 102.423 26.6559 104.615 28.8353Z" fill="#FFA18D"/>
<path d="M105.676 31.7625C105.676 31.9365 105.533 32.0789 105.358 32.0789C105.183 32.0789 105.04 31.9365 105.04 31.7625C105.04 31.5884 105.183 31.446 105.358 31.446C105.533 31.446 105.676 31.5884 105.676 31.7625Z" fill="#060A47"/>
<path d="M102.176 33.0281C102.176 33.2021 102.319 33.3445 102.495 33.3445C102.67 33.3445 102.813 33.2021 102.813 33.0281C102.813 32.8541 102.67 32.7117 102.495 32.7117C102.319 32.7156 102.176 32.8541 102.176 33.0281Z" fill="#060A47"/>
<path d="M102.94 31.7427C102.562 31.5687 102.117 31.5884 101.755 31.7902C101.448 31.9602 101.158 32.2806 101.126 32.6406C101.122 32.688 101.194 32.7039 101.218 32.6643C101.297 32.5259 101.369 32.3835 101.472 32.2609C101.576 32.1382 101.695 32.0314 101.834 31.9523C102.156 31.7704 102.546 31.7467 102.896 31.8495C102.956 31.8653 103 31.7704 102.94 31.7427Z" fill="#060A47"/>
<path d="M105.8 30.6469C105.525 30.366 105.08 30.3304 104.73 30.4886C104.423 30.6271 104.085 30.9989 104.185 31.3588C104.193 31.3944 104.248 31.4024 104.264 31.3707C104.336 31.2362 104.388 31.0978 104.471 30.9712C104.555 30.8446 104.67 30.7378 104.809 30.6666C105.104 30.5163 105.462 30.5796 105.744 30.726C105.788 30.7537 105.84 30.6904 105.8 30.6469Z" fill="#060A47"/>
<path d="M104.213 32.1698C104.213 32.1698 105.438 33.4672 105.311 33.7638C105.096 34.2543 104.364 34.2543 104.364 34.2543" stroke="#E07A6C" stroke-width="0.75" stroke-miterlimit="10" stroke-linejoin="round"/>
<path d="M103.194 35.3301L105.633 34.6973C105.633 34.6973 105.951 36.1212 105.155 36.3388C103.608 36.762 103.194 35.3301 103.194 35.3301Z" fill="white"/>
<path d="M95.9944 29.6541C96.3882 28.1115 97.3946 26.7706 98.95 26.3671C99.654 26.1852 100.406 26.1654 101.122 26.2524C101.742 26.3276 102.307 26.6005 102.908 26.7627C103.509 26.9249 104.022 26.6322 104.622 26.6757C105.776 26.7587 106.981 27.7357 106.432 28.9659C106.194 29.5038 105.704 29.9033 105.187 30.1881C103.811 30.9515 102.176 31.0741 100.601 31.0979C100.843 31.0939 101.007 32.5179 100.999 32.6998C100.971 33.218 100.752 33.6966 100.589 34.1831C100.135 35.5161 99.5387 36.8016 98.8863 38.0515C98.8346 38.1465 98.755 38.2572 98.6476 38.2414C98.5919 38.2335 98.5482 38.19 98.5124 38.1504C97.9396 37.5452 97.4662 36.857 97.0923 36.1134C96.8178 35.5636 96.3643 34.99 96.1933 34.4007C96.0978 34.0724 96.1694 33.7757 96.1813 33.4474C96.1972 33.0083 96.0342 32.7196 95.9148 32.3003C95.6682 31.438 95.7796 30.5085 95.9944 29.6541Z" fill="#010101"/>
<path d="M103.815 37.6362C103.815 37.6362 102.208 37.739 100.935 36.7462" stroke="#E07A6C" stroke-width="0.75" stroke-miterlimit="10" stroke-linejoin="round"/>
<path d="M100.724 34.0843C100.326 33.7401 99.8925 33.9893 99.7334 34.1871C99.3475 34.6697 99.4987 35.4291 99.8567 35.9433C100.254 36.5208 100.68 36.5406 100.959 36.4219C101.237 36.3033 101.352 35.8207 101.177 35.3223" fill="#FFA18D"/>
<path d="M98.4406 27.9136C99.276 27.7237 99.2879 26.7388 99.1845 26.0585C98.9578 24.6148 97.7485 23.6931 96.2966 23.7881C94.7412 23.8909 93.0745 24.9272 93.3171 27.1067C93.528 29.029 96.571 29.4404 97.9752 28.3368C98.0269 28.2973 98.0747 28.2577 98.1224 28.2142" fill="#010101"/>
<path d="M99.2123 26.3077C99.2123 26.3077 97.1279 26.4897 95.855 28.8986" stroke="#4376CF" stroke-miterlimit="10" stroke-linejoin="round"/>
<path d="M110.641 52.3227L105.362 47.4812" stroke="#91302C" stroke-width="0.75" stroke-miterlimit="10" stroke-linejoin="round"/>
<path d="M95.0958 42.7941C89.3636 48.4939 94.1649 52.9319 94.1649 52.9319" stroke="#91302C" stroke-width="0.75" stroke-miterlimit="10" stroke-linejoin="round"/>
<path d="M166.236 42.6398C166.236 42.6398 173.297 46.9433 174.753 48.7747C178.377 53.3472 183.52 68.3383 183.52 68.3383L179.654 70.1499C179.654 70.1499 170.473 55.1548 169.852 54.8186C167.489 53.5331 159.402 50.9027 159.402 50.9027" fill="#FF886F"/>
<path d="M157.346 37.0667C162.879 38.281 171.889 45.3494 171.889 45.3494L162.879 56.397L155.671 51.421" fill="#4376CF"/>
<path d="M186.67 131.733L186.125 131.044L175.552 139.319C175.114 139.659 174.529 139.75 174.012 139.552L173.925 139.6L174.8 140.704C174.832 140.743 174.879 140.771 174.931 140.779L174.979 140.787C175.309 140.838 175.647 140.747 175.914 140.541L186.618 132.164C186.753 132.057 186.773 131.863 186.67 131.733Z" fill="#010101"/>
<path d="M177.688 117.212L182.776 127.488L185.314 131.293L175.086 139.299C174.8 139.525 174.382 139.473 174.156 139.189C173.984 138.975 173.965 138.678 174.108 138.445L177.032 132.187L170.48 122.56" fill="#FF886F"/>
<path d="M176.677 131.673L173.789 138.67C173.642 138.939 173.686 139.295 173.901 139.564C174.183 139.924 174.788 139.924 175.106 139.675L186.129 131.044L182.7 127.362C182.696 127.362 180.174 131.131 176.677 131.673Z" fill="#F05448"/>
<path d="M175.89 132.674C176.503 132.824 177.095 133.05 177.656 133.338" stroke="#010101" stroke-miterlimit="10" stroke-linecap="round" stroke-linejoin="round"/>
<path d="M175.536 133.611C176.192 133.793 176.515 133.944 177.016 134.193" stroke="#010101" stroke-miterlimit="10" stroke-linecap="round" stroke-linejoin="round"/>
<path d="M175.198 134.355C175.635 134.47 176.137 134.711 176.55 134.893" stroke="#010101" stroke-miterlimit="10" stroke-linecap="round" stroke-linejoin="round"/>
<path d="M154.354 75.1774C154.354 75.1774 154.601 100.991 156.586 106.71C159.076 113.897 168.734 129.597 168.734 129.597L181.714 122.841L170.997 102.624C170.504 101.695 170.262 100.658 170.293 99.6063C170.389 96.351 170.624 89.1125 170.862 87.202C171.117 85.1689 171.912 83.4522 172.605 81.5576C173.997 77.7366 175.397 73.3302 174.788 69.2245" fill="#173682"/>
<path d="M157.882 73.7654C157.882 73.7654 158.129 99.5787 160.114 105.298C162.604 112.485 172.036 127.88 172.036 127.88" stroke="#010101" stroke-width="0.75" stroke-miterlimit="10" stroke-linejoin="round"/>
<path d="M143.399 140.494V139.62H129.942C129.385 139.62 128.872 139.331 128.585 138.856L128.486 138.84V140.245C128.486 140.296 128.506 140.347 128.542 140.387L128.573 140.423C128.804 140.668 129.122 140.802 129.46 140.802H143.085C143.264 140.802 143.399 140.664 143.399 140.494Z" fill="#010101"/>
<path d="M145.376 123.561L142.982 134.762L142.608 139.315H129.588C129.222 139.315 128.924 139.018 128.924 138.655C128.924 138.382 129.091 138.136 129.349 138.037L135.539 134.921L136.378 123.327" fill="#FF886F"/>
<path d="M135.582 134.304L128.959 138.022C128.677 138.144 128.49 138.453 128.49 138.793C128.49 139.248 128.963 139.62 129.369 139.62H143.399L142.997 134.616C142.997 134.616 138.669 136.028 135.582 134.304Z" fill="#F05448"/>
<path d="M134.345 134.604C134.731 135.099 135.061 135.64 135.32 136.214" stroke="#010101" stroke-miterlimit="10" stroke-linecap="round" stroke-linejoin="round"/>
<path d="M133.482 135.122C133.884 135.668 134.043 135.984 134.286 136.491" stroke="#010101" stroke-miterlimit="10" stroke-linecap="round" stroke-linejoin="round"/>
<path d="M132.754 135.502C133.024 135.862 133.271 136.36 133.482 136.756" stroke="#010101" stroke-miterlimit="10" stroke-linecap="round" stroke-linejoin="round"/>
<path d="M150.11 70.6721L149.195 76.7794C149.195 76.7794 138.912 91.5411 135.917 102.628C134.449 108.063 131.342 130.85 131.342 130.85H146.315C146.315 130.85 149.728 109.337 151.797 104.432C153.849 99.5746 162.565 86.7985 164.048 84.6151C169.876 80.1296 171.189 72.2939 168.181 65.0079" fill="#1238A7"/>
<path d="M155.368 97.9291L163.515 85.4022C163.821 84.9553 164.183 84.5478 164.609 84.2077C165.727 83.3177 168.813 79.8923 169.243 76.6093" stroke="#010101" stroke-width="0.75" stroke-miterlimit="10" stroke-linejoin="round"/>
<path d="M152.782 70.6721L152.042 75.6125C151.927 76.3719 151.653 77.0918 151.223 77.7286C148.924 81.158 141.131 93.2182 138.589 102.628C137.121 108.063 134.015 130.85 134.015 130.85" stroke="#010101" stroke-width="0.75" stroke-miterlimit="10" stroke-linejoin="round"/>
<path d="M131.847 127.247H146.911" stroke="#010101" stroke-width="0.75" stroke-miterlimit="10" stroke-linejoin="round"/>
<path d="M165.535 76.2572L158.296 76.3442C158.296 76.3442 157.389 81.1659 157.671 81.4428C158.077 81.8463 160.114 83.7528 160.865 83.7528C161.617 83.7528 163.801 81.8858 164.239 81.4468C164.676 81.0156 165.535 76.2572 165.535 76.2572Z" stroke="#010101" stroke-width="0.75" stroke-miterlimit="10" stroke-linejoin="round"/>
<path d="M158.101 77.337H158.897" stroke="#010101" stroke-width="0.75" stroke-linejoin="round"/>
<path d="M159.701 77.337H164.132" stroke="#010101" stroke-width="0.75" stroke-linejoin="round" stroke-dasharray="4.05 4.05"/>
<path d="M164.533 77.337H165.329" stroke="#010101" stroke-width="0.75" stroke-linejoin="round"/>
<path d="M174.124 75.5651L171.98 75.8103C171.98 75.8103 171.574 80.6992 171.881 80.9484L172.577 81.9729" stroke="#010101" stroke-width="0.75" stroke-miterlimit="10" stroke-linejoin="round"/>
<path d="M171.889 76.8198L172.68 76.7407" stroke="#010101" stroke-width="0.75" stroke-linejoin="round"/>
<path d="M173.142 76.6924L173.933 76.6094" stroke="#010101" stroke-width="0.75" stroke-linejoin="round"/>
<path d="M167.056 126.808L180.23 120.036" stroke="#010101" stroke-width="0.75" stroke-miterlimit="10" stroke-linejoin="round"/>
<path d="M154.211 35.619C164.239 38.9258 169.736 52.5207 176.033 70.6722C176.033 70.6722 161.443 75.0984 147.512 74.1649C147.743 66.3173 146.848 47.8097 146.848 47.8097L149.724 36.4655" fill="#4376CF"/>
<path d="M167.91 50.2265C167.91 50.2265 163.141 40.7018 156.51 36.7186" stroke="#1D334F" stroke-width="0.75" stroke-miterlimit="10" stroke-linejoin="round"/>
<path d="M147.09 29.6503C147.09 30.4532 146.437 31.1019 145.63 31.1019C144.822 31.1019 144.17 30.4532 144.17 29.6503C144.17 28.8473 144.822 28.1986 145.63 28.1986C146.433 28.1986 147.09 28.8513 147.09 29.6503Z" stroke="white" stroke-width="0.5" stroke-miterlimit="10" stroke-linejoin="round"/>
<path d="M146.848 34.4204L148.025 28.151L151.872 31.4815L152.492 32.3398L154.211 35.6228C154.211 35.6228 152.5 39.337 149.338 38.894C149.159 38.8703 149.004 38.7477 148.924 38.5855L146.848 34.4204Z" fill="#FF886F"/>
<path d="M145.411 25.6592C144.564 27.5103 143.554 34.2979 144.998 35.2551C146.445 36.2123 149.051 35.801 150.177 34.7765C151.151 33.8905 152.846 28.5427 151.633 26.9645C150.423 25.3863 146.601 23.0644 145.411 25.6592Z" fill="#FF886F"/>
<path d="M153.252 26.3513C152.46 23.9187 151.024 23.4955 148.884 23.4955C146.943 23.4955 144.874 23.4994 143.371 24.777C143.013 25.0816 142.762 25.4337 142.826 25.9281C142.925 26.6915 143.733 27.182 144.429 27.3164C145.451 27.5182 146.458 27.712 147.464 27.9889C148.51 28.2737 148.956 29.2902 149.871 29.7767C150.034 29.8638 150.205 29.931 150.36 30.0299C150.698 30.2435 150.945 30.5916 151.032 30.9792C151.096 31.2679 151.076 31.5725 151.14 31.8652C151.247 32.3557 151.681 32.5693 152.066 32.8224C152.373 33.0242 153.021 33.3564 153.021 33.3564C153.021 33.3564 154.211 31.4143 154.211 29.5434C154.211 28.5743 153.976 27.0712 153.252 26.3513Z" fill="#010101"/>
<path d="M147.743 35.8958C147.743 35.8958 149.867 35.6941 150.503 34.2147" stroke="#D85039" stroke-width="0.75" stroke-miterlimit="10" stroke-linejoin="round"/>
<path d="M144.998 29.6898C144.998 29.6898 143.125 31.5805 143.359 32.1106C143.594 32.6445 144.489 32.4982 144.489 32.4982" fill="#FF886F"/>
<path d="M145.849 29.5395C145.786 29.6542 145.77 29.8243 145.746 29.9232C145.702 30.0972 145.881 30.2278 146.052 30.204C146.374 30.1566 146.438 29.4327 146.056 29.4169C145.957 29.409 145.893 29.4644 145.849 29.5395Z" fill="#010101"/>
<path d="M144.811 33.0994L147.154 32.8423C147.154 32.8423 146.955 34.551 145.559 34.5748C144.711 34.5906 144.811 33.0994 144.811 33.0994Z" fill="white"/>
<path d="M145.527 28.8749C146.024 28.9658 146.541 29.1676 146.951 29.4326C147.007 29.4128 147.174 29.1992 147.122 29.0489C147.082 28.9302 146.346 28.5268 145.634 28.424C145.634 28.424 145.439 28.7918 145.527 28.8749Z" fill="#010101"/>
<path d="M147.548 29.8083C147.548 30.6113 146.895 31.26 146.088 31.26C145.28 31.26 144.628 30.6113 144.628 29.8083C144.628 29.0054 145.28 28.3567 146.088 28.3567C146.895 28.3567 147.548 29.0093 147.548 29.8083Z" stroke="white" stroke-width="0.5" stroke-miterlimit="10" stroke-linejoin="round"/>
<path d="M144.676 29.4445L144.198 29.314" stroke="white" stroke-width="0.5" stroke-miterlimit="10" stroke-linejoin="round"/>
<path d="M147.543 29.7333L150.503 30.4571" stroke="white" stroke-width="0.5" stroke-miterlimit="10" stroke-linejoin="round"/>
<path d="M150.049 30.6787C150.296 30.3662 150.614 30.0221 150.984 30.0498C151.175 30.0656 151.338 30.1843 151.454 30.3346C152.038 31.1178 151.875 32.4033 151.028 32.9452C150.674 33.1706 150.224 33.23 150.006 32.7949L149.95 30.9121C149.934 30.829 149.994 30.7499 150.049 30.6787Z" fill="#FF886F"/>
<path d="M151.402 32.6049C151.402 32.6049 150.757 33.2812 150.105 32.9529" stroke="#D85039" stroke-width="0.75" stroke-miterlimit="10" stroke-linejoin="round"/>
<path d="M143.816 45.0884C143.816 45.0884 140.002 55.0482 139.433 55.8551C138.76 56.8084 127.169 68.1882 127.169 68.1882L129.285 72.4087C129.285 72.4087 144.031 63.8451 145.968 61.4007C147.766 59.1302 150.802 51.2905 150.802 51.2905" fill="#FF886F"/>
<path d="M156.228 37.7312C152.946 36.2677 148.702 36.505 145.038 42.4105C142.595 46.3462 139.437 52.8015 139.437 52.8015L150.798 58.624L156.793 46.2355" fill="#4376CF"/>
<path d="M155.905 48.0708L150.798 58.624L139.437 52.8015" stroke="#1D334F" stroke-width="0.75" stroke-miterlimit="10" stroke-linejoin="round"/>
<path d="M151.363 37.1499C151.363 37.1499 153.658 36.6396 155.758 37.5375" stroke="#1D334F" stroke-width="0.75" stroke-miterlimit="10" stroke-linejoin="round"/>
<path d="M140.396 50.8831L151.772 56.6066" stroke="#1D334F" stroke-width="0.75" stroke-miterlimit="10" stroke-linejoin="round"/>
<path d="M127.977 67.3971C127.977 67.3971 126.572 68.6905 124.949 69.0663C124.949 69.0663 124.997 69.8851 125.021 70.0512C124.838 70.245 123.378 70.9372 122.821 71.1231C122.101 71.3644 121.166 71.7718 121.198 72.1674C121.238 72.6776 125.256 71.2972 125.256 71.2972C125.256 71.2972 121.091 72.8873 121.151 73.3145C121.238 73.9276 125.431 72.3335 125.431 72.3335C125.431 72.3335 121.902 73.7416 121.97 74.1926C122.034 74.6435 124.599 73.5597 125.717 73.2591C124.969 73.6269 122.937 74.4141 122.984 74.7424C123.032 75.0707 124.619 74.6593 124.997 74.5209C127.284 73.6863 131.453 71.135 131.453 71.135" fill="#FF886F"/>
<path d="M193.091 122.196L192.359 135.225C192.359 135.225 185.632 139.849 185.632 139.932C185.632 140.011 191.838 140.237 191.838 140.237L194.583 138.904H199.133C199.448 138.904 199.682 138.615 199.611 138.31L199.054 135.874L200.927 125.455" fill="#FFA18D"/>
<path d="M186.078 139.018C187.056 138.453 190.426 136.34 190.426 136.34L194.559 138.9H199.742V140.802H194.399V139.663H193.93C193.811 139.663 193.695 139.702 193.6 139.774L192.426 140.648C192.291 140.747 192.128 140.802 191.957 140.802H185.628C184.777 140.802 184.586 139.88 186.078 139.018Z" fill="#010101"/>
<path d="M195.943 139.259L199.387 137.143L199.205 136.34L195.465 138.907L195.943 139.259Z" fill="#010101"/>
<path d="M217.483 114.605L226.851 123.742C226.851 123.742 225.912 131.819 225.972 131.875C226.031 131.926 230.292 127.437 230.292 127.437L231.095 124.506L234.095 121.104C234.301 120.871 234.238 120.503 233.959 120.356L231.752 119.17L225.109 110.899" fill="#FFA18D"/>
<path d="M225.582 130.941C225.8 129.838 226.425 125.922 226.425 125.922L231.087 124.521L234.504 120.645L235.94 121.899L232.416 125.894L231.552 125.142L231.242 125.491C231.163 125.578 231.115 125.692 231.107 125.807L230.996 127.263C230.984 127.429 230.916 127.587 230.805 127.714L226.632 132.444C226.071 133.089 225.248 132.626 225.582 130.941Z" fill="#010101"/>
<path d="M232.265 123.727L232.941 119.759L232.209 119.364L231.684 123.849L232.265 123.727Z" fill="#010101"/>
<path d="M199.682 68.6864C199.682 68.6864 192.319 89.6938 191.377 98.6727C190.434 107.652 189.61 130.85 189.61 130.85H203.135C203.135 130.85 205.021 101.525 206.294 97.043C206.994 94.5788 207.845 90.0221 209.52 81.9886C211.771 76.2571 212.905 74.0975 211.851 69.3391" fill="#F05448"/>
<path d="M205.302 68.457C205.302 68.457 205.302 75.1615 204.714 78.2903C203.938 81.6168 199.737 93.4238 201.989 99.713C204.236 106.002 220.924 123.204 220.924 123.204L228.291 113.929L214.285 95.7141L217.896 81.3479C217.896 81.3479 221.433 75.0666 218.131 68.6825" fill="#F05448"/>
<path d="M205.302 71.9575C205.302 71.9575 205.302 75.1614 204.714 78.2942C203.938 81.6207 199.737 93.4277 201.989 99.7169C202.506 101.169 203.727 103.119 205.302 105.258" stroke="#91302C" stroke-width="0.75" stroke-miterlimit="10" stroke-linejoin="round"/>
<path d="M200.776 63.9992L199.682 68.6864C206.651 71.1625 218.136 68.6864 218.136 68.6864L214.508 60.5698" fill="#FFA18D"/>
<path d="M227.161 115.353L213.064 98.0753C212.546 97.4464 212.34 96.6197 212.499 95.8207L215.204 82.0399C215.287 81.6206 215.423 81.2132 215.602 80.8256C216.353 79.188 217.344 73.7849 216.548 71.1862" stroke="#91302C" stroke-width="0.75" stroke-miterlimit="10" stroke-linejoin="round"/>
<path d="M199.002 70.672C199.002 70.672 205.001 73.9431 218.955 70.672" stroke="#91302C" stroke-width="0.75" stroke-miterlimit="10" stroke-linejoin="round"/>
<path d="M203.406 71.8547L202.733 71.7637C202.515 71.736 202.368 71.562 202.403 71.384L202.706 69.8295C202.741 69.6515 202.94 69.5289 203.155 69.5526L204.75 69.6832" stroke="#91302C" stroke-width="0.75" stroke-miterlimit="10" stroke-linejoin="round"/>
<path d="M199.682 68.6864C206.651 71.1625 218.136 68.6864 218.136 68.6864" stroke="#91302C" stroke-width="0.75" stroke-miterlimit="10" stroke-linejoin="round"/>
<path d="M203.907 71.1863C204.232 71.1863 204.496 70.9685 204.496 70.6998C204.496 70.4311 204.232 70.2133 203.907 70.2133C203.582 70.2133 203.318 70.4311 203.318 70.6998C203.318 70.9685 203.582 71.1863 203.907 71.1863Z" fill="#F8F4F1"/>
<path d="M208.907 69.786L209.189 72.092" stroke="#91302C" stroke-width="0.75" stroke-miterlimit="10" stroke-linejoin="round"/>
<path d="M214.897 69.2362L215.554 71.3722" stroke="#91302C" stroke-width="0.75" stroke-miterlimit="10" stroke-linejoin="round"/>
<path d="M212.447 71.8547C212.447 71.8547 213.271 74.7739 216.747 75.4977" stroke="#91302C" stroke-width="0.75" stroke-miterlimit="10" stroke-linejoin="round"/>
<path d="M203.907 71.9181C203.907 71.9181 203.577 77.0127 203.577 77.6218C203.577 78.3655 204.607 78.7373 204.607 78.7373" stroke="#91302C" stroke-width="0.75" stroke-miterlimit="10" stroke-linejoin="round"/>
<path d="M198.083 73.4172C198.083 73.4172 199.96 73.3855 201.332 71.6056" stroke="#91302C" stroke-width="0.75" stroke-miterlimit="10" stroke-linejoin="round"/>
<path d="M201.118 130.85L203.672 102.905" stroke="#91302C" stroke-width="0.75" stroke-miterlimit="10" stroke-linejoin="round"/>
<path d="M179.653 70.15L181.443 73.6348C181.443 73.6348 183.731 74.679 183.794 74.6157C183.858 74.5524 185.282 73.0415 185.282 72.9663C185.282 72.8872 183.297 67.7056 183.297 67.7056" fill="#FF886F"/>
<path d="M198.843 45.1357L194.65 57.7615L184.423 69.5962L186.897 71.9576C186.897 71.9576 199.014 63.1528 200.852 60.649C202.693 58.1452 207.431 45.0883 207.431 45.0883" fill="#FFA18D"/>
<path d="M185.29 68.9279C184.558 69.5133 183.146 70.5377 182.414 71.1231C181.98 71.4673 181.256 72.112 181.352 72.2939C181.594 72.7646 182.632 71.5345 182.752 71.7718C182.827 71.9182 181.873 72.6381 181.383 73.0099C180.946 73.3421 180.401 73.8366 180.516 74.1016C180.663 74.4418 183.094 72.5629 183.094 72.5629C183.094 72.5629 180.612 74.6198 180.755 74.8966C180.958 75.2961 183.46 73.2274 183.46 73.2274C183.46 73.2274 181.371 75.0113 181.523 75.308C181.674 75.6047 183.177 74.2638 183.873 73.797C183.448 74.2203 182.239 75.2328 182.35 75.4504C182.461 75.664 183.452 75.0153 183.679 74.8294C185.051 73.7258 187.565 71.3249 187.565 71.3249" fill="#FFA18D"/>
<path d="M182.752 71.7717C182.752 71.7717 183.83 71.8627 184.832 71.4315" stroke="#E07A6C" stroke-width="0.75" stroke-miterlimit="10" stroke-linejoin="round"/>
<path d="M180.58 71.9578C180.863 72.6618 181.073 73.354 181.415 74.0304C181.503 74.2005 181.67 74.3983 181.845 74.3192C182.004 74.248 181.988 74.0225 181.952 73.8564C181.885 73.5202 181.71 72.7014 181.71 72.7014" fill="#FF886F"/>
<path d="M183.969 74.6117C183.512 74.3586 183.05 74.1094 182.585 73.872C182.509 73.8325 182.43 73.7929 182.342 73.785C182.255 73.7771 182.163 73.8127 182.123 73.8879C182.08 73.9709 182.115 74.0738 182.159 74.1568C182.398 74.588 182.883 74.8253 183.349 74.9954C183.46 75.0349 183.575 75.0745 183.695 75.0666C183.814 75.0547 183.933 74.9796 183.957 74.8609" fill="#FF886F"/>
<path d="M184.423 74.3032C184.017 73.9749 183.568 73.7495 183.146 73.437C183.079 73.3856 183.007 73.3342 182.923 73.3104C182.84 73.2906 182.74 73.3065 182.689 73.3737C182.633 73.4489 182.649 73.5557 182.681 73.6427C182.844 74.1094 183.277 74.4219 183.707 74.6711C183.81 74.7304 183.918 74.7898 184.037 74.7977C184.157 74.8056 184.53 74.7977 184.507 74.3388" fill="#FF886F"/>
<path d="M184.805 73.8325C184.399 73.5042 184.141 73.3341 183.723 73.0177C183.655 72.9663 183.584 72.9148 183.5 72.8911C183.417 72.8713 183.317 72.8872 183.265 72.9544C183.21 73.0296 183.226 73.1363 183.257 73.2234C183.421 73.6901 183.854 74.0026 184.284 74.2518C184.387 74.3111 184.495 74.3705 184.614 74.3784C184.733 74.3863 185.036 74.3784 184.972 73.8839" fill="#FF886F"/>
<path d="M185.282 73.441C184.9 73.085 184.729 72.903 184.335 72.5589C184.272 72.5035 184.204 72.4442 184.121 72.4165C184.037 72.3888 183.938 72.4007 183.882 72.464C183.818 72.5352 183.83 72.642 183.854 72.733C183.981 73.2116 184.395 73.5517 184.805 73.8286C184.904 73.8959 185.008 73.9631 185.127 73.9789C185.246 73.9947 185.624 73.8682 185.413 73.3184" fill="#FF886F"/>
<path d="M204.957 40.1598C204.957 40.1598 200.342 40.6107 197.657 44.1271C195.271 47.2519 193.966 54.3559 193.966 54.3559L198.942 58.074L203.187 50.9977" fill="white"/>
<path d="M200.287 45.8913C196.79 51.247 196.79 65.5222 196.79 65.5222C196.79 65.5222 205.911 68.8092 219.734 65.1623C219.734 65.1623 216.854 50.4321 215.49 49.1189C214.126 47.8057 206.015 38.9297 206.015 38.9297L201.337 42.6439L200.287 45.8913Z" fill="white"/>
<path d="M222.984 75.213C222.996 76.1465 222.936 77.883 222.948 78.8164C222.956 79.3663 223.016 80.3314 223.219 80.3709C223.74 80.4738 223.406 78.8995 223.672 78.9509C223.831 78.9826 223.816 80.1732 223.812 80.7863C223.808 81.3321 223.859 82.0678 224.142 82.139C224.5 82.234 224.512 79.1724 224.512 79.1724C224.512 79.1724 224.611 82.3843 224.917 82.4436C225.359 82.5306 225.264 79.299 225.264 79.299C225.264 79.299 225.391 82.0322 225.717 82.0955C226.043 82.1588 225.908 80.1573 225.972 79.3267C226.047 79.92 226.099 81.4943 226.338 81.5378C226.576 81.5853 226.672 80.4065 226.664 80.1178C226.636 78.3616 226.286 74.9164 226.286 74.9164" fill="#FFA18D"/>
<path d="M219.639 47.9084C219.639 47.9084 223.517 55.8589 224.261 57.6468C226.409 62.8007 226.333 75.4463 226.333 75.4463L223.036 75.5135C223.036 75.5135 219.408 61.0366 219.042 60.5817C217.642 58.8492 212.944 51.5751 212.944 51.5751" fill="#FFA18D"/>
<path d="M206.802 40.1598C206.802 40.1598 213.692 40.4288 217.451 43.158C221.21 45.8873 224.289 54.4073 224.289 54.4073L214.571 58.5922L210.689 50.2225" fill="white"/>
<path d="M210.685 50.2264L214.567 58.5962L224.289 54.4113" stroke="#5A636D" stroke-width="0.75" stroke-miterlimit="10" stroke-linejoin="round"/>
<path d="M205.541 35.3064L207.845 39.4201C207.845 39.4201 207.976 41.2475 205.748 42.0504C204.161 42.62 203.743 40.9864 203.743 40.9864L202.761 36.3071" fill="#FFA18D"/>
<path d="M200.43 29.9982C198.715 32.502 197.872 38.3402 201.333 38.356C204.085 38.3679 205.999 36.2755 206.265 34.0248C206.667 30.7022 202.144 27.4983 200.43 29.9982Z" fill="#FFA18D"/>
<path d="M203.126 38.0436C203.126 38.0436 204.153 37.6757 205.191 36.493" stroke="#E07A6C" stroke-width="0.75" stroke-miterlimit="10" stroke-linejoin="round"/>
<path d="M200.963 33.3604C200.994 33.5265 200.883 33.6887 200.716 33.7204C200.549 33.752 200.386 33.6413 200.354 33.4751C200.322 33.309 200.434 33.1468 200.601 33.1152C200.768 33.0796 200.931 33.1903 200.963 33.3604Z" fill="#33002C"/>
<path d="M200.155 32.5771C200.473 32.4149 200.855 32.3714 201.193 32.4861C201.345 32.5376 201.48 32.6206 201.603 32.7195C201.726 32.8224 201.822 32.945 201.925 33.0636C201.957 33.1032 202.017 33.0597 202.005 33.0162C201.909 32.6721 201.567 32.4229 201.241 32.3121C200.859 32.1816 200.426 32.2449 200.096 32.4782C200.036 32.5178 200.088 32.6088 200.155 32.5771Z" fill="#33002C"/>
<path d="M199.515 33.036C199.515 33.036 198.138 35.0019 198.317 35.2669C198.612 35.702 199.324 35.5675 199.324 35.5675" fill="#FFA18D"/>
<path d="M201.261 36.1688L199.423 35.88C199.423 35.88 199.459 37.2961 200.064 37.3989C201.233 37.6006 201.261 36.1688 201.261 36.1688Z" fill="white"/>
<path d="M207.229 27C205.55 26.1733 203.43 26.375 201.958 27.617C200.824 27.617 199.241 28.2578 198.7 29.8044C198.394 30.6864 198.358 31.7702 199.229 32.6721C199.349 32.2488 199.965 30.6152 200.574 30.0852C201.17 30.5361 202.053 31.5092 202.348 31.9047C202.937 32.6918 203.446 33.5344 203.871 34.4204C204.313 35.342 204.854 36.2082 205.343 37.1101C205.844 38.0317 206.417 38.9296 207.165 39.6732C208.275 40.7847 209.719 41.5125 211.211 42.0188C212.702 42.5251 214.254 42.8218 215.789 43.1777C216.78 43.4111 217.802 43.684 218.59 44.3248C219.111 44.7481 219.735 45.5431 220.117 46.0929C220.598 44.6096 220.547 43.1421 220.137 41.9674C219.731 40.8124 218.932 40.4129 218.705 39.9422C218.16 38.8268 218.566 38.4193 218.391 37.2208C218.247 36.2399 217.694 35.342 216.915 34.7289C215.96 33.9774 214.779 33.831 213.617 33.6293C212.623 33.4552 211.596 33.1269 210.781 32.5178C209.993 31.9284 209.938 30.3542 209.544 29.4958C209.086 28.5109 208.239 27.4983 207.229 27Z" fill="#010101"/>
<path d="M203.187 34.5153C203.441 34.009 203.998 34.0011 204.253 34.0921C204.865 34.3175 205.048 35.0611 204.909 35.698C204.758 36.41 204.328 36.6473 203.986 36.6868C203.644 36.7264 203.314 36.3625 203.27 35.8364" fill="#FFA18D"/>
<path d="M197.319 56.8596C197.319 56.8596 197.828 48.6877 199.001 46.2906" stroke="#5A636D" stroke-width="0.75" stroke-miterlimit="10" stroke-linejoin="round"/>
<path d="M12.6973 43.2252C11.1738 42.4697 9.96454 41.1091 9.3957 39.5111C9.28432 39.2025 9.19681 38.8782 9.18885 38.5499C9.17692 37.9447 9.45139 37.3395 9.9168 36.9519C10.3822 36.5643 11.0306 36.3981 11.6273 36.5168C12.4189 36.675 13.0394 37.2762 13.5526 37.8973C14.026 38.4708 14.4755 39.1907 14.3044 39.9145" fill="#FF886F"/>
<path d="M29.0502 44.5266L25.0087 50.2225L15.4498 39.5032L11.2969 42.2443C11.2969 42.2443 18.3417 60.7954 25.0126 60.7954C29.9929 60.7954 36.9344 48.755 36.9344 48.755" fill="#FF886F"/>
<path d="M43.9475 36.4851C43.9475 36.4851 37.6704 35.6387 33.4698 38.7437C29.2651 41.8487 25.0088 49.0121 25.0088 49.0121L37.384 56.3969L43.9475 47.4853" fill="#173682"/>
<path d="M14.078 32.1737C13.2943 33.214 11.19 35.1482 10.1757 35.9709C9.46361 36.5484 8.50097 36.94 7.86848 37.6006C7.36727 38.1227 7.54627 38.2651 8.07533 38.6725C8.78339 39.2144 9.58693 39.6495 10.4143 39.9818C10.5655 40.0411 10.7286 40.1004 10.8917 40.0767C11.0349 40.0569 11.1622 39.9699 11.2815 39.8868C11.8464 39.4715 12.3197 38.9415 12.7692 38.4075C13.9149 37.0508 16.1465 34.6261 17.0852 33.1191" fill="#4376CF"/>
<path d="M19.36 34.5708C18.5286 35.5873 17.0807 35.7891 16.1339 35.0217C15.1872 34.2544 15.0917 32.8067 15.9271 31.7901C16.7585 30.7736 18.2064 30.5718 19.1532 31.3392C20.0999 32.1065 20.1954 33.5542 19.36 34.5708Z" fill="white"/>
<path d="M15.2315 35.2155L12.6538 33.2298L16.759 28.0403L19.4679 30.3898C19.7424 30.6272 19.7066 30.995 19.5316 31.3075C18.6127 32.9371 17.6103 34.2939 16.1583 35.1482C15.8441 35.3341 15.506 35.4528 15.2315 35.2155Z" fill="#699FED"/>
<path d="M15.6967 31.4499C14.5351 32.866 13.1508 33.657 12.6019 33.2101C12.0529 32.7671 12.5502 31.2561 13.7117 29.84C14.8733 28.424 16.2576 27.6329 16.8065 28.0799C17.3555 28.5268 16.8543 30.0338 15.6967 31.4499Z" fill="#4376CF"/>
<path d="M4.24854 30.5321C4.24854 30.5321 9.86531 31.6554 12.6339 32.7392C13.6443 32.9686 14.774 31.7781 15.3468 31.0661C16.8226 29.2307 16.6237 28.4476 16.6237 28.4476C14.4001 25.8053 12.6061 20.3666 12.6061 20.3666" fill="white"/>
<path d="M10.3742 27.0356C7.66528 30.3305 4.01358 31.8137 2.2116 30.3502C0.409616 28.8867 1.14553 25.0301 3.85447 21.7353C6.56341 18.4404 10.2151 16.9571 12.0171 18.4206C13.8151 19.8841 13.0792 23.7407 10.3742 27.0356Z" fill="#699FED"/>
<path d="M9.5784 26.4067C7.28714 29.1913 4.2719 30.5125 2.84781 29.3496C1.41975 28.1906 2.11986 24.9906 4.41112 22.206C6.70239 19.4214 9.71365 18.1002 11.1417 19.2631C12.5658 20.4221 11.8657 23.6221 9.5784 26.4067Z" fill="#4376CF"/>
<path d="M5.48096 25.0777C6.77775 26.1298 7.66482 27.1661 8.18592 27.8465C8.66327 27.4272 9.13266 26.9446 9.5742 26.4067C10.0157 25.8688 10.3976 25.315 10.7159 24.7652C9.94415 24.3934 8.75078 23.7328 7.45399 22.6807L5.48096 25.0777Z" fill="#1238A7"/>
<path d="M7.12807 24.4132C6.57913 25.0816 5.83924 25.3862 5.47327 25.0895C5.11129 24.7929 5.26245 24.0137 5.81139 23.3452C6.36034 22.6767 7.10023 22.3722 7.46619 22.6688C7.82818 22.9655 7.67702 23.7447 7.12807 24.4132Z" fill="white"/>
<path d="M16.0868 40.7729C15.9198 39.1986 15.3589 37.652 14.3445 36.4772C13.4535 35.4409 12.5664 34.5351 11.198 34.6656C11.011 34.6854 10.7803 34.7764 10.7883 34.9623C10.7923 35.077 10.8917 35.1601 10.9832 35.2313C11.6236 35.7059 12.2521 36.3507 12.4431 37.1497C12.5425 37.565 12.5067 37.9961 12.5425 38.4194C12.63 39.515 13.1989 40.5632 14.0661 41.2396" fill="#FF886F"/>
<path d="M8.58457 37.0153C8.57264 36.7423 8.49308 36.5327 8.5806 36.2756C8.6164 36.1688 8.75562 36.0304 8.84314 35.9631C8.93861 35.888 9.07385 35.8682 9.19319 35.8919C9.31651 35.9157 9.42789 35.971 9.53131 36.0383C9.99274 36.3191 10.3945 36.7542 10.478 37.2842C10.482 37.3159 10.486 37.3515 10.4741 37.3831C10.4621 37.4108 10.4422 37.4306 10.4184 37.4464C10.2831 37.5453 10.1041 37.5928 9.93705 37.5928C9.54722 37.5928 8.89087 36.948 8.84314 36.8452" fill="#FF886F"/>
<path d="M9.18534 36.3902C9.1734 36.1173 9.2092 35.8444 9.29672 35.5833C9.33252 35.4765 9.38025 35.3697 9.46776 35.3025C9.56323 35.2273 9.69848 35.2075 9.81782 35.2313C9.94113 35.255 10.0525 35.3104 10.1559 35.3737C10.6174 35.6545 11.0191 36.0896 11.1027 36.6197C11.1067 36.6513 11.1106 36.6869 11.0987 36.7185C11.0868 36.7462 11.0669 36.766 11.043 36.7818C10.9078 36.8807 10.7248 36.8886 10.5617 36.8412C10.4026 36.7937 10.2594 36.7027 10.1201 36.6117C9.96898 36.5129 9.81384 36.41 9.66268 36.3111C9.56721 36.2478 9.47174 36.1806 9.42401 36.0817" fill="#FF886F"/>
<path d="M9.80936 35.7336C9.79743 35.4607 9.83323 35.1878 9.92074 34.9267C9.95654 34.8199 10.0043 34.7131 10.0918 34.6459C10.1873 34.5707 10.3225 34.5509 10.4418 34.5747C10.5652 34.5984 10.6765 34.6538 10.78 34.7171C11.2414 34.9979 11.6432 35.433 11.7267 35.963C11.7307 35.9947 11.7347 36.0303 11.7227 36.0619C11.7108 36.0896 11.6909 36.1094 11.667 36.1252C11.5318 36.2241 11.3488 36.232 11.1857 36.1845C11.0266 36.1371 10.8834 36.0461 10.7442 35.9551C10.593 35.8562 10.4379 35.7534 10.2867 35.6545C10.1912 35.5912 10.0958 35.524 10.048 35.4251" fill="#FF886F"/>
<path d="M10.4378 35.0771C10.4258 34.8042 10.4616 34.5313 10.5492 34.2702C10.585 34.1634 10.6327 34.0566 10.7202 33.9894C10.8157 33.9142 10.9509 33.8944 11.0703 33.9182C11.1936 33.9419 11.305 33.9973 11.4084 34.0645C11.8698 34.3454 12.2716 34.7805 12.3551 35.3105C12.3591 35.3421 12.3631 35.3777 12.3511 35.4094C12.3392 35.4371 12.3193 35.4568 12.2955 35.4727C12.1602 35.5716 11.9772 35.5795 11.8141 35.532C11.655 35.4845 11.5118 35.3936 11.3726 35.3026C11.2214 35.2037 11.0663 35.1009 10.9151 35.002C10.8197 34.9387 10.7242 34.8714 10.6765 34.7726" fill="#FF886F"/>
<path d="M12.6055 37.7351C12.6055 37.7351 12.6134 40.4169 13.4368 41.2396" stroke="#D85039" stroke-width="0.75" stroke-miterlimit="10" stroke-linejoin="round"/>
<path d="M47.4836 140.549V139.833H36.4847C36.0312 139.833 35.6096 139.596 35.3789 139.208L35.2993 139.193V140.34C35.2993 140.383 35.3152 140.423 35.3431 140.454L35.3709 140.482C35.5579 140.68 35.8204 140.794 36.0949 140.794H47.229C47.3682 140.802 47.4836 140.688 47.4836 140.549Z" fill="#010101"/>
<path d="M46.5488 126.709L47.1415 135.866L46.8352 139.588H36.1943C35.896 139.588 35.6533 139.347 35.6533 139.05C35.6533 138.829 35.7925 138.627 35.9994 138.548L41.0951 135.494L39.1976 126.523" fill="#FF886F"/>
<path d="M41.0951 135.49L35.6812 138.532C35.4505 138.631 35.2993 138.884 35.2993 139.161C35.2993 139.533 35.6852 139.837 36.0153 139.837H47.4836L47.1534 135.747C47.1534 135.747 43.6171 136.898 41.0951 135.49Z" fill="#173682"/>
<path d="M40.0811 135.735C40.3953 136.139 40.6658 136.582 40.8766 137.049" stroke="#010101" stroke-miterlimit="10" stroke-linecap="round" stroke-linejoin="round"/>
<path d="M39.3765 136.159C39.7026 136.606 39.8339 136.863 40.0328 137.278" stroke="#010101" stroke-miterlimit="10" stroke-linecap="round" stroke-linejoin="round"/>
<path d="M38.7798 136.467C39.0025 136.76 39.2014 137.167 39.3765 137.492" stroke="#010101" stroke-miterlimit="10" stroke-linecap="round" stroke-linejoin="round"/>
<path d="M66.8039 140.549V139.833H55.805C55.3516 139.833 54.9299 139.596 54.6992 139.208L54.6196 139.193V140.34C54.6196 140.383 54.6355 140.423 54.6634 140.454L54.6912 140.482C54.8782 140.68 55.1407 140.794 55.4152 140.794H66.5493C66.6885 140.802 66.8039 140.688 66.8039 140.549Z" fill="#010101"/>
<path d="M65.8695 126.709L66.4622 135.866L66.1559 139.588H55.5151C55.2168 139.588 54.9741 139.347 54.9741 139.05C54.9741 138.829 55.1134 138.627 55.3202 138.548L60.4159 135.494L58.5184 126.523" fill="#FF886F"/>
<path d="M60.4154 135.49L55.0015 138.532C54.7708 138.631 54.6196 138.884 54.6196 139.161C54.6196 139.533 55.0055 139.837 55.3356 139.837H66.8039L66.4737 135.747C66.4737 135.747 62.9374 136.898 60.4154 135.49Z" fill="#173682"/>
<path d="M59.4014 135.735C59.7156 136.139 59.9861 136.582 60.1969 137.049" stroke="#010101" stroke-miterlimit="10" stroke-linecap="round" stroke-linejoin="round"/>
<path d="M58.6968 136.159C59.023 136.606 59.1542 136.863 59.3531 137.278" stroke="#010101" stroke-miterlimit="10" stroke-linecap="round" stroke-linejoin="round"/>
<path d="M58.1001 136.467C58.3229 136.76 58.5218 137.167 58.6928 137.492" stroke="#010101" stroke-miterlimit="10" stroke-linecap="round" stroke-linejoin="round"/>
<path d="M43.9792 68.7972C43.9792 68.7972 43.0086 76.2019 43.9792 82.9617C44.9498 89.7216 57.0506 132.599 57.0506 132.599H69.9349L62.7907 84.1048C62.7907 84.1048 63.3356 76.7398 58.952 70.4783" fill="#222256"/>
<path d="M33.7798 70.4744C33.7798 70.4744 33.2189 80.4184 33.6047 91.3473C34.2492 109.447 37.3081 132.599 37.3081 132.599H49.5242L48.9355 85.4418C48.9355 85.4418 51.4933 74.3309 49.0111 69.2284" fill="#222256"/>
<path d="M49.1661 104.653C49.1661 104.653 44.9257 83.3809 43.5493 74.4574" stroke="#4376CF" stroke-width="0.75" stroke-miterlimit="10" stroke-linejoin="round"/>
<path d="M42.4478 74.4574L43.3746 80.0306C43.486 80.4934 43.8162 80.8771 44.2617 81.0472L44.6634 81.2014" stroke="#4376CF" stroke-width="0.75" stroke-miterlimit="10" stroke-linejoin="round"/>
<path d="M56.2075 129.597H69.4936" stroke="#4376CF" stroke-width="0.75" stroke-miterlimit="10" stroke-linejoin="round"/>
<path d="M67.9538 132.599L59.8508 83.9308C59.8508 83.9308 60.3441 77.1749 57.4243 73.2393" stroke="#4376CF" stroke-width="0.75" stroke-miterlimit="10" stroke-linejoin="round"/>
<path d="M52.4678 74.4893C52.4678 74.4893 53.6611 76.7953 54.763 77.1711C55.8649 77.5468 59.4808 78.3893 59.4808 78.3893" stroke="#4376CF" stroke-width="0.75" stroke-miterlimit="10" stroke-linejoin="round"/>
<path d="M33.688 78.3892C33.688 78.3892 36.56 77.5507 37.3715 77.1709C38.4018 76.6923 38.4893 74.0382 38.4893 74.0382" stroke="#4376CF" stroke-width="0.75" stroke-miterlimit="10" stroke-linejoin="round"/>
<path d="M49.5048 129.597H36.9307" stroke="#4376CF" stroke-width="0.75" stroke-miterlimit="10" stroke-linejoin="round"/>
<path d="M47.7303 132.599C47.7303 132.599 46.3579 95.7419 46.3579 90.7224" stroke="#4376CF" stroke-width="0.75" stroke-miterlimit="10" stroke-linejoin="round"/>
<path d="M39.5677 38.0475C39.5677 38.0475 34.4521 41.8922 33.6884 52.1289C32.9485 62.0215 32.7456 73.7652 32.7456 73.7652C44.7708 77.5071 62.6593 73.6386 62.6593 73.6386C62.6593 73.6386 59.5208 47.5485 54.62 39.8393L45.8726 35.8997L39.5677 38.0475Z" fill="#173682"/>
<path d="M53.6421 49.8467C53.6421 49.8467 57.2779 54.609 61.3512 60.0359C64.5693 64.3236 78.9574 74.4891 78.9574 74.4891L81.4117 70.2133L69.8599 56.1517L61.1484 43.8225" fill="#FF886F"/>
<path d="M80.8191 69.7623C81.7141 70.4624 83.4366 71.6649 84.3276 72.365C84.8527 72.7764 85.7358 73.5596 85.6125 73.8404C85.2942 74.5524 84.0452 72.99 83.8821 73.3539C83.7866 73.5714 84.9482 74.4298 85.5448 74.8688C86.0779 75.2604 86.7422 75.8695 86.591 76.2651C86.3961 76.7753 83.4286 74.5405 83.4286 74.5405C83.4286 74.5405 86.4518 77.0206 86.2648 77.4398C85.9983 78.0411 82.9513 75.5571 82.9513 75.5571C82.9513 75.5571 85.4931 77.7167 85.2942 78.1637C85.0953 78.6107 83.2695 76.9771 82.4182 76.4391C82.9354 76.9652 84.4072 78.1874 84.264 78.5118C84.1208 78.8361 82.9075 78.0885 82.6291 77.871C80.9544 76.5499 77.9033 73.5912 77.9033 73.5912" fill="#FF886F"/>
<path d="M80.3257 71.4237C80.3257 71.4237 81.3122 72.8991 82.7085 72.9505" stroke="#D85039" stroke-width="0.75" stroke-miterlimit="10" stroke-linejoin="round"/>
<path d="M46.9951 36.4139C46.9951 36.4139 55.1498 35.9353 58.6941 39.4596C62.2384 42.9839 64.5177 47.4813 64.5177 47.4813L55.6072 54.9571L50.8656 46.7337" fill="#173682"/>
<path d="M55.6072 54.9571L50.603 47.8016" stroke="#010101" stroke-width="0.75" stroke-miterlimit="10" stroke-linejoin="round"/>
<path d="M41.354 36.3942C41.5211 36.5603 40.9522 39.0799 44.9421 39.0799C48.7728 39.0799 49.7672 36.4851 49.7672 36.4851" stroke="#010101" stroke-width="0.75" stroke-miterlimit="10" stroke-linejoin="round"/>
<path d="M33.4385 54.0394L34.4807 43.4705" stroke="#010101" stroke-width="0.75" stroke-miterlimit="10" stroke-linejoin="round"/>
<path d="M42.7182 32.1934L46.875 27.3361L48.5458 32.1261L48.6532 33.1783L48.502 36.8766C48.502 36.8766 45.1606 39.2538 42.6386 37.3038C42.4954 37.193 42.4238 37.0111 42.4318 36.8291L42.7182 32.1934Z" fill="#FF886F"/>
<path d="M43.6612 23.8988C42.2928 25.4098 39.7271 30.722 40.8727 32.8183C41.907 34.713 44.0709 34.6576 45.4513 34.0208C46.6486 33.467 49.8787 28.8708 49.1984 27.0038C48.5222 25.1369 45.5786 21.7787 43.6612 23.8988Z" fill="#FF886F"/>
<path d="M48.8841 23.8751C48.4267 22.7636 47.1339 22.0991 45.8411 22.02C45.1847 21.9804 41.5529 22.5856 41.354 25.2002L45.9684 26.3551C46.2309 27.704 46.4457 29.5788 47.0265 30.8209C47.0901 30.9593 48.4386 33.645 48.5977 33.5066C51.3862 31.7108 52.8302 29.4325 52.0983 27.2412C51.7045 26.0664 50.7458 24.1678 48.8841 23.8751Z" fill="#010101"/>
<path d="M42.7939 34.3609C42.7939 34.3609 44.7829 34.5943 45.9325 33.5817" stroke="#D85039" stroke-width="0.75" stroke-miterlimit="10" stroke-linejoin="round"/>
<path d="M42.1457 27.704C42.1457 27.704 39.7868 28.946 39.8545 29.5235C39.9181 30.101 40.8131 30.2315 40.8131 30.2315" fill="#FF886F"/>
<path d="M42.9057 27.7356C42.8102 27.8266 42.7426 27.9808 42.6909 28.0678C42.5954 28.2221 42.7267 28.4001 42.8977 28.4278C43.2159 28.4792 43.4984 27.8107 43.1404 27.6763C43.0449 27.6407 42.9693 27.6723 42.9057 27.7356Z" fill="#010101"/>
<path d="M41.4735 31.0385L43.7846 31.4933C43.7846 31.4933 43.0766 33.0636 41.74 32.6681C40.9285 32.4308 41.4735 31.0385 41.4735 31.0385Z" fill="white"/>
<path d="M42.7979 27C43.2435 27.2333 43.677 27.5854 43.9873 27.9572C44.043 27.9572 44.2697 27.8029 44.2697 27.6407C44.2658 27.5142 43.685 26.9129 43.0406 26.6005C43.0366 26.6044 42.7383 26.8971 42.7979 27Z" fill="#010101"/>
<path d="M46.565 30.0731C46.8951 29.8477 47.3049 29.6143 47.647 29.7488C47.826 29.82 47.9453 29.9822 48.009 30.1602C48.3312 31.0818 47.7862 32.2605 46.8156 32.5255C46.4098 32.6363 45.9643 32.5572 45.8848 32.0746L46.4019 30.263C46.4138 30.1839 46.4934 30.1246 46.565 30.0731Z" fill="#FF886F"/>
<path d="M47.281 32.316C47.281 32.316 46.4615 32.7669 45.9404 32.2606" stroke="#D85039" stroke-width="0.75" stroke-miterlimit="10" stroke-linejoin="round"/>
</g>
<defs>
<clipPath id="clip0">
<rect width="254" height="141" fill="white"/>
</clipPath>
</defs>
</svg>
