<svg width="24" height="24" viewBox="0 0 24 24" fill="none" xmlns="http://www.w3.org/2000/svg">
<path d="M15 16H9C8.73478 16 8.48043 16.1054 8.29289 16.2929C8.10536 16.4804 8 16.7348 8 17C8 17.2652 8.10536 17.5196 8.29289 17.7071C8.48043 17.8946 8.73478 18 9 18H15C15.2652 18 15.5196 17.8946 15.7071 17.7071C15.8946 17.5196 16 17.2652 16 17C16 16.7348 15.8946 16.4804 15.7071 16.2929C15.5196 16.1054 15.2652 16 15 16Z" fill="#6C6D6D"/>
<path d="M9 14H12C12.2652 14 12.5196 13.8946 12.7071 13.7071C12.8946 13.5196 13 13.2652 13 13C13 12.7348 12.8946 12.4804 12.7071 12.2929C12.5196 12.1054 12.2652 12 12 12H9C8.73478 12 8.48043 12.1054 8.29289 12.2929C8.10536 12.4804 8 12.7348 8 13C8 13.2652 8.10536 13.5196 8.29289 13.7071C8.48043 13.8946 8.73478 14 9 14Z" fill="#6C6D6D"/>
<path d="M19.74 8.33006L14.3 2.33006C14.2065 2.22647 14.0924 2.14359 13.9649 2.08675C13.8375 2.02992 13.6995 2.00039 13.56 2.00006H6.56C6.22775 1.99609 5.89797 2.05762 5.5895 2.18111C5.28103 2.30461 4.9999 2.48766 4.76218 2.71981C4.52446 2.95196 4.33479 3.22867 4.20402 3.53412C4.07324 3.83958 4.00392 4.16781 4 4.50006V19.5001C4.00392 19.8323 4.07324 20.1605 4.20402 20.466C4.33479 20.7714 4.52446 21.0482 4.76218 21.2803C4.9999 21.5125 5.28103 21.6955 5.5895 21.819C5.89797 21.9425 6.22775 22.004 6.56 22.0001H17.44C17.7723 22.004 18.102 21.9425 18.4105 21.819C18.719 21.6955 19.0001 21.5125 19.2378 21.2803C19.4755 21.0482 19.6652 20.7714 19.796 20.466C19.9268 20.1605 19.9961 19.8323 20 19.5001V9.00006C19.9994 8.75222 19.9067 8.51346 19.74 8.33006ZM14 5.00006L16.74 8.00006H14.74C14.6353 7.99374 14.5329 7.96662 14.4387 7.92029C14.3446 7.87396 14.2607 7.80935 14.1918 7.73022C14.1229 7.6511 14.0704 7.55904 14.0375 7.45943C14.0046 7.35982 13.9918 7.25465 14 7.15006V5.00006ZM17.44 20.0001H6.56C6.49037 20.0041 6.42063 19.9944 6.35477 19.9714C6.28892 19.9485 6.22824 19.9128 6.17621 19.8663C6.12419 19.8199 6.08184 19.7636 6.0516 19.7007C6.02137 19.6379 6.00383 19.5697 6 19.5001V4.50006C6.00383 4.43042 6.02137 4.36222 6.0516 4.29937C6.08184 4.23653 6.12419 4.18027 6.17621 4.13382C6.22824 4.08737 6.28892 4.05164 6.35477 4.02869C6.42063 4.00573 6.49037 3.996 6.56 4.00006H12V7.15006C11.9839 7.88668 12.2598 8.59978 12.7675 9.13373C13.2752 9.66767 13.9735 9.97911 14.71 10.0001H18V19.5001C17.9962 19.5697 17.9786 19.6379 17.9484 19.7007C17.9182 19.7636 17.8758 19.8199 17.8238 19.8663C17.7718 19.9128 17.7111 19.9485 17.6452 19.9714C17.5794 19.9944 17.5096 20.0041 17.44 20.0001Z" fill="#6C6D6D"/>
</svg>
