<svg width="291" height="206" viewBox="0 0 291 206" fill="none" xmlns="http://www.w3.org/2000/svg">
<path d="M291 183.626C291 195.986 225.824 206 145.471 206C65.1185 206 0 195.986 0 183.626C0 180.25 4.81086 177.103 13.4017 174.242C23.2525 170.98 38.1433 168.119 56.4704 165.945C81.0974 163.026 111.967 161.252 145.471 161.252C184.416 161.252 219.811 163.599 245.927 167.432C259.615 169.435 270.783 171.839 278.572 174.585C286.59 177.275 291 180.365 291 183.626Z" fill="#ABDAF7"/>
<path d="M145.529 197.188C204.362 197.188 252.055 189.835 252.055 180.765C252.055 171.695 204.362 164.342 145.529 164.342C86.6959 164.342 39.0024 171.695 39.0024 180.765C39.0024 189.835 86.6959 197.188 145.529 197.188Z" fill="#70B2DD"/>
<path d="M145.529 189.634C185.004 189.634 217.004 184.716 217.004 178.648C217.004 172.58 185.004 167.661 145.529 167.661C106.054 167.661 74.053 172.58 74.053 178.648C74.053 184.716 106.054 189.634 145.529 189.634Z" fill="#4E8FB7"/>
<path d="M53.7784 104.774H17.5251V173.326H53.7784V104.774Z" fill="#70B2DD"/>
<path d="M34.8214 110.382H21.0188V163.599H34.8214V110.382Z" fill="#4E8FB7"/>
<path d="M50.2276 110.382H36.425V163.599H50.2276V110.382Z" fill="#4E8FB7"/>
<path d="M33.2177 132.184H31.6714V146.375H33.2177V132.184Z" fill="#ABDAF7"/>
<path d="M39.5178 132.184H37.9714V146.375H39.5178V132.184Z" fill="#ABDAF7"/>
<path d="M39.0022 75.5908H37.0549V91.8992H39.0022V75.5908Z" fill="#4E8FB7"/>
<path d="M27.6624 76.3917L31.5569 60.77H44.0422L48.3949 76.3917H27.6624Z" fill="#70B2DD"/>
<path d="M42.8968 86.9204H33.1605C30.2969 86.9204 27.9487 89.2665 27.9487 92.1276V96.8771C27.9487 101.226 31.4996 104.774 35.8523 104.774H40.205C44.5577 104.774 48.1085 101.226 48.1085 96.8771V92.1276C48.1085 89.2665 45.7604 86.9204 42.8968 86.9204Z" fill="#ABDAF7"/>
<path opacity="0.35" d="M59.1623 179.277H10.9963L15.8645 173.269C25.7153 170.007 36.1961 168.405 54.5805 166.173L59.1623 179.277Z" fill="#4E8FB7"/>
<path opacity="0.35" d="M278.572 174.528C277.026 178.133 268.664 180.879 258.584 180.879C247.416 180.879 238.31 177.503 238.31 173.326C238.31 170.923 241.288 168.805 245.984 167.432C259.615 169.435 270.783 171.838 278.572 174.528Z" fill="#4E8FB7"/>
<path d="M259.386 116.504C259.386 116.504 256.809 105.632 262.765 97.3347C268.721 89.0375 263.166 84.8603 272.158 80.5114C281.092 76.1625 283.498 69.6392 283.498 69.6392C283.498 69.6392 286.59 85.2608 280.978 90.468C275.365 95.6753 272.673 95.6753 273.704 104.316C274.735 112.899 259.386 116.504 259.386 116.504Z" fill="#70B2DD"/>
<path d="M255.95 144.028C255.778 144.028 255.663 143.857 255.663 143.685C255.033 130.524 254.632 123.257 261.39 111.355C267.977 99.7956 271.47 94.474 271.528 94.4167C271.642 94.2451 271.814 94.2451 271.986 94.3023C272.158 94.4167 272.158 94.5884 272.1 94.7601C272.043 94.8173 268.549 100.139 262.02 111.698C255.377 123.428 255.72 130.638 256.35 143.685C256.293 143.857 256.121 144.028 255.95 144.028Z" fill="#ABDAF7"/>
<path d="M248.905 135.616C248.905 135.616 241.288 135.044 238.081 129.15C234.931 123.256 231.494 124.344 230.292 119.709C229.089 115.074 225.767 110.896 225.767 110.896C225.767 110.896 234.873 110.381 237.794 117.305C240.715 124.229 249.821 118.049 248.905 135.616Z" fill="#4E8FB7"/>
<path d="M250.738 143.342C250.566 143.342 250.451 143.284 250.394 143.113C245.125 127.72 238.882 122.913 238.825 122.856C238.653 122.742 238.653 122.513 238.768 122.398C238.882 122.227 239.111 122.227 239.226 122.341C239.512 122.513 245.64 127.262 251.024 142.884C251.081 143.055 250.967 143.227 250.795 143.284C250.738 143.342 250.738 143.342 250.738 143.342Z" fill="#70B2DD"/>
<path d="M256.751 121.254C256.751 121.254 249.879 119.652 247.76 111.755C245.64 103.858 238.138 106.09 238.653 97.4493C239.169 88.8088 240.715 85.4899 239.341 78.1654C238.023 70.7838 242.09 68.0371 242.09 68.0371C242.09 68.0371 242.147 76.2199 249.077 81.4271C256.064 86.6343 254.575 90.6971 255.377 95.561C256.179 100.368 260.703 100.139 260.932 106.891C261.161 113.586 256.751 121.254 256.751 121.254Z" fill="#4E8FB7"/>
<path d="M258.183 143.17C258.011 143.17 257.84 142.998 257.84 142.827C258.699 119.48 248.332 92.4138 248.218 92.1277C248.16 91.956 248.218 91.7843 248.39 91.6699C248.561 91.6127 248.733 91.6699 248.848 91.8416C248.962 92.1277 259.386 119.308 258.527 142.769C258.469 143.055 258.355 143.17 258.183 143.17Z" fill="#70B2DD"/>
<path d="M248.504 125.202C248.504 125.202 246.843 125.202 244.438 122.284C243.121 120.739 242.204 117.191 239.856 114.902C233.155 108.321 237.794 102.313 235.446 96.877C235.503 96.877 253.716 107.291 248.504 125.202Z" fill="#70B2DD"/>
<path d="M253.372 141.739C253.201 141.739 253.086 141.625 253.029 141.453C250.566 128.464 242.204 110.381 242.147 110.21C242.09 110.038 242.147 109.866 242.319 109.752C242.491 109.695 242.662 109.752 242.777 109.924C242.834 110.095 251.253 128.235 253.716 141.339C253.773 141.51 253.659 141.682 253.43 141.739H253.372Z" fill="#ABDAF7"/>
<path d="M263.624 131.782C263.166 131.897 256.751 117.305 265.629 112.499C274.506 107.749 274.62 106.719 276.911 101.741C279.202 96.7624 284.872 98.193 284.872 98.193C284.872 98.193 280.634 99.1658 280.977 104.945C281.321 110.725 281.092 112.727 276.453 117.076C271.814 121.482 280.577 126.461 263.624 131.782Z" fill="#ABDAF7"/>
<path d="M264.54 141.282C264.369 141.282 264.254 141.167 264.197 140.995C261.62 127.319 269.638 116.218 269.752 116.104C269.867 115.932 270.096 115.932 270.21 116.047C270.382 116.161 270.382 116.39 270.268 116.504C270.21 116.619 262.364 127.491 264.827 140.881C264.884 141.053 264.77 141.224 264.54 141.282Z" fill="#CDE9F7"/>
<path d="M260.703 177.16H252.341C250.566 177.16 249.134 175.844 248.962 174.07L246.099 140.194H266.659L264.082 174.013C263.91 175.787 262.478 177.16 260.703 177.16Z" fill="#70B2DD"/>
<path d="M112.311 9.15576L111.222 47.4946H177.945L177.085 9.15576H112.311Z" fill="#CEE8F4"/>
<path d="M177.085 9.15576H112.311V46.4646H177.085V9.15576Z" fill="white"/>
<path d="M174.222 11.6162H115.174V43.5462H174.222V11.6162Z" fill="#CEE8F4"/>
<path d="M197.646 11.1011L196.787 45.5489H213.568L212.709 11.1011H197.646Z" fill="#CEE8F4"/>
<path d="M212.652 11.1011H197.646V44.5189H212.652V11.1011Z" fill="white"/>
<path d="M211.22 12.8179H199.078V42.7451H211.22V12.8179Z" fill="#CEE8F4"/>
<path d="M218.092 11.1011L217.176 45.5489H234.014L233.098 11.1011H218.092Z" fill="#CEE8F4"/>
<path d="M233.098 11.1011H218.093V44.5189H233.098V11.1011Z" fill="white"/>
<path d="M231.609 12.8179H219.467V42.7451H231.609V12.8179Z" fill="#CEE8F4"/>
<path d="M238.424 11.1011L237.508 45.5489H254.289L253.429 11.1011H238.424Z" fill="#CEE8F4"/>
<path d="M253.43 11.1011H238.424V44.5189H253.43V11.1011Z" fill="white"/>
<path d="M251.941 12.8179H239.799V42.7451H251.941V12.8179Z" fill="#CEE8F4"/>
<path d="M48.3949 17.1094L47.6504 20.1994H86.1373L85.45 17.1094H48.3949Z" fill="#CEE8F4"/>
<path d="M85.4501 17.1094H48.395V19.4555H85.4501V17.1094Z" fill="white"/>
<path d="M53.7785 0H51.0867V17.1094H53.7785V0Z" fill="#CEE8F4"/>
<path d="M56.4704 2.80371H53.7786V17.1093H56.4704V2.80371Z" fill="#A7D0DB"/>
<path d="M59.1623 5.72217H56.4705V17.1094H59.1623V5.72217Z" fill="#CEE8F4"/>
<path d="M79.6416 17.0957V14.4062L64.6936 14.4062V17.0957L79.6416 17.0957Z" fill="#CEE8F4"/>
<path d="M48.3949 39.7695L47.6504 42.8023H86.1373L85.45 39.7695H48.3949Z" fill="#CEE8F4"/>
<path d="M85.4501 39.7695H48.395V42.1156H85.4501V39.7695Z" fill="white"/>
<path d="M53.7785 28.3823H51.0867V39.7695H53.7785V28.3823Z" fill="#CEE8F4"/>
<path d="M56.4704 25.4639H53.7786V39.7694H56.4704V25.4639Z" fill="#A7D0DB"/>
<path d="M59.1623 28.3823H56.4705V39.7695H59.1623V28.3823Z" fill="#CEE8F4"/>
<path d="M80.8508 39.7573V37.0679H65.2728V39.7573H80.8508Z" fill="#A7D0DB"/>
<path d="M81.8059 39.499L82.1816 36.8359L64.261 34.3117L63.8852 36.9747L81.8059 39.499Z" fill="#CEE8F4"/>
<path opacity="0.35" d="M75.943 177.16H97.7065C97.7065 177.16 88.5429 178.248 93.6401 180.765C98.7374 183.283 121.99 183.97 127.832 181.509C133.616 179.049 122.734 177.103 122.734 177.103H143.811C143.811 177.103 148.621 181.509 162.138 181.681C180.637 181.853 182.927 177.046 182.927 177.046H206.18C206.18 177.046 210.762 177.046 218.78 177.046H227.313L206.982 163.542H83.102L64.6604 177.16H75.943Z" fill="#4E8FB7"/>
<path d="M212.308 167.204H75.3703C74.3394 167.204 73.5376 166.403 73.5376 165.373C73.5376 164.343 74.3394 163.542 75.3703 163.542H212.308C213.339 163.542 214.141 164.343 214.141 165.373C214.141 166.403 213.339 167.204 212.308 167.204Z" fill="#4E8FB7"/>
<path d="M234.186 112.156L227.657 135.617H60.3076L59.1621 114.33L63.7439 96.5915C65.0039 91.9565 69.1847 88.6948 74.0529 88.6948H218.608C221.185 88.6948 223.648 89.6104 225.538 91.1554C226.97 92.357 228.115 93.902 228.86 95.6759C228.974 95.962 229.031 96.2482 229.146 96.5343L234.186 112.156Z" fill="#70B2DD"/>
<path opacity="0.35" d="M112.826 89.3815C112.826 89.3815 103.72 108.723 115.461 123.257H92.3799V88.6948L112.826 89.3815Z" fill="#4E8FB7"/>
<path opacity="0.35" d="M228.86 95.6759C227.027 97.6787 224.335 100.254 222.56 100.597C219.696 101.055 215.687 101.055 215.687 101.055L207.096 130.81L193.122 104.202C174.05 103.573 160.076 93.387 154.635 88.6948H162.767L191.461 94.932L207.096 90.6976L218.722 94.4743L225.538 91.2126C226.97 92.357 228.115 93.902 228.86 95.6759Z" fill="#4E8FB7"/>
<path d="M220.269 135.617L206.18 163.542H77.3747L67.3521 135.617H220.269Z" fill="#70B2DD"/>
<path opacity="0.35" d="M144.498 163.542H136.594L126.056 147.977C123.593 144.315 119.699 141.854 115.403 141.168L107.443 139.852V163.542H95.5872L92.0936 143.857L83.3882 135.617H124.853L144.498 163.542Z" fill="#4E8FB7"/>
<path opacity="0.35" d="M199.937 135.617L189.227 137.734L183.328 163.542H177.601L174.68 142.312L157.957 154.901L167.12 135.617H199.937Z" fill="#4E8FB7"/>
<path d="M225.824 127.148H64.6604V135.617H225.824V127.148Z" fill="#4E8FB7"/>
<path d="M87.7981 163.541H80.1809C74.1674 163.541 68.6692 160.108 66.1493 154.786L56.0121 133.214L53.7212 128.292L57.4439 122.799L63.2284 114.273L87.7981 163.541Z" fill="#ABDAF7"/>
<path d="M56.0695 133.271L53.7786 128.35L57.5013 122.857L64.4312 120.339C64.4312 120.339 66.6648 130.639 56.0695 133.271Z" fill="#70B2DD"/>
<path d="M54.8095 128.407C60.1867 128.407 64.5458 124.205 64.5458 119.023C64.5458 113.84 60.1867 109.638 54.8095 109.638C49.4323 109.638 45.0732 113.84 45.0732 119.023C45.0732 124.205 49.4323 128.407 54.8095 128.407Z" fill="#ABDAF7"/>
<path d="M199.479 163.541H206.924C212.823 163.541 218.207 160.165 220.612 154.901L230.521 133.557L232.754 128.693L229.089 123.257L223.476 114.845L199.479 163.541Z" fill="#ABDAF7"/>
<path d="M230.578 133.557L232.812 128.693L229.146 123.257L222.331 120.739C222.331 120.739 220.154 130.982 230.578 133.557Z" fill="#70B2DD"/>
<path d="M231.781 128.75C237.031 128.75 241.288 124.574 241.288 119.423C241.288 114.272 237.031 110.096 231.781 110.096C226.53 110.096 222.273 114.272 222.273 119.423C222.273 124.574 226.53 128.75 231.781 128.75Z" fill="#ABDAF7"/>
<path d="M79.8376 167.204L75.9431 177.16H77.5467C78.9785 177.16 80.2385 176.416 80.9831 175.215L85.9085 167.204H79.8376Z" fill="#336A89"/>
<path d="M208.929 167.204L212.824 177.16H211.22C209.788 177.16 208.528 176.416 207.784 175.215L202.858 167.204H208.929Z" fill="#336A89"/>
<path d="M132.184 88.6945H140.718C140.718 88.6945 139.171 85.5473 137.511 84.975C135.85 84.4028 134.074 84.8034 134.074 84.8034L132.012 84.1167L132.184 88.6945Z" fill="#F49D8C"/>
<path d="M132.642 87.7216C132.585 87.9505 132.528 88.1794 132.471 88.3511C132.184 89.1522 131.955 89.5528 131.955 89.5528C116.663 88.6372 107.328 89.7816 107.328 89.7816L102.403 93.2722L100.742 94.4166C100.627 98.0216 100.856 101.169 101.2 103.916C102.746 114.902 107.271 119.194 107.271 119.194C89.1155 118.107 73.5948 129.379 73.5948 129.379L73.0221 121.139L72.5639 114.444C71.7621 114.673 71.0748 114.788 70.4448 114.731C62.8276 114.387 66.1494 95.8472 69.7575 88.065C70.1584 87.1494 70.6166 86.4055 71.0175 85.8333C71.4184 85.3183 71.8193 84.8033 72.3348 84.3455C75.5993 81.2555 80.8111 79.9966 83.7892 79.5389C85.221 79.31 86.1374 79.2528 86.1374 79.2528C89.0583 78.9666 92.2082 78.8522 95.3582 78.8522C113.284 78.795 132.929 82.6289 132.929 82.6289C133.101 84.975 132.929 86.6344 132.642 87.7216Z" fill="url(#paint0_linear)"/>
<path d="M101.2 103.915C101.2 103.915 101.2 103.973 101.2 103.915C101.2 104.259 101.028 108.321 93.0672 106.948C93.0672 106.948 82.4718 117.134 73.0792 121.139L72.621 114.444C71.8192 114.673 71.1319 114.788 70.5019 114.73C62.8847 114.387 66.2065 95.847 69.8147 88.0648L75.2555 84.3454C75.2555 84.3454 78.4628 83.9448 78.8064 91.6126C79.2073 99.2804 79.2646 100.31 79.2646 100.31L89.9172 98.6509L101.2 103.915Z" fill="#3150BC"/>
<path d="M96.3318 86.5774C95.4154 88.8091 88.2564 89.3241 84.8201 85.5474C82.0137 82.4574 83.331 80.2257 83.7892 79.6535C85.221 79.4246 86.1373 79.3674 86.1373 79.3674C89.0582 79.0813 90.7764 79.3674 93.9263 79.3674C93.0673 81.7707 97.1336 84.6318 96.3318 86.5774Z" fill="#7897F9"/>
<path d="M132.47 88.4082C132.184 89.2094 131.955 89.6099 131.955 89.6099C116.663 88.6944 107.328 89.8388 107.328 89.8388L102.403 93.3294L100.742 94.4738L108.073 87.6643C108.073 87.6071 118.553 85.8905 132.47 88.4082Z" fill="#3150BC"/>
<path d="M132.642 87.7215C132.585 87.9504 132.528 88.1793 132.471 88.351C121.016 86.6343 109.39 87.4926 108.13 87.6071L102.403 93.2721L101.028 94.6454L100.799 94.4165L100.57 94.1876L107.844 86.9776H107.958C108.015 86.9776 120.444 85.8904 132.642 87.7215Z" fill="#7897F9"/>
<path d="M140.546 161.768L145.872 170.694C145.872 170.694 145.529 175.787 145.93 176.474C146.331 177.16 148.736 177.218 152.688 176.989C156.926 176.703 159.331 177.447 160.362 176.76C161.336 176.073 161.737 174.414 160.362 174.528C159.389 174.643 159.16 174.585 159.16 174.585C159.16 174.585 152.23 170.866 151.714 170.351C151.199 169.836 148.335 159.937 148.335 159.937L140.546 161.768Z" fill="#F49D8C"/>
<path d="M109.619 134.644L122.276 137.963C122.276 137.963 133.902 155.988 139.114 162.74C139.114 162.74 145.013 163.713 149.423 159.994C149.423 159.994 133.444 127.034 127.832 123.257C122.162 119.48 106.24 118.107 106.24 118.107L109.619 134.644Z" fill="#1B3151"/>
<path d="M85.3355 77.5935C85.3355 77.5935 80.2383 71.1846 80.9256 66.0346C81.6128 60.8273 84.5337 61.3996 84.5337 61.3996C84.5337 61.3996 82.8155 58.7673 84.3046 57.1079C85.7937 55.4485 85.6792 59.6829 85.6792 59.6829C85.6792 59.6829 86.1946 56.6501 90.1464 56.7073C94.1554 56.8218 97.1909 61.8573 99.6536 61.5712C102.116 61.2851 104.293 60.9418 101.372 63.4023C101.372 63.4023 102.632 63.6885 103.72 63.7457C104.751 63.8029 104.006 67.9229 97.42 67.9229L90.6618 73.4735L85.3355 77.5935Z" fill="url(#paint1_linear)"/>
<path d="M89.8028 86.3483C89.4019 86.2911 89.001 86.2339 88.6574 86.1194C86.0801 85.49 84.4765 82.8578 84.992 80.2256C85.5074 77.3072 85.622 74.9039 85.5647 73.5306C85.5647 73.2444 85.5647 72.9583 85.5647 72.7867C85.5647 72.3861 85.5074 72.1572 85.5074 72.1572L86.3665 72.8439L94.2701 79.0239C94.2701 79.0239 92.6092 80.7978 93.9264 83.3156C94.1555 83.7733 94.3273 84.1739 94.4419 84.5172C95.1291 86.5772 93.3537 86.8061 89.8028 86.3483Z" fill="#FEB19E"/>
<path d="M94.4418 84.46C87.6264 83.1439 85.9083 75.9338 85.5074 73.5305C85.4501 73.0727 85.3928 72.7866 85.3928 72.7866H85.4501L86.2519 72.8438L94.1555 79.0238C94.1555 79.0238 92.4946 80.7977 93.8118 83.3155C94.1555 83.7161 94.3273 84.1166 94.4418 84.46Z" fill="#FF856A"/>
<path d="M97.3626 67.9803C97.9353 71.7569 97.4199 75.3619 95.9881 78.9097C95.5872 79.8825 94.5563 80.4547 93.5254 80.2258C90.7763 79.5964 85.7364 77.708 85.3927 72.1575C85.3927 72.1575 84.1327 70.8414 84.4764 68.8958C84.82 67.0075 86.9963 68.5525 86.8818 71.3564C86.8818 71.3564 88.6572 70.3264 87.9127 66.6069C87.9127 66.6069 91.0054 69.8114 93.4681 69.4108C95.9308 69.0103 93.869 67.2936 93.869 67.2936C93.869 67.2936 95.7017 68.1519 97.3626 67.9803Z" fill="#FEB19E"/>
<path d="M99.5962 104.717C97.5344 105.346 95.3581 104.202 94.7281 102.142L92.8381 95.9617L100.341 93.6729L102.231 99.8529C102.861 101.913 101.658 104.087 99.5962 104.717Z" fill="white" stroke="#0C48ED" stroke-width="1.3753" stroke-miterlimit="10"/>
<path d="M89.6309 100.254L90.8336 99.6241C90.8336 99.6241 91.4636 97.6785 93.0672 97.0491L93.7545 99.0519C93.7545 99.0519 96.2744 98.7657 97.8208 97.793C99.4244 96.8202 99.8826 95.5041 100.169 95.1035C100.455 94.703 101.2 95.218 100.57 97.3352C99.9399 99.4524 100.856 101.055 99.8253 103.172C98.8517 105.232 93.0099 104.259 93.0099 104.259L91.2345 105.175L89.6309 100.254Z" fill="#FEB19E"/>
<path d="M91.75 105.06C81.3837 112.957 73.3084 114.502 70.502 114.788C61.9685 114.388 67.123 91.3842 71.0748 85.9481C71.4757 85.4331 71.8766 84.9181 72.392 84.4603C73.3084 83.7736 74.1675 83.3731 74.7974 83.3159C75.1411 83.2586 75.4274 83.2586 75.6565 83.3159C78.5201 84.0025 78.4629 90.6975 77.8329 94.4742C76.9738 99.2809 76.4011 103.286 76.4011 103.286L89.86 98.8231L90.2037 99.9675L91.12 103.229L91.2918 103.916L91.5782 104.946L91.75 105.06Z" fill="url(#paint2_linear)"/>
<path d="M91.4063 103.859C91.2345 103.973 91.0627 104.088 90.9481 104.202C83.9036 108.951 76.3437 111.526 73.7092 112.385C72.9074 112.671 72.2201 112.785 71.5901 112.785C70.731 112.785 69.9865 112.556 69.3565 112.041C67.4092 110.439 66.8938 106.148 67.8674 98.9948C68.9556 90.7548 72.9074 85.4903 74.8546 83.3159C75.1983 83.2586 75.4846 83.2586 75.7137 83.3159C74.0528 85.0898 69.7001 90.4114 68.4974 99.052C67.581 105.861 67.982 110.039 69.7574 111.469C70.6165 112.213 71.8192 112.27 73.4801 111.698C76.1146 110.783 83.6745 108.208 90.719 103.458C90.8908 103.344 91.0627 103.229 91.2345 103.115L91.4063 103.859Z" fill="#7897F9"/>
<path d="M101.372 163.656L101.944 173.04C101.944 173.04 100.684 178.476 101.658 178.991C102.632 179.506 109.733 179.449 110.822 178.991C111.852 178.533 112.769 175.672 110.306 176.76C110.306 176.76 108.302 174.528 107.786 172.64C107.786 172.64 107.614 171.266 107.385 170.522C107.156 169.778 107.5 162.225 107.5 162.225L101.372 163.656Z" fill="#FEB19E"/>
<path d="M109.218 164.228C104.923 165.201 99.4818 164.228 99.4818 164.228C96.5609 152.726 95.53 139.451 95.3009 135.846C95.2436 135.216 95.2436 134.93 95.2436 134.93C89.0582 136.418 84.6483 136.475 81.4983 135.846C73.7665 134.301 73.5947 128.578 73.5947 128.578C83.8465 119.48 101.429 111.583 107.328 119.308C113.227 126.919 109.218 164.228 109.218 164.228Z" fill="#23406D"/>
<path opacity="0.49" d="M95.2435 135.788C95.1862 135.159 95.1862 134.873 95.1862 134.873C89.0008 136.361 84.5909 136.418 81.4409 135.788C91.349 135.388 93.6399 125.431 93.6399 125.431C95.4153 132.012 95.2435 135.788 95.2435 135.788Z" fill="#1B3151"/>
<path d="M235.732 77.6507C235.732 77.6507 238.08 75.5908 239.856 75.4191C241.631 75.2474 238.252 76.9069 238.367 77.8224C238.481 78.8524 235.732 77.6507 235.732 77.6507Z" fill="#F49D8C"/>
<path d="M218.379 89.6675L221.185 91.2697C221.185 91.2697 234.988 77.5364 236.133 77.422C237.279 77.3075 238.94 78.2231 240.085 78.2803C241.173 78.3375 245.239 75.1903 245.869 75.4764C246.499 75.7625 242.548 80.3975 241.517 80.6264C240.486 80.8553 236.305 81.3703 236.076 81.5992C235.847 81.8281 224.679 97.1064 221.872 98.0792C219.123 99.052 215.687 97.3353 215.687 97.3353L218.379 89.6675Z" fill="#FEB19E"/>
<path d="M176.627 97.4499C176.627 97.4499 164.658 95.161 152.688 88.3515C152.688 88.3515 150.225 91.6704 148.163 91.6132C146.044 91.556 149.309 89.496 149.652 88.5232H144.612C144.612 88.5232 147.82 85.376 150.34 84.861C152.917 84.346 154.864 85.376 154.864 85.376C154.864 85.376 169.411 90.011 176.627 90.1254V97.4499Z" fill="#FEB19E"/>
<path d="M218.723 89.9534L215.401 97.9072L213.053 96.82L212.881 96.7628L210.475 95.6756C210.475 95.6756 210.475 95.6756 210.475 95.7328C210.361 96.1334 209.616 98.2506 208.929 100.597C208.242 103 207.554 105.518 207.554 106.319C207.612 107.463 210.132 113.701 211.334 117.821C211.907 119.823 211.678 121.483 211.678 121.483L187.108 112.957C187.108 112.957 189.285 104.373 188.769 103.172C188.368 102.256 186.192 101.455 185.046 97.5067L182.126 97.7928L176.513 98.4222V90.0106C176.513 90.0106 180.923 87.4356 186.478 83.6017C192.034 79.7678 193.523 80.855 193.523 80.855L197.646 81.0267C197.646 81.0267 202.114 79.7678 205.493 81.2556C209.044 82.8006 218.723 89.9534 218.723 89.9534Z" fill="url(#paint3_linear)"/>
<path opacity="0.5" d="M186.994 91.7272C185.104 95.4466 185.104 97.5066 185.104 97.5066L182.183 97.7927C182.126 96.0188 182.469 93.5583 184.417 91.5555C187.796 88.0077 187.853 86.8633 187.853 86.8633C187.853 86.8633 188.025 89.6672 186.994 91.7272Z" fill="#F6613A"/>
<path opacity="0.5" d="M210.475 95.7327C210.361 96.1333 209.616 98.2505 208.929 100.597C206.237 97.9644 205.092 93.4438 205.092 93.4438L210.475 95.7327Z" fill="#F6613A"/>
<path d="M198.276 79.2528C198.276 79.2528 204.462 81.4273 206.409 77.4217C208.356 73.4161 206.123 69.0673 202.629 72.9584C202.629 72.9584 206.065 65.0045 199.708 60.0261C194.84 56.1923 188.196 56.9361 188.025 61.4567C188.025 61.4567 185.905 59.3967 184.13 61.6284C182.355 63.86 185.447 71.9284 185.447 71.9284C185.447 71.9284 182.068 68.4378 181.438 72.7295C180.808 77.0784 185.963 81.3128 189.456 76.9639L198.276 79.2528Z" fill="url(#paint4_linear)"/>
<path d="M200.911 81.7706C200.911 81.7706 198.276 86.005 193.236 84.8606C193.236 84.8606 193.408 83.7161 193.294 82.1139C193.236 81.0839 193.007 79.825 192.606 78.5661L197.475 72.8439L198.047 72.1572C198.105 72.1572 198.105 78.2228 200.911 81.7706Z" fill="#FEB19E"/>
<path d="M197.761 74.446C197.875 79.9393 195.069 81.5987 193.294 82.1137C193.236 81.0837 193.007 79.8249 192.606 78.566L197.475 72.8438C197.646 73.2443 197.761 73.7593 197.761 74.446Z" fill="#FF856A"/>
<path d="M186.765 68.0372C186.765 68.0372 187.395 79.31 190.716 79.5389C194.038 79.7678 197.704 76.5061 198.391 73.0155C198.391 73.0155 199.479 72.615 199.479 70.7266C199.479 68.8383 197.761 68.4377 197.36 71.5277C197.36 71.5277 190.487 72.0427 188.426 64.7755C188.426 64.7183 188.139 66.8927 186.765 68.0372Z" fill="#FEB19E"/>
<path d="M173.248 162.225V168.92C173.248 168.92 170.614 172.525 168.724 173.155C166.834 173.841 163.684 176.073 167.177 176.245C170.671 176.416 176.455 176.702 178.059 176.073C178.689 175.844 177.715 169.264 177.715 169.264L179.663 162.168H173.248V162.225Z" fill="#F49D8C"/>
<path d="M167.12 176.302C167.12 176.302 173.764 176.588 173.993 176.302C174.222 176.016 172.504 173.727 171.702 174.757C171.702 174.757 170.499 173.498 169.354 174.986C169.354 174.986 167.922 174.013 167.349 174.986C167.349 174.986 166.261 173.555 165.517 174.528C164.829 175.443 165.001 176.416 167.12 176.302Z" fill="#FEB19E"/>
<path d="M185.848 123.428L187.051 121.769L178.575 119.48L166.662 128.464L172.905 135.445L172.847 139.222L172.389 163.827C172.389 163.827 175.367 165.487 181.037 163.827L185.333 135.903C185.333 135.903 203.03 137.848 208.07 132.069L185.848 123.428Z" fill="#2256B2"/>
<path d="M158.014 144.658C158.014 144.658 156.41 147.576 155.437 147.805C154.52 148.034 152.745 149.235 150.855 149.407C149.022 149.579 147.419 150.265 148.621 151.467C149.824 152.669 153.604 154.614 155.265 155.415C156.926 156.217 157.957 155.53 158.415 153.584C158.873 151.639 159.732 150.552 160.19 149.922C160.648 149.293 164.142 145.688 164.142 145.688L158.014 144.658Z" fill="#F49D8C"/>
<path d="M156.468 155.702C156.468 155.702 154.578 151.467 150.511 151.181C150.511 151.181 149.939 149.064 148.736 149.235C147.533 149.407 147.189 150.952 150.282 152.669C153.375 154.443 155.609 155.702 156.468 155.702Z" fill="#FEB19E"/>
<path d="M211.678 121.197C211.678 121.197 213.339 135.674 200.682 132.927C188.025 130.18 181.496 121.769 181.496 121.769C181.496 121.769 172.733 124.344 172.962 135.388L164.658 148.148C164.658 148.148 161.45 149.121 156.926 144.257C156.926 144.257 169.354 114.902 175.768 111.812C182.183 108.665 194.668 112.67 211.678 121.197Z" fill="#3471EA"/>
<path opacity="0.5" d="M168.667 61.5713H171.473C173.477 61.5713 175.081 59.9691 175.081 57.9663V44.5191C175.081 42.5163 173.477 40.9141 171.473 40.9141H141.52C139.515 40.9141 137.911 42.5163 137.911 44.5191V57.9663C137.911 59.9691 139.515 61.5713 141.52 61.5713H164.6C168.094 70.6696 175.883 67.0074 175.883 67.0074C170.499 67.1791 168.667 61.5713 168.667 61.5713Z" fill="#70B2DD"/>
<path d="M167.177 46.3501H143.868V47.8379H167.177V46.3501Z" fill="white"/>
<path d="M167.177 50.2983H143.868V51.7861H167.177V50.2983Z" fill="white"/>
<path d="M156.926 54.1895H143.868V55.6772H156.926V54.1895Z" fill="white"/>
<defs>
<linearGradient id="paint0_linear" x1="73.8854" y1="120.084" x2="106.838" y2="82.2901" gradientUnits="userSpaceOnUse">
<stop stop-color="#3855E1"/>
<stop offset="1" stop-color="#5C7EF7"/>
</linearGradient>
<linearGradient id="paint1_linear" x1="80.8321" y1="67.1633" x2="104.051" y2="67.1633" gradientUnits="userSpaceOnUse">
<stop stop-color="#3F2323"/>
<stop offset="1" stop-color="#5E3434"/>
</linearGradient>
<linearGradient id="paint2_linear" x1="65.9519" y1="113.167" x2="98.9044" y2="75.373" gradientUnits="userSpaceOnUse">
<stop stop-color="#3855E1"/>
<stop offset="1" stop-color="#5C7EF7"/>
</linearGradient>
<linearGradient id="paint3_linear" x1="208.447" y1="114.059" x2="194.732" y2="88.7164" gradientUnits="userSpaceOnUse">
<stop stop-color="#E6C656"/>
<stop offset="1" stop-color="#F7C759"/>
</linearGradient>
<linearGradient id="paint4_linear" x1="197.914" y1="80.2384" x2="188.242" y2="62.2871" gradientUnits="userSpaceOnUse">
<stop stop-color="#3F2323"/>
<stop offset="1" stop-color="#5E3434"/>
</linearGradient>
</defs>
</svg>
